<?xml version="1.0" encoding="utf-8"?>
<!-- Generator: Adobe Illustrator 23.0.2, SVG Export Plug-In . SVG Version: 6.00 Build 0)  -->
<svg version="1.1" id="Layer_1" xmlns="http://www.w3.org/2000/svg" xmlns:xlink="http://www.w3.org/1999/xlink" x="0px" y="0px"
	 viewBox="0 0 43 43" style="enable-background:new 0 0 43 43;" xml:space="preserve">
<path d="M19.3,11h-2V9h2V11z M11.3,23h-2v2h2V23z M11.3,20h-2v2h2V20z M11.3,17h-2v2h2V17z M11.3,12c0-0.6,0.4-1,1-1h4V9h-4
	c-1.7,0-3,1.3-3,3v4h2V12z M22.3,9h-2v2h2V9z M25.3,9h-2v2h2V9z M22,20.6c0-0.3-0.2-0.4-0.5-0.4H21V21h0.5C21.8,21,22,20.9,22,20.6z
	 M13.3,13h16v16h-16C13.3,29,13.3,13,13.3,13z M23.4,21.6c0,0.9,0.5,1.4,1.5,1.4c0.9,0,1.5-0.5,1.5-1.4v-2.1h-0.9v2.1
	c0,0.5-0.2,0.6-0.6,0.6c-0.4,0-0.6-0.2-0.6-0.6v-2.1h-0.9C23.4,19.5,23.4,21.6,23.4,21.6z M20.1,22.9H21v-1.2h0.7
	c0.8,0,1.2-0.5,1.2-1.1c0-0.7-0.4-1.1-1.2-1.1h-1.6C20.1,19.5,20.1,22.9,20.1,22.9z M16.4,21.2c0,1,0.6,1.8,1.7,1.8
	c0.8,0,1.4-0.5,1.5-1.5h-0.9c-0.1,1.1-1.5,1-1.5-0.3c0-0.6,0.2-1,0.8-1c0.3,0,0.6,0.2,0.6,0.6h0.9c-0.1-0.9-0.7-1.4-1.5-1.4
	C17,19.4,16.4,20.2,16.4,21.2z M31.3,22h2v-2h-2V22z M11.3,30v-4h-2v4c0,1.7,1.3,3,3,3h4v-2h-4C11.8,31,11.3,30.5,11.3,30z M31.3,30
	c0,0.6-0.4,1-1,1h-4v2h4c1.7,0,3-1.3,3-3v-4h-2V30z M31.3,25h2v-2h-2V25z M31.3,19h2v-2h-2V19z M30.3,9h-4v2h4c0.6,0,1,0.4,1,1v4h2
	v-4C33.3,10.3,32,9,30.3,9z M17.3,33h2v-2h-2V33z M23.3,33h2v-2h-2V33z M20.3,33h2v-2h-2V33z"/>
</svg>
