<svg id="Layer_1" data-name="Layer 1" xmlns="http://www.w3.org/2000/svg" viewBox="0 0 48.8 48.7"><defs><style>.cls-1{fill:#21b24f;stroke:#000;stroke-miterlimit:10;stroke-width:0.75px;}</style></defs><title>c</title><path class="cls-1" d="M25.2,39.2A59.7,59.7,0,0,0,31,37.5c3-1.2,5.9-1.9,7.5,1.8s-.8,5.3-3.5,6.5c-9.2,4.1-18,3.4-25.7-3s-10.6-14.7-8-24.5S10.1,2.7,19.7.8C33.9-1.9,47.3,7.9,48.3,21.5c.2,3.3.5,6.9-3.9,7.2s-4.9-2.8-5.3-6.3A14.5,14.5,0,0,0,25,9.5c-7.8-.1-13.9,5.1-15.2,12.9s3.4,13.8,10.1,15.9A48.1,48.1,0,0,0,25.2,39.2Z"/></svg>