<svg id="Layer_1" data-name="Layer 1" xmlns="http://www.w3.org/2000/svg" viewBox="0 0 352.83 271.57"><defs><style>.cls-1{fill:#b21706;}.cls-1,.cls-2,.cls-3,.cls-4,.cls-5,.cls-6{stroke:#000;stroke-miterlimit:10;stroke-width:0.75px;}.cls-2{fill:#ccbea9;}.cls-3{fill:#89a31e;}.cls-4{fill:#cc8969;}.cls-5{fill:#b26d06;}.cls-6{fill:#d1ff15;}</style></defs><title>game</title><path class="cls-1" d="M75,235.91c3.12,14.27-8.59,26.12-20.81,31.41-11.45,5-27.66,6.3-37.61-3.16-3.63-3.57-6.57-8.45-6.33-13.71.38-6.77,4.23-11.77,9.59-15.56s11.75,4.73,6.11,8.81a16.06,16.06,0,0,0-4,3.79c-.95,1.7-1.14,2.26-1,3.59.06.17.23,1.18.1.84l.25.69c0,.09.46,1,.35.95l.42.62a8.62,8.62,0,0,0,3.3,3.2c6.85,4.93,17.92,3.46,26-.43,6.64-3.18,16.1-11,12.9-19.58a10.42,10.42,0,0,0-7.74-6.85c-.7,0-1.37,0-1.95,0,.7,1.11,1.34,2.34,2,3.45,1.49,2.49,1.25,5.6-1.23,7.37-2.22,1.68-6.09,1.23-7.54-1.17-1.82-3.14-3.59-6.4-5.44-9.64a5.4,5.4,0,0,1,2.52-8.12,4.83,4.83,0,0,0,1-.46c5.48-2.38,11.41-3,17-.4A20.76,20.76,0,0,1,75,235.91Zm-14.24-12.7c-.76-.21-1.52-.42-2.25-.55a15.86,15.86,0,0,0-2.32-.23c-1.66,0-3.25.2-4.75.35a21.32,21.32,0,0,0-3.86,1.2,11,11,0,0,0-2.63,1.35c-.23.18-.63.42-.77.57s-.17.06-.14.15l-.09,0a.55.55,0,0,0,.77.79l.2-.27a4.41,4.41,0,0,0,.63-.42,12.67,12.67,0,0,1,2.37-1.25,28.15,28.15,0,0,1,3.71-1.34,19.52,19.52,0,0,1,4.57-.58,14,14,0,0,1,2.26.06,21,21,0,0,1,2.22.47,2.16,2.16,0,0,1,1,.23l1,.33.94.44c.23.11.41.33.65.44a6.82,6.82,0,0,1,1.47.84l1,.7a5.54,5.54,0,0,0-1-.73,6.31,6.31,0,0,0-1.41-.95l-.77-.51c-.23-.11-.5-.3-.85-.47a5.65,5.65,0,0,1-1-.41Zm-4.61-7.88a18.9,18.9,0,0,1,13.09,3.84c.12.06.18.23.24.4a1,1,0,0,1,0,.7,1.1,1.1,0,0,1-1.18.23,16.85,16.85,0,0,0-11.84-3.61c-.49,0-.91-.36-.83-.68A.75.75,0,0,1,56.14,215.33Zm14.69,6.09a.71.71,0,0,1,1.07,0,22.77,22.77,0,0,1,3.41,4l.12,0a.88.88,0,0,1-.5,1.06.8.8,0,0,1-1.08-.29,16.82,16.82,0,0,0-3-3.7A.84.84,0,0,1,70.83,221.42Z"/><path d="M52.14,211.61a5,5,0,0,1-4.86-4.94,13.29,13.29,0,0,1,.08-3.3l-43.84-11c-5.59-1.46-4-9.34,1.28-9.63,2.56-.18,5-.28,7.61-.46,24.2-1.41,43.91-2.8,68.12-4.2,6.32-.38,6.34,9.34,0,9.71-2.48.19-5,.38-7.61.47-4.58.28-4.77.46-9.35.75a9.29,9.29,0,0,1-.92,1l-.82.92c-.09.09-1,1.38-1.19,1.65-.46.83-.92,1.66-1.28,2.48-.19.37-.28.74-.46,1.1l4.77,1.19c6.14,1.55,3.5,11-2.56,9.45-1.47-.37-2.84-.73-4.22-1a3.55,3.55,0,0,1,.19.83C57.27,209.32,54.71,211.61,52.14,211.61Zm-48-21.21a.81.81,0,0,0,.46-.92.76.76,0,0,0-.09-.28v-.82a2.45,2.45,0,0,1,.27-1.1,2.6,2.6,0,0,1,1.19-1c.19,0,.37-.1.55-.1l.09-.09H7a5.53,5.53,0,0,1,1.19-.18,21.91,21.91,0,0,1,2.66-.28,13.56,13.56,0,0,1,2.75-.28l2.94-.28c7.7-.65,15.49-1.21,15.49-1.21s-7.79.2-15.59.48c-1,0-1.92.09-2.93.09s-1.83.1-2.75.19a24.65,24.65,0,0,0-2.66.19,6.08,6.08,0,0,0-1.28.09H6.36l-.09.09a6.06,6.06,0,0,0-.65.1,3.52,3.52,0,0,0-1.92,1.46,3.26,3.26,0,0,0-.55,1.75,2.24,2.24,0,0,0,0,1.1,1.08,1.08,0,0,0,.1.46A.76.76,0,0,0,4.16,190.4Zm17.53,10.25-3.85-.92a.79.79,0,0,1-.46-.91.76.76,0,0,1,.91-.56l3.76,1a.78.78,0,0,1,.55.73.31.31,0,0,1-.09.19A.6.6,0,0,1,21.69,200.65Zm21.18,4.83A.75.75,0,0,1,42,206L23.8,201.19a.64.64,0,0,1-.55-.82.69.69,0,0,1,.91-.55l18.25,4.74a.82.82,0,0,1,.46.74Zm-6.16-14.85c4.22,1.1,8.44,2.1,12.66,3.2a24.23,24.23,0,0,1,1.56-3.58c0-.18.09-.27.18-.46Z"/><path class="cls-2" d="M87.12,144.55c-14-5.91-27.79-12.6-41.36-19.51,4.85,5.91,9.69,11.82,14.44,17.7,3.37,4.09-.07,9.66-5,9.49-5.71-.17-11.47-.46-17.18-.63,8.45,4.13,16.86,8.33,25.3,12.46,2.83,1.34,4.58,4.25,3.4,7.43-1,2.75-4.64,4.82-7.46,3.48q-25-12.4-50.12-24.63c-5.87-2.88-4.32-11.5,2.51-11.2,10.46.28,21,.67,31.41,1L18.88,110.52c-3.45-4.12,1.15-12,6.53-9.11,21.48,11.42,43.27,22.77,65.77,32.23C98,136.57,94,147.49,87.12,144.55Zm3.1-9.12a15.79,15.79,0,0,0-3.76-2,22.14,22.14,0,0,0-2.2-.91l-1.12-.42-1.2-.45c-1.6-.69-3.23-1.3-5-2.06s-3.43-1.57-5.2-2.32-3.6-1.64-5.43-2.51c-3.6-1.64-7.25-3.39-10.59-4.93s-6.56-3.13-9.33-4.35l-9-4.32S41,113,46.32,115.66l9.12,4.67c3.4,1.65,6.93,3.46,10.5,5.18,1.79,1,3.53,1.8,5.36,2.68l5.22,2.53,4.89,2.11c.43.16.83.41,1.17.54l1.2.45c.74.37,1.43.63,2.09,1a14,14,0,0,1,3.29,1.91,3.27,3.27,0,0,1,1.38,2.08,2.46,2.46,0,0,1-.39,1.32c-.07.17-.22.31-.25.4l-.15.14,0,.08a.84.84,0,0,0,.25,1.17,1,1,0,0,0,1.25-.21l.07-.18a2,2,0,0,0,.28-.48,3.91,3.91,0,0,0,.47-1,2.86,2.86,0,0,0,.13-1.41,3.44,3.44,0,0,0-.63-1.71A10.08,10.08,0,0,0,90.22,135.43Z"/><path class="cls-3" d="M104.22,81a81.37,81.37,0,0,0-11.61,26.31c-.31,1.76-.76,3.38-1,5.07-.06.71-.32,1.49-.44,2.27l-.06,1.23c-.06,1-.25,1.82-.25,2.72,0,3.83-5,6.51-7.83,3.35-4.23-4.71-8.47-9.43-12.84-14.14a4.18,4.18,0,0,1-4-4.32c-.2-.2-.33-.45-.59-.71-5-5.49-9.91-11.24-14.92-16.59a4.48,4.48,0,0,1-5-2.12c-1.7-2.58.17-5.9,1.32-8.24,1.35-3.31,2.89-6.56,4.5-9.74,2.18-4.68,4.55-9.43,6.86-14.11,2.77-5.39,10.76-.82,8.19,4.5C64.32,60.72,62.2,65.07,60,69.36l-4.17,8.9c4.63,4.84,8.87,9.81,13.3,14.72l2.11-7c1.65-5.71,10.55-3.48,8.89,2.23-1.34,4.22-2.55,8.44-3.76,12.79l6.51,7.23A90.34,90.34,0,0,1,96.22,76.45a4.93,4.93,0,0,1,6.41-1.78A4.61,4.61,0,0,1,104.22,81Zm-3.46-4.45a.63.63,0,0,0-.12.9l.13.13.06.07.07.06a1.18,1.18,0,0,1,.33.84,3,3,0,0,1-.38,1.69,12.66,12.66,0,0,1-1.23,2.15c-.25.39-.38.78-.7,1.23l-.2.33c-.12.13-.12.26-.25.39l-.39.78c-.38.78-1,1.82-1.54,2.86s-1,2.08-1.61,3.31c-.25.52-.44,1.1-.77,1.69l-.77,1.56c-.57,1.23-.89,2.34-1.34,3.57s-.83,2.27-1.15,3.38a28.91,28.91,0,0,0-1,3.18c-.25,1-.51,2.08-.63,3s-.45,1.76-.51,2.47-.19,1.49-.25,2.08-.12.9-.12,1.16l.19-1.23c.06-.58.19-1.23.31-2s.38-1.43.57-2.4.38-2,.64-3,.7-2,1.08-3.18l1.29-3.25c.57-1.23.89-2.34,1.4-3.5a13,13,0,0,0,.77-1.69c.33-.46.58-1,1-1.5.51-1.17,1.09-2.14,1.67-3.25s1-2,1.54-2.86c.19-.19.32-.45.52-.65a.54.54,0,0,1,.19-.32.72.72,0,0,1,.19-.33l.77-1.17A19.79,19.79,0,0,0,102,80.7a5.24,5.24,0,0,0,.51-2.08,2.72,2.72,0,0,0-.33-1.62l-.2-.19c-.06-.07-.06-.07-.13-.26A.68.68,0,0,0,100.76,76.56Z"/><path class="cls-4" d="M164.26,15a.93.93,0,0,1-1.84,0l0-3.58a.84.84,0,0,1,.82-.92l.93.81Zm-1.69,4.69a.9.9,0,0,1,.81-.92.92.92,0,0,1,.93.91l.22,11.09a.82.82,0,0,1-.82.83.83.83,0,0,1-.92-.81Zm15.61,26.05c.06,5.6.21,11.19.28,16.78.08,7.06-10.83,7.18-10.91.12l-.87-52.8a5.23,5.23,0,0,1,2.06-4.43l.54-.46c6-3.83,14.05-6.12,21-3.45,5.89,2.23,10.9,6.85,12.62,13.16A21.63,21.63,0,0,1,198.4,34C193.42,40.1,185.85,43.67,178.18,45.77Zm17.39-35.31a13,13,0,0,1,1.49,2.37l.37.72a.7.7,0,0,1,.1.28v.09a1,1,0,0,0,1.2.35.83.83,0,0,0,.44-1.1L199,12.8c-.1-.18-.28-.45-.47-.72a19.22,19.22,0,0,0-1.77-2.55c-.47-.45-.93-1-1.49-1.45a12.83,12.83,0,0,0-1.75-1.45,10.21,10.21,0,0,0-2.13-1.26,11.12,11.12,0,0,0-2.39-1,5.44,5.44,0,0,0-1.2-.35l-1.29-.26c-.36,0-.73-.09-1.1-.08a5.06,5.06,0,0,0-1.19-.08H183a4.57,4.57,0,0,0-1.1.11,4.1,4.1,0,0,0-1.1.1l-.91.1a16,16,0,0,1-1.74.39c-.46.19-.92.28-1.1.38a5.9,5.9,0,0,0-1.1.38l1.1-.29a7.63,7.63,0,0,1,1.19-.29l1.65-.29h1a3.4,3.4,0,0,1,1-.11H183c.37,0,.74.08,1.11.08a5,5,0,0,1,1.19.17,5.48,5.48,0,0,1,1.1.17l1.1.26c.47.18.83.27,1.2.45a8.8,8.8,0,0,1,2.12,1.07,9.57,9.57,0,0,1,1.94,1.27A12.56,12.56,0,0,1,194.36,9Zm-3,8.19c-.09-.27-.1-.55-.19-.91s-.76-1.73-.47-1.19a5.63,5.63,0,0,0-.47-1,5.27,5.27,0,0,0-.66-.82c-.18-.18-.46-.64-.55-.73l-.93-.81c-.18-.09-.55-.36-.74-.45l-1.38-.81h-.09c-.1,0-.28-.09-.46-.09-.46-.08-.92-.26-1.48-.35-.18,0-.18,0-.27-.09h-.37l-1.74,0h-.64c0,.09-.09.09-.18.09a15.48,15.48,0,0,0-4.3,1.24c.17,7.24.26,14.48.34,21.64a34.6,34.6,0,0,0,5.2-2.26,22.4,22.4,0,0,0,6.73-5,12.94,12.94,0,0,0,2.6-5.26,1.82,1.82,0,0,0,.08-.55l.07-1.56Z"/><path class="cls-5" d="M209.34,54.11a5,5,0,0,1,6.2-3.11,14,14,0,0,1,3.12,1.1l23.9-38.34c3.11-4.88,10.14-1,8.77,4.17-.61,2.5-1.28,4.88-1.89,7.38C243.33,48.77,238.6,68,232.49,91.42c-1.59,6.13-10.84,3.16-9.25-3,.58-2.41,1.19-4.91,1.89-7.38,1.14-4.45,1-4.68,2.17-9.13a8.72,8.72,0,0,1-.68-1.18L226,69.68c-.06-.11-1-1.38-1.21-1.64-.64-.69-1.28-1.38-2-2-.29-.29-.61-.49-.91-.77l-2.59,4.17c-3.37,5.37-11.54,0-8.2-5.34.8-1.28,1.57-2.48,2.25-3.7a3.85,3.85,0,0,1-.84-.08C210,59.7,208.56,56.55,209.34,54.11ZM218,47.18a.76.76,0,0,1-.24-1L228,30.34a.66.66,0,0,1,1-.26.69.69,0,0,1,.24,1L219,47a.79.79,0,0,1-.84.21Zm16-1.3c-2.34,3.68-4.59,7.38-6.93,11.06A24.71,24.71,0,0,1,230,59.52c.18.06.24.17.38.32Zm-4.91-17.37,2.06-3.39a.8.8,0,0,1,1-.15.76.76,0,0,1,.24,1l-2.11,3.27a.81.81,0,0,1-.87.3.3.3,0,0,1-.14-.15A.6.6,0,0,1,229.14,28.51ZM244.29,15a.79.79,0,0,0,.73.72.69.69,0,0,0,.29,0l.78.25a2.45,2.45,0,0,1,1,.6,2.61,2.61,0,0,1,.59,1.44c-.05.18,0,.38-.08.56l.06.11,0,.09-.08.26a5.8,5.8,0,0,1-.19,1.19,22.84,22.84,0,0,1-.56,2.62,13.46,13.46,0,0,1-.58,2.7l-.64,2.88c-1.75,7.52-3.61,15.11-3.61,15.11s2.21-7.47,4.34-15c.31-1,.5-1.86.81-2.82s.48-1.77.67-2.67a23.24,23.24,0,0,0,.64-2.59,6.53,6.53,0,0,0,.31-1.25l.08-.26,0-.09,0-.08-.06-.12c.08-.26.05-.46.11-.64a3.51,3.51,0,0,0-.81-2.28,3.2,3.2,0,0,0-1.49-1.06,2.2,2.2,0,0,0-1-.34,1.14,1.14,0,0,0-.46-.05A.76.76,0,0,0,244.29,15Z"/><path d="M258.2,92.43c-10.34-10.33-6.89-26.62.52-37.68,6.92-10.41,19.86-20.26,33.35-17.68,5,1,10.09,3.56,12.73,8.11,3.34,5.9,2.81,12.18.35,18.27-2.49,6.28-12.44,2.38-9.9-4.11A16,16,0,0,0,296.56,54c-.13-1.94-.27-2.51-1.07-3.59-.14-.11-.83-.86-.54-.64l-.59-.45c-.07,0-.93-.59-.8-.61l-.69-.3a8.64,8.64,0,0,0-4.5-.9c-8.44-.44-16.95,6.78-21.62,14.4-3.87,6.28-7.61,18-.27,23.46a10.46,10.46,0,0,0,10.22,1.57c.61-.34,1.14-.74,1.62-1.07-1.18-.56-2.39-1.24-3.57-1.81-2.6-1.28-4.08-4-2.95-6.86,1-2.62,4.46-4.33,7-3.09,3.23,1.66,6.48,3.45,9.78,5.16a5.41,5.41,0,0,1,2.27,8.2,4.45,4.45,0,0,0-.59.93c-3.33,5-8,8.66-14.1,9.54A20.78,20.78,0,0,1,258.2,92.43Zm11.34,9.93a.69.69,0,0,1-.9.57,23,23,0,0,1-5.05-1.54h-.13a.87.87,0,0,1-.16-1.15.8.8,0,0,1,1.07-.34,17.13,17.13,0,0,0,4.52,1.49A.85.85,0,0,1,269.54,102.36Zm7.51-7c.75-.23,1.5-.46,2.19-.75a16.32,16.32,0,0,0,2.08-1.06c1.38-.91,2.62-1.93,3.8-2.87a22.1,22.1,0,0,0,2.6-3.09,11.77,11.77,0,0,0,1.49-2.56,9.37,9.37,0,0,0,.33-.89c.06-.08.11-.15,0-.2l.06-.08a.55.55,0,0,0-1.08-.25l0,.33a4.43,4.43,0,0,0-.3.7A13.23,13.23,0,0,1,286.91,87a27.85,27.85,0,0,1-2.39,3.14,20.43,20.43,0,0,1-3.53,3,14.61,14.61,0,0,1-1.93,1.17,22.17,22.17,0,0,1-2.12.81,2.17,2.17,0,0,1-.94.32l-1,.26-1,.14c-.26,0-.53-.06-.79,0a6,6,0,0,1-1.68.09l-1.25,0a6.34,6.34,0,0,0,1.19.11,7.39,7.39,0,0,0,1.71,0h.91c.26,0,.59,0,1-.07a5.7,5.7,0,0,1,1.09-.21Zm8.14,4.14a18.89,18.89,0,0,1-13.09,3.85.73.73,0,0,1-.42-.21,1,1,0,0,1-.35-.61,1.13,1.13,0,0,1,.87-.83,16.88,16.88,0,0,0,11.92-3.36c.42-.25.95-.19,1.06.12A.75.75,0,0,1,285.19,99.54Z"/><path class="cls-6" d="M310.61,143.6a81.09,81.09,0,0,0-22.18-18.31c-1.6-.78-3-1.65-4.59-2.35-.67-.25-1.35-.71-2.07-1l-1.17-.39c-.92-.32-1.68-.73-2.55-1-3.67-1.08-4.9-6.6-1.1-8.44,5.69-2.8,11.37-5.6,17.09-8.52a4.19,4.19,0,0,1,5.24-2.66c.24-.13.53-.19.85-.37,6.64-3.34,13.5-6.49,20-9.87a4.48,4.48,0,0,1,3.4-4.23c2.94-.94,5.63,1.76,7.57,3.5,2.82,2.2,5.53,4.56,8.16,7,3.91,3.37,7.83,6.94,11.71,10.44,4.44,4.12-2.12,10.58-6.55,6.66-3.46-3.31-7.07-6.53-10.61-9.8l-7.44-6.43c-5.91,3.14-11.85,5.87-17.77,8.81l6.11,3.91c5,3.15.5,11.1-4.55,8-3.7-2.44-7.43-4.75-11.29-7.1l-8.73,4.31a90.12,90.12,0,0,1,27,21.47,4.93,4.93,0,0,1,0,6.66A4.63,4.63,0,0,1,310.61,143.6Zm5.23-2.12c-.18-.32-.52-.55-.84-.37l-.16.1-.08,0-.08.05a1.12,1.12,0,0,1-.9.08,2.84,2.84,0,0,1-1.52-.82,12.61,12.61,0,0,1-1.73-1.76c-.31-.35-.65-.58-1-1l-.26-.28c-.09-.16-.22-.19-.31-.35l-.64-.58c-.65-.59-1.47-1.49-2.34-2.26s-1.72-1.56-2.75-2.45c-.43-.39-.94-.73-1.42-1.2l-1.29-1.16c-1-.89-2-1.5-3.07-2.26s-2-1.42-2.94-2A38.15,38.15,0,0,0,289,122c-.88-.45-1.56-.91-2.23-1.16s-1.39-.58-1.93-.8-.84-.37-1.09-.44l1.13.52c.55.22,1.14.51,1.85.85s1.28.75,2.16,1.2a28.55,28.55,0,0,1,2.7,1.42c.77.61,1.75,1.22,2.77,1.91l2.78,2.11c1,.89,2,1.5,3,2.31a12.84,12.84,0,0,0,1.42,1.2c.35.43.78.82,1.18,1.33,1,.81,1.76,1.64,2.67,2.49.82.7,1.6,1.52,2.34,2.26.13.24.35.44.48.67.13,0,.22.2.26.28a.63.63,0,0,1,.26.27l.92,1.06a18.35,18.35,0,0,0,1.87,2,5.16,5.16,0,0,0,1.86,1.05,2.58,2.58,0,0,0,1.65.12l.24-.13c.08,0,.08,0,.28-.06A.67.67,0,0,0,315.84,141.48Z"/></svg>