<svg id="Layer_1" data-name="Layer 1" xmlns="http://www.w3.org/2000/svg" viewBox="0 0 226.8 226.8"><defs><style>.cls-1{fill:#1e30a3;stroke:#000;stroke-miterlimit:10;stroke-width:0.75px;}</style></defs><title>lc</title><path class="cls-1" d="M202.9,45.3c4.6,8,10,15.6,13.5,24,17.9,43.8,11.7,84.2-18.4,119.7-38.1,44.9-109.1,49.9-154.9,11.9l-8.9-7.4L23.5,181.4c-5.3-10.1-11.7-19.7-15.7-30.2C-3.6,121.1-1.6,91.4,12,62.6l1-1.7c1.4-2.7,3.9-4.5,6.4-2.4s2.2,4.7,1.6,6.6c-2,6.5-5.3,12.6-7.2,19.1-11.8,41,3.4,85.9,37.6,111.7s82.2,28.2,118.1,5.2c48.8-31.3,62-96,29.6-144.7-29.2-44-87.8-59.4-134-35.2-3.1,1.6-6.1,2.7-8.2-1.1s1.1-5.8,3.9-7.2q48.3-24,98.2-2.1a101.8,101.8,0,0,1,30.4,20.3,29.2,29.2,0,0,0,2.8,2.1Z"/></svg>