<svg id="Layer_1" data-name="Layer 1" xmlns="http://www.w3.org/2000/svg" viewBox="0 0 137.8 137.8"><defs><style>.cls-1{stroke:#000;stroke-miterlimit:10;stroke-width:0.75px;}</style></defs><title>mc</title><path class="cls-1" d="M68.3,137.4A69.3,69.3,0,0,1,.4,68.2C.4,35.8,24.4,6.3,55.3.8,58.6.2,62-.4,62.8,4.1S60.2,9.3,56.9,10A59.5,59.5,0,0,0,71.3,127.6c26.4-1,49.1-20,55.2-46.3s-6.6-53.2-30.1-65.7c-3.3-1.7-8.2-3.1-5.4-8.2s6.7-1.7,9.9,0c24.8,13.2,39.7,42,35.9,69.1-4.3,30-25.5,53.2-54.2,59C77.9,136.5,73,136.8,68.3,137.4Z"/></svg>