<?xml version="1.0" encoding="utf-8"?>
<!-- Generator: Adobe Illustrator 23.0.2, SVG Export Plug-In . SVG Version: 6.00 Build 0)  -->
<svg version="1.1" id="Layer_1" xmlns="http://www.w3.org/2000/svg" xmlns:xlink="http://www.w3.org/1999/xlink" x="0px" y="0px"
	 viewBox="0 0 670.33 1380.25" style="enable-background:new 0 0 670.33 1380.25;" xml:space="preserve">
<path d="M385.51,844.53c8.27,4.77,8.15,4.65,14.8-1.78c3.53-3.41,7.6-6.23,11.34-9.43c3.55-3.03,7.46-2.28,11.25-1.01
	c3.3,1.11,3.28,8.36,0.18,12.25c-6.06,7.59-12.09,15.21-18.43,23.19c6.29,5.58,10.45,13.64,12.7,22.48
	c1.75,6.89,0.41,13.86-2.67,20.28c-2.99,6.23-3.76,12.58-2.55,19.37c0.34,1.93-0.6,4.08-0.96,6.16c-6.66-2.99-12.36-5.55-17.47-7.84
	c-11.59,7.76-23.61,9.63-36.67,7.08c-2.14-0.42-5.09,0.69-6.96,2.05c-9.34,6.82-9.09,6.83-15.29-3.23
	c-8.16-13.26-16.33-26.52-25.05-39.42c-4.99-7.39-11.36-13.82-16.56-21.09c-6.25-8.73-7.69-18.99-9.05-29.5
	c-1.89-14.59,0.7-28.77,1.99-43.07c0.6-6.63,2.95-13.1,4.54-19.77c-9.11-1.35-17.64-3.84-25.44-9.12
	c-5.99-4.05-13.27-6.2-19.19-10.33c-4.84-3.38-9.28-7.94-12.43-12.9c-2.13-3.36-3.52-2.94-6.11-1.81c-6.26,2.72-7.31,2.75-8.99-3.61
	c-3.73-14.19-6.93-28.53-9.85-42.9c-1.48-7.26,3.56-12.39,7.43-17.78c0.89-1.23,1.4-3.02,1.41-4.55c0.05-8.9,0.77-17.51,6.77-24.81
	c2.31-2.82,5.32-5.3,8.42-3.33c2.69,1.71,4.8,5.24,5.81,8.4c0.96,2.99,0.16,6.55,0.13,10.41c14.62-4,25.42,3.65,36.58,10.75
	c-0.91-3.61-2.37-7.11-2.55-10.67c-0.31-6.24-0.62-12.69,0.66-18.71c0.65-3.09,4.3-6.58,7.4-7.76c2.24-0.85,6.84,0.96,8.56,3.08
	c2.91,3.56,4.43,8.28,6.41,12.57c0.67,1.45,0.96,3.07,1.94,4.51c2.23-5.26,0.14-10.11-1.61-14.85c-2.53-6.88-6.61-12.51-12.05-17.78
	c-5.21-5.05-7.24-12.52-5.34-20.25c1-4.03,3.88-6.71,7.69-6.74c2.89-0.02,6.93,1.23,8.47,3.36c4.1,5.65,7.12,12.07,10.09,17.34
	c-0.05,0.48,0.15-0.51,0.11-1.49c-0.04-0.98-0.32-1.95-0.47-2.93c-1.56-10.48-1.09-20.46,6.2-29.13c5.27-6.27,14.82-6.67,20.36-0.46
	c5.27,5.9,7.98,12.72,8.08,20.78c0.15,12.33,2.77,24.1,9,34.94c1.97,3.43,3.56,7.07,5.83,11.6c2.03-2.67,4.37-5.07,5.92-7.9
	c5.14-9.39,7.71-19.56,9.55-30.1c0.74-4.25,3.75-8.52,6.76-11.86c3.82-4.24,8.28-2.58,8.66,3.27c0.49,7.39,0.57,14.94-0.4,22.26
	c-1.38,10.45-5.8,19.68-12.25,28.31c-3.78,5.05-5.53,11.8-7.36,18.03c-0.62,2.11,1.35,4.97,2.25,7.86c1.2-0.7,2.24-1.74,3.39-1.88
	c2.15-0.25,4.8-0.69,6.42,0.3c1.27,0.77,2.1,3.76,1.72,5.46c-1.67,7.56-3.72,15.04-5.88,22.48c-2.2,7.57-4.75,15.03-7.02,22.58
	c-0.51,1.68-0.47,3.53-0.82,6.45c7.02-4.19,11.12-9.45,14.53-15.54c7.07-12.6,16.09-23.64,27.61-32.43c2.23-1.7,5.41-2.96,8.16-2.98
	c6.33-0.04,10.22,6.23,8.34,13.13c-2.31,8.47-6.64,15.61-13.68,21.25c-8.69,6.95-14.72,16-18.44,26.51
	c-3.51,9.92-8.1,19.65-10.05,29.88c-2.46,12.93-3.02,26.26-3.81,39.45c-0.31,5.18,2.94,6.81,8.11,6.46
	c2.24-0.15,5.01,1.03,6.72,2.54c0.76,0.67-0.08,3.91-0.99,5.54C389.76,839.12,387.52,841.75,385.51,844.53z M320.41,597.49
	c-3.66,5.18-4.83,10.82-4.1,17.03c0.85,7.25,1.77,14.51,2.07,21.79c0.37,8.99-0.76,18.13,0.42,26.99
	c1.25,9.35-1.33,17.83-3.74,26.31c-1.09,3.84-4.97,7.06-8.06,10.06c-0.89,0.86-4.16,0.71-5.18-0.23c-4.63-4.31-8.59-9.19-9.15-15.93
	c-0.36-4.3-0.3-8.7-1.27-12.87c-1.34-5.78-1.17-12.29-6.53-16.52c-2.12-1.68-4.3-1.77-4.97,1.1c-0.78,3.34-1.56,7.05-0.9,10.3
	c2.2,10.76,3.66,21.88,12.39,30.14c1.35,1.28,0.8,4.57,1.13,6.92c-2.01-0.63-4.4-0.78-5.97-1.98c-9.89-7.54-19.47-15.44-31.46-19.74
	c-13.31-4.77-25.83-2.04-34.83,8.13c9.02,2.53,14.27,8.57,12.47,15.46c-0.77,2.94-3.19,6.03-5.74,7.77
	c-2.52,1.73-6.13,1.84-10.04,2.87c2,7.5,4.16,15.64,6.63,24.94c2.91-3.25,5.28-5.36,6.95-7.92c1.52-2.34,3.26-5.2,5.88-3.82
	c3.24,1.71,1.68,4.81-0.08,7.28c-0.12,0.17,0.11,0.58,0.09,0.5c8.99,7.13,18.33,4.68,27.96,2.63c-2.14-4.82-3.93-8.84-6.02-13.55
	c9.06-1.32,7.83,8.35,13.26,9.56c1.57-4.81,3.14-9.61,4.73-14.47c3.1,1.65,4.93,2.81,6.9,3.62c1.15,0.48,2.53,0.42,3.8,0.6
	c-0.26,1.4-0.08,3.13-0.85,4.15c-3.62,4.82-7.47,9.47-11.31,14.12c-0.61,0.74-1.54,1.46-2.44,1.66c-4.24,0.97-8.49,2.03-12.79,2.55
	c-5.77,0.7-11.6,0.93-18.92,1.47c3.09,2.76,4.98,5.07,7.39,6.48c6.71,3.94,13.84,7.17,20.42,11.3c8.4,5.28,16.6,10.59,27.15,7.09
	c6.67-2.21,14.24-3.3,19.69-7.26c15.91-11.55,30.19-25.11,38.91-43.17c6.28-13.02,8.2-27.25,3.41-40.92
	c-3.16-9.02-9.9-16.72-14.25-25.4c-4.21-8.41-8.08-17.11-10.84-26.07c-2.16-7.04-1.95-14.79-3.65-22.02
	C327.93,603.88,326.99,598.35,320.41,597.49z M359.88,669.32c4.73-7.8,9.58-15.3,13.9-23.08c3.17-5.7,5.66-21.79,4.25-26.4
	c-0.98,3.29-1.72,5.77-2.47,8.25c-3.98,13.27-7.82,26.61-18.95,36.43c0.5,0.98,1.03,2.18,1.71,3.3
	C358.65,668.36,359.26,668.74,359.88,669.32z M378.75,896.37c-2.06-2.85-5.24-4.07-9.65-2.76c-1.61,0.48-3.41,2.19-4.01,3.76
	c-1.37,3.6,3.71,9.87,8.78,10.94c5.43,1.15,3.52-3.81,4.76-6.13c0.21-0.39,0.14-0.93,0.14-1c-1.78,0.14-3.51,0.36-5.22,0.29
	c-0.17-0.01-0.66-2.33-0.36-2.52C374.83,897.96,376.68,897.29,378.75,896.37z M410.77,899.98c-2.71-1.79-4.3-2.84-5.89-3.89
	c1.34-1.75,2.67-3.49,4.01-5.24c0.44,0.19,0.87,0.37,1.31,0.56c-0.51-1.94-1.02-3.89-1.61-6.13c-2.08,1.42-3.71,2.51-5.31,3.66
	c-0.8,0.58-1.55,1.24-2.29,1.9c-3.94,3.44-3.65,6.93,0.98,8.99c2.05,0.91,4.4,1.33,6.65,1.49
	C409.51,901.39,410.49,900.16,410.77,899.98z M216.42,696.55c-0.02,2.95,0.04,5.7-0.09,8.43c-0.13,2.98,1.33,3.73,4.02,3.33
	c2.92-0.43,6.33-4.48,6.04-7.37C226,697.14,222.75,695.56,216.42,696.55z M223.47,673.99c0.47,0.33,0.94,0.66,1.41,0.99
	c2.26-1.83,5.7-3.26,6.48-5.59c1.04-3.07,0-6.85-0.14-10.32c-0.84-0.08-1.68-0.16-2.53-0.25
	C226.96,663.88,225.22,668.94,223.47,673.99z"/>
<path d="M493.07,367.67c-2.02-7.44-3.74-14.98-6.14-22.31c-3.27-9.99-8.07-19.6-10.25-29.79c-1.57-7.34-5.71-12.53-9.12-18.57
	c-2.54-4.5-3.07-10.09-5.02-14.98c-1.07-2.7-2.86-5.36-4.98-7.34c-6.86-6.39-14.64-11.9-20.78-18.89c-2.74-3.12-3.35-8.96-3.2-13.51
	c0.15-4.32,4.6-4.48,8.19-4.07c9.4,1.09,17.41,4.95,23.68,12.17c1.62,1.87,3.29,3.71,5.17,5.82c6.39-8.59,16.49-10.31,24.79-15.11
	c-1.76-6.73-4.07-13.35-5.08-20.16c-0.76-5.11-0.32-10.55,0.49-15.7c0.67-4.23,6.32-5.21,9.35-1.21
	c5.16,6.83,10.84,13.83,13.67,21.71c3.28,9.1,8.82,15.19,16,21c6.87,5.56,13.9,10.82,21.19,15.79c1.57,1.07,3.88,2.46,1.41,5.01
	c-0.32,0.33-0.19,1.36,0.05,1.93c2.66,6.19,0.93,12.02-1.18,17.9c-0.42,1.17-0.33,2.87,0.22,3.98c5.04,10.16,10.54,20.1,15.32,30.39
	c7.62,16.41,10.27,34.14,12.08,51.91c0.62,6.08-1.04,12.37-1.27,18.58c-0.06,1.7,0.84,3.95,2.09,5.09
	c8.63,7.86,17.53,15.41,26.2,23.22c3.94,3.55,7.64,7.37,11.3,11.21c5.17,5.43,8.4,11.72,8.69,19.44c0.19,4.95,0.97,9.87,1.39,14.81
	c0.65,7.62-4.43,11.59-11.28,8.62c-4.98-2.15-9.22-4.9-9.02-11.51c0.24-7.76-4.14-13.69-8.61-19.59
	c-9.46-12.48-20.58-23.12-33.62-31.8c-2.8-1.86-4.84-1.88-8.05-0.26c-12.43,6.27-25.6,10.74-39.43,5.53
	c-12.3-4.63-23.48-11.5-32.58-21.31c-7.28-7.85-14.65-15.63-21.95-23.47c-4.29-4.61-4.26-10.41-3.51-15.96
	c0.54-4.06,6.65-5.8,11.81-4.23c5.68,1.72,9.66,5.55,13.34,9.94c2.07,2.47,4.59,4.57,6.9,6.83
	C491.92,368.41,492.5,368.04,493.07,367.67z M478.2,283.45c-2.36,3.45,1.03,6.07,2.41,6.01c2.64-0.13,5.69-1.64,7.67-3.53
	c3.33-3.18,1.03-6.7-1.76-8.4c-1.51-0.92-4.61,0.79-7,1.31c0.12,0.49,0.24,0.97,0.35,1.46c1.9,0.54,3.81,1.08,5.83,1.65
	C482.62,287.86,482.31,287.91,478.2,283.45z M517.35,247.81c-6.39,0.75-11.38,1.33-16.78,1.96
	C504.87,256.74,510.34,256.2,517.35,247.81z"/>
<path d="M135.31,300.58c10.96-1,21.49-2.97,31.93-2.57c7.16,0.28,12.54,6.07,16.64,12.15c0.65,0.96,1.12,2.03,1.69,3.07
	c0.71-0.33,1.23-0.46,1.59-0.77c3.79-3.3,7.67-6.06,12.9-2.8c4.93,3.06,8.03,10.29,7.06,15.78c-1.54,8.69-6.15,15.77-11.35,22.57
	c-9.76,12.76-14.36,28.06-20.98,42.38c-4.29,9.29-8.83,18.5-13.88,27.39c-7.65,13.49-15.77,26.72-23.83,39.99
	c-3.92,6.46-8.54,12.52-12.05,19.18c-1.66,3.15-1.82,7.26-2.04,10.98c-0.45,7.74-0.04,15.56-0.88,23.24
	c-0.43,3.95-2.25,8.02-4.4,11.43c-3.04,4.79-8.39,4.2-9.48-1.26c-1.48-7.46-1.37-15.24-1.9-22.34c-3.86,3.51-8.63,8.09-13.69,12.32
	c-2.5,2.09-5.44,3.71-8.34,5.24c-3.06,1.62-6.98-0.72-7.28-4.25c-0.62-7.19,0.65-13.91,6-19.18c7.96-7.84,11.05-18.03,14.73-29.03
	c-6.37-0.06-11.06,2.11-15.32,5.64c-6.24,5.17-12.3,10.59-18.87,15.3c-3.13,2.24-7.25,4.13-10.97,4.24
	c-3.32,0.1-6.95-2.1-10.01-3.98c-3.22-1.97-3.65-5.55-2.42-8.9c3.05-8.32,9.09-14.71,15.88-19.76c8.8-6.54,16.44-14.2,21.35-23.6
	c9.52-18.26,17.94-37.11,26.27-55.96c2-4.53,2.22-9.98,2.66-15.06c1.32-15.44,1.86-30.95,3.64-46.33
	c1.29-11.15,8.37-19.92,14.85-28.68c2-2.7,6.58-0.94,8.12,3.02c0.72,1.85,1.18,3.81,1.6,5.75
	C134.94,297.7,135.16,299.66,135.31,300.58z M47.56,476.36c4.17,3.43,7.44,3.61,11.64,0.48c7.86-5.86,15.8-11.64,23.46-17.76
	c4.59-3.67,9.67-4.29,15.02-3.36c6.37,1.12,8.42,5.34,6.07,11.43c-0.95,2.47-1.83,4.97-2.68,7.47c-3.02,8.89-7.08,17.13-13.94,23.82
	c-1.84,1.79-3.02,4.25-4.51,6.4c2.36,0.3,4.02,0.08,5.02-0.86c8.09-7.56,16.77-14.66,23.88-23.08c7.47-8.85,13.58-18.88,19.97-28.6
	c8.68-13.21,18.75-25.51,24.95-40.33c4.68-11.18,10.28-21.99,15.55-32.92c4.44-9.2,8.71-18.49,13.61-27.45
	c3.88-7.1,8.45-13.84,12.98-20.56c3.22-4.79,1.06-9.2-0.59-13.55c-0.32-0.85-3.43-1.63-4.37-1.04c-1.99,1.25-3.86,3.18-4.97,5.27
	c-6.98,13.13-13.7,26.4-20.64,39.54c-0.58,1.1-2.19,1.65-3.32,2.46c-0.88-1.28-2.45-2.53-2.5-3.83c-0.12-3.26,0.46-6.54,0.89-11.25
	c-3.76,1.29-7.05,2.03-9.95,3.51c-5.19,2.66-13.34,3.95-16.62-2.49c-1.43-2.8-2.6-5.73-3.9-8.59c2.07,0.16,3.55,0.65,4.53,1.64
	c7.8,7.83,17.44,4.05,26.43,4.2c0.87,0.01,2.02-1.17,2.6-2.07c5.28-8.23,10.46-16.51,15.46-24.44c-1.61-2.39-2.54-4.4-4.03-5.83
	c-2.69-2.57-5.52-6.36-8.65-6.74c-3.43-0.42-7.26,2.43-9.48,3.29c-0.03,3.42,0.79,7.29-0.22,7.85c-4.46,2.47-6.47-1.59-7.72-3.37
	c-4.51-0.61-7.92-0.86-11.2-1.63c-1.13-0.27-1.94-1.84-2.9-2.82c1.05-1,1.94-2.42,3.19-2.87c1.27-0.47,2.93,0.25,4.35,0.03
	c2.03-0.33,4-1.05,6-1.6c-0.17-0.49-0.34-0.98-0.51-1.47c-1.61,0.13-3.22,0.31-4.83,0.38c-9.48,0.39-11.02,2.55-10.49,11.63
	c0.31,5.34-0.76,10.78-1.52,16.14c-0.55,3.89-4.05,3.7-6.56,3.16c-1.22-0.27-2.78-3.05-2.67-4.59c0.44-6.42,1.59-12.79,2.22-19.21
	c0.51-5.22,0.66-10.49,1.04-16.82c-6.12,5.55-9.28,11.32-9.9,17.83c-1.57,16.61-2.5,33.28-3.72,49.93
	c-0.24,3.29,0.04,6.82-1.08,9.81c-4.03,10.86-8.01,21.8-13.03,32.22C94,418.01,87.54,430.11,80.3,441.66
	c-3.86,6.16-9.47,11.39-14.95,16.32C58.98,463.73,51.53,468.32,47.56,476.36z M112.74,515.14c0.87,0.07,1.74,0.14,2.62,0.21
	c0.56-7.65,1.12-15.29,1.67-22.94c-0.58-0.06-1.15-0.13-1.73-0.19C114.44,499.86,113.59,507.5,112.74,515.14z"/>
<path d="M245.47,698.37c0.03-5.04,4.37-9.48,9.2-9.41c5.34,0.08,12.4,7.1,12.43,12.36c0.03,4.87-6.06,10.11-11.67,10.03
	C250.36,711.29,245.43,704.87,245.47,698.37z M255.38,693.64c-2.26,2.87-4.28,4.29-4.5,5.95c-0.37,2.88,0.31,6.72,4.07,6.35
	c1.99-0.2,4.58-3.24,5.16-5.45C260.49,699.07,257.7,696.82,255.38,693.64z"/>
<path d="M242.91,685.5c1.14,1.93,1.96,3.33,2.78,4.73c-1.41,0.61-2.78,1.38-4.25,1.8c-8.34,2.41-6.52-4.47-7.92-8.42
	c2.99-1.29,5.75-2.61,8.62-3.65c0.73-0.26,2.07,0.12,2.59,0.7c0.42,0.47,0.26,1.78-0.08,2.51
	C244.18,684.2,243.29,685.02,242.91,685.5z"/>
<path d="M615.95,1127.45c-5.93,8.06-10.93,16.43-17.51,23.26c-4.51,4.68-11.72,4.76-18.36,3.77c-1.05-0.16-2.07-0.49-3.12-0.75
	c-0.2,0.69-0.43,1.12-0.44,1.55c-0.03,4.62-0.48,8.95-5.86,10.49c-5.07,1.45-11.89-0.92-15.07-4.98
	c-5.02-6.42-7.09-13.93-8.61-21.67c-2.85-14.52-10.55-27.11-16.37-40.46c-3.77-8.66-7.34-17.44-10.39-26.37
	c-4.63-13.54-8.79-27.24-13.01-40.92c-2.06-6.66-3.43-13.54-5.87-20.05c-1.16-3.08-3.88-5.73-6.29-8.18
	c-5.03-5.1-10.63-9.66-15.39-14.99c-2.44-2.73-4.14-6.49-5.17-10.06c-1.45-5.03,2.19-8.3,6.58-5.65c6,3.61,11.26,8.5,16.45,12.54
	c-0.07-4.79-0.33-10.86-0.18-16.91c0.07-2.99,0.74-5.99,1.44-8.91c0.74-3.08,4.7-4.29,7.31-2.31c5.3,4.03,9.13,9.05,9.52,15.94
	c0.57,10.25,5.68,18.66,11,27.96c3.88-4.29,5.23-8.81,5.38-13.88c0.22-7.43,0.16-14.9,0.91-22.27c0.35-3.52,1.54-7.47,3.72-10.07
	c1.94-2.31,5.63-3.42,8.77-4.33c3.29-0.96,6,0.96,7.56,3.87c3.86,7.22,4.59,15.27,3.95,23c-0.83,10.02-0.2,19.94,3.29,29.09
	c6.76,17.76,14.6,35.14,22.48,52.46c1.9,4.17,5.5,7.69,8.71,11.13c9.78,10.45,20.08,20.42,29.54,31.14
	c6.86,7.78,8.59,18.01,10.68,27.82c0.64,3.03-3.33,5.04-6.97,3.64c-1.7-0.66-3.32-1.56-4.91-2.47
	C618.14,1128.98,616.66,1127.92,615.95,1127.45z M548.49,959.12c-4.87,0.71-6.96,2.81-7.35,7.6c-0.73,8.96-1.56,17.92-1.99,26.91
	c-0.26,5.39-2.89,9.22-6.76,12.27c-4.61,3.63-8.74,2.41-11.49-2.96c-1.11-2.17-2.3-4.31-3.5-6.44c-4.26-7.55-7.46-15.41-7.9-24.2
	c-0.12-2.36-1.09-4.68-1.67-7.02c-1.62,1.42-2.48,2.68-2.44,3.94c0.3,10.17-0.08,20.45,1.4,30.48c1.55,10.54,4.74,20.9,7.54,31.25
	c3.81,14.06,6.16,28.51,12.57,41.89c4.84,10.1,8.86,20.58,13.17,30.93c3.62,8.7,7.41,17.36,10.59,26.22
	c2.52,7.03,4.38,14.3,6.25,21.53c1.33,5.15,5.66,6.41,9.64,7.99c0.77,0.31,3.19-1.32,3.35-2.32c0.34-2.12,0.15-4.59-0.61-6.63
	c-4.78-12.86-9.82-25.63-14.63-38.48c-0.4-1.07,0.19-2.51,0.32-3.78c1.4,0.19,3.21-0.1,4.13,0.68c2.3,1.94,4.2,4.36,7.16,7.57
	c1.38-3.35,2.86-6.04,3.59-8.93c1.31-5.17,5.34-11.5,11.74-9.74c2.78,0.76,5.49,1.78,8.24,2.68c-1.36,1.31-2.59,2-3.86,2.06
	c-10.07,0.45-13.3,9.33-18.82,15.34c-0.53,0.58-0.42,2.09-0.15,3.05c2.45,8.67,5,17.32,7.42,25.62c2.61,0.38,4.55,1,6.42,0.87
	c3.38-0.23,7.69,0.19,9.84-1.69c2.36-2.07,2.72-6.43,3.46-8.47c-2.32-2.14-5.47-3.98-5.24-5.01c1-4.55,5-3.41,6.97-3.15
	c3.14-2.68,5.37-4.84,7.88-6.59c0.86-0.6,2.43-0.18,3.68-0.23c0.05,1.33,0.48,2.82,0.04,3.94c-0.45,1.15-1.94,1.83-2.64,2.93
	c-1,1.58-1.7,3.36-2.53,5.06c0.44,0.19,0.87,0.38,1.31,0.56c0.88-1.17,1.73-2.38,2.65-3.51c5.45-6.67,4.9-9.05-1.64-14.32
	c-3.84-3.09-6.93-7.19-10.14-11.02c-2.33-2.78-0.09-5.04,1.79-6.4c0.92-0.66,3.76,0,4.76,1.03c4.13,4.27,7.8,9,11.82,13.4
	c3.27,3.58,6.78,6.94,10.9,11.11c-0.11-7.59-2.15-13.3-6.24-17.75c-10.43-11.34-21.29-22.29-31.95-33.42
	c-2.11-2.2-4.69-4.2-6.07-6.8c-5.01-9.46-10.1-18.93-14.21-28.78c-4.85-11.62-9.23-23.5-12.78-35.55
	c-1.89-6.43-2.09-13.48-2.16-20.25C550.25,974.69,551.6,966.78,548.49,959.12z M482.6,979.35c-0.57,0.55-1.15,1.1-1.72,1.65
	c4.9,5.11,9.8,10.22,14.7,15.33c0.39-0.35,0.78-0.7,1.18-1.06C492.04,989.97,487.32,984.66,482.6,979.35z"/>
<path d="M37.46,1341.96c6.26,7.03,11.67,14.5,18.45,20.25c4.65,3.94,11.48,3.01,17.68,1.13c0.98-0.3,1.92-0.77,2.89-1.17
	c0.25,0.64,0.5,1.03,0.54,1.46c0.4,4.5,1.17,8.67,6.4,9.42c4.92,0.71,11.18-2.55,13.86-6.95c4.24-6.96,5.59-14.57,6.41-22.34
	c1.53-14.56,7.81-27.91,12.24-41.75c2.87-8.97,5.55-18.04,7.71-27.17c3.29-13.85,6.13-27.8,9.03-41.72
	c1.41-6.78,2.15-13.69,3.94-20.37c0.85-3.16,3.21-6.13,5.3-8.85c4.35-5.67,9.28-10.9,13.36-16.76c2.09-3.01,3.4-6.91,4.09-10.53
	c0.97-5.11-2.74-7.79-6.68-4.6c-5.39,4.36-9.98,9.86-14.56,14.52c-0.32-4.68-0.56-10.64-1.19-16.52c-0.31-2.91-1.19-5.74-2.08-8.49
	c-0.95-2.9-4.8-3.53-7.1-1.23c-4.69,4.67-7.92,10.09-7.73,16.87c0.29,10.08-3.88,18.99-8.16,28.81c-4.02-3.64-5.66-7.86-6.21-12.79
	c-0.81-7.22-1.35-14.51-2.65-21.6c-0.62-3.38-2.06-7.07-4.33-9.3c-2.02-1.99-5.6-2.55-8.65-3.01c-3.19-0.48-5.61,1.78-6.84,4.82
	c-3.07,7.58-3.12,15.54-1.89,22.99c1.59,9.66,1.79,19.43-0.77,28.84c-4.97,18.27-10.99,36.31-17.06,54.3
	c-1.46,4.33-4.58,8.26-7.35,12.07c-8.41,11.55-17.37,22.71-25.45,34.49c-5.87,8.54-6.69,18.76-7.88,28.63
	c-0.37,3.04,3.55,4.46,6.89,2.58c1.56-0.88,3.02-1.98,4.45-3.09C35.51,1343.76,36.82,1342.52,37.46,1341.96z"/>
<path d="M335.63,2.31C151.4,0.91,1.83,27.26,1.58,61.17C1.32,95.08,150.46,123.7,334.7,125.1c184.24,1.4,333.8-24.95,334.06-58.86
	C669.02,32.34,519.87,3.71,335.63,2.31z M347.43,113.47C181.61,112.21,47.35,88.95,47.56,61.52
	c0.21-27.43,134.81-48.64,300.63-47.38c165.83,1.26,300.09,24.52,299.88,51.95C647.86,93.52,513.26,114.73,347.43,113.47z"/>
</svg>
