<?xml version="1.0" encoding="utf-8"?>
<!-- Generator: Adobe Illustrator 23.0.2, SVG Export Plug-In . SVG Version: 6.00 Build 0)  -->
<svg version="1.1" id="Layer_1" xmlns="http://www.w3.org/2000/svg" xmlns:xlink="http://www.w3.org/1999/xlink" x="0px" y="0px"
	 viewBox="0 0 241.94 241.94" style="enable-background:new 0 0 241.94 241.94;" xml:space="preserve">
<style type="text/css">
	.st0{fill:#876C6E;stroke:#000000;stroke-miterlimit:10;}
	.st1{stroke:#000000;stroke-width:0.25;stroke-miterlimit:10;}
	.st2{fill:#CDDABF;stroke:#000000;stroke-miterlimit:10;}
	.st3{fill:#FFFFFF;stroke:#000000;stroke-width:0.75;stroke-miterlimit:10;}
	.st4{fill:#728452;stroke:#000000;stroke-miterlimit:10;}
	.st5{fill:#828487;stroke:#000000;stroke-miterlimit:10;}
	.st6{fill:#987766;stroke:#000000;stroke-miterlimit:10;}
	.st7{fill:#B0B0B2;stroke:#000000;stroke-miterlimit:10;}
	.st8{fill:#974D4E;stroke:#000000;stroke-miterlimit:10;}
	.st9{fill:#8E6E6E;stroke:#000000;stroke-miterlimit:10;}
	.st10{fill:#CFD6EC;stroke:#000000;stroke-miterlimit:10;}
	.st11{fill:#898996;stroke:#000000;stroke-miterlimit:10;}
	.st12{fill:#AA999B;stroke:#000000;stroke-miterlimit:10;}
	.st13{fill:#FFFFFF;stroke:#000000;stroke-miterlimit:10;}
</style>
<path class="st0" d="M120.97,4.05C56.4,4.05,4.05,56.4,4.05,120.97S56.4,237.89,120.97,237.89s116.92-52.35,116.92-116.92
	S185.55,4.05,120.97,4.05z M120.42,223.96c-56.05,0-101.48-46.21-101.48-103.22c0-57.01,45.43-103.22,101.48-103.22
	c56.05,0,101.48,46.21,101.48,103.22C221.9,177.75,176.46,223.96,120.42,223.96z"/>
<g>
	<polygon class="st1" points="21.83,85.16 18.97,84.08 20.35,80.44 18.89,79.89 17.51,83.52 15.44,82.74 17,78.62 15.54,78.07 
		13.29,84 21.14,86.98 	"/>
	<path class="st1" d="M11.67,111.87c2.51,0.31,4.54-1.41,4.86-4.02c0.14-1.19-0.07-2.5-0.65-3.5l-3.38-0.41l-0.21,1.76l2.44,0.3
		c0.2,0.52,0.24,1.02,0.17,1.54c-0.19,1.6-1.44,2.57-3,2.38c-1.58-0.19-2.53-1.43-2.34-3.05c0.1-0.85,0.49-1.51,1.2-2.04l-0.99-1.38
		c-1.04,0.7-1.69,1.85-1.86,3.31C7.6,109.42,9.16,111.56,11.67,111.87z"/>
	<polygon class="st1" points="16.54,135.33 13.12,135.74 12.66,131.96 16.08,131.54 15.84,129.61 7.51,130.62 7.74,132.55 
		11.03,132.15 11.49,135.94 8.2,136.34 8.44,138.27 16.77,137.26 	"/>
	
		<rect x="15.23" y="161.32" transform="matrix(0.9351 -0.3544 0.3544 0.9351 -56.2594 17.4205)" class="st1" width="8.4" height="1.94"/>
	<polygon class="st1" points="35.87,58.73 34.58,57.85 31.99,61.61 30.39,60.5 32.6,57.29 31.36,56.44 29.15,59.64 27.64,58.61 
		30.15,54.98 28.87,54.09 25.26,59.31 32.17,64.08 	"/>
	<path class="st1" d="M31.25,181.72l-4.48,3.09l2.77,4.02l1.28-0.89l-1.68-2.43l3.29-2.27c0.76-0.52,1.38-0.45,1.82,0.19
		c0.34,0.49,0.37,1.09,0.13,1.81l1.68,0.15c0.3-0.95,0.09-2.02-0.55-2.95C34.39,180.82,32.96,180.54,31.25,181.72z"/>
	<polygon class="st1" points="171.67,23.32 171.42,18.98 169.59,18.02 169.96,24.31 168.57,26.96 170.29,27.86 171.67,25.23 
		177.08,21.95 175.39,21.06 	"/>
	<polygon class="st1" points="149.64,17.89 145.01,16.74 150.8,12.45 151.1,11.23 144.24,9.54 143.86,11.08 148.24,12.15 
		142.44,16.44 142.14,17.67 149.27,19.42 	"/>
	<path class="st1" d="M119.98,7.2l-3.74,8.4h1.99l0.74-1.8h3.9l0.74,1.8h2.04l-3.75-8.4H119.98z M119.59,12.32l1.33-3.21l1.33,3.21
		H119.59z"/>
	<path class="st1" d="M96.44,18.48c2.14-0.53,3.06-1.62,2.71-3.03c-0.25-1.03-1.01-1.58-1.99-1.65c0.58-0.51,0.84-1.25,0.64-2.06
		c-0.31-1.27-1.57-1.86-3.61-1.36l-3.98,0.98l2.01,8.15L96.44,18.48z M97.21,15.73c0.17,0.7-0.28,1.13-1.25,1.37l-2.2,0.54
		l-0.5-2.01l2.2-0.54C96.43,14.84,97.04,15.04,97.21,15.73z M94.32,11.87c0.92-0.23,1.5-0.04,1.66,0.61
		c0.16,0.64-0.26,1.09-1.18,1.32l-1.88,0.46l-0.47-1.92L94.32,11.87z"/>
	<path class="st1" d="M72.4,27.6c1.3-0.68,2.12-1.71,2.37-2.94l-1.64-0.44c-0.19,0.85-0.66,1.47-1.41,1.86
		c-1.39,0.73-2.89,0.27-3.63-1.13c-0.74-1.4-0.26-2.9,1.13-3.63c0.74-0.39,1.53-0.42,2.33-0.11l0.57-1.6
		c-1.15-0.48-2.46-0.39-3.75,0.29c-2.31,1.22-3.19,3.72-2.02,5.96C67.54,28.11,70.1,28.81,72.4,27.6z"/>
	<path class="st1" d="M51.22,41.96c2.05-1.82,2.37-4.31,0.68-6.21c-1.69-1.9-4.19-1.89-6.25-0.07l-2.85,2.53l5.57,6.28L51.22,41.96z
		 M46.64,36.93c1.25-1.11,2.73-1.08,3.79,0.12c1.07,1.2,0.91,2.67-0.34,3.78l-1.33,1.18l-3.45-3.9L46.64,36.93z"/>
	<polygon class="st1" points="50.91,202.55 49.29,202.68 49.47,198.43 47.77,196.92 47.44,202.85 42.36,203.34 43.97,204.78 
		49.36,204.31 46.75,207.24 48.2,208.52 53.77,202.24 52.32,200.96 	"/>
	<polygon class="st1" points="68.98,214.5 72.71,216.45 69.54,222.48 71.27,223.39 75.17,215.95 69.72,213.09 	"/>
	<polygon class="st1" points="96.28,228.5 94.86,223.99 94.01,223.78 90.62,227.21 91.81,222.32 90.04,221.88 88.05,230.04 
		89.6,230.42 93.86,226.1 95.66,231.92 97.22,232.3 99.23,224.15 97.46,223.71 	"/>
	<polygon class="st1" points="122.63,231.44 118.45,226.35 116.85,226.35 116.85,234.74 118.77,234.74 118.77,229.65 122.94,234.74 
		124.55,234.74 124.55,226.35 122.63,226.35 	"/>
	<path class="st1" d="M145.68,223.26c-2.56,0.63-4.02,2.88-3.42,5.32c0.6,2.43,2.94,3.75,5.5,3.12c2.57-0.63,4.02-2.89,3.42-5.31
		C150.58,223.95,148.26,222.62,145.68,223.26z M147.36,230.08c-1.46,0.36-2.81-0.43-3.19-1.98s0.45-2.88,1.91-3.24
		c1.46-0.36,2.81,0.43,3.19,1.98S148.82,229.72,147.36,230.08z"/>
	<path class="st1" d="M171.39,213.5l1.08,2.05l-1.5,0.79c-1.99,1.04-2.69,2.72-1.82,4.38c0.88,1.67,2.66,2.04,4.64,1l3.22-1.69
		l-3.9-7.43L171.39,213.5z M174.55,219.54l-1.4,0.74c-1.05,0.55-1.83,0.35-2.26-0.46c-0.42-0.81-0.14-1.56,0.91-2.12l1.4-0.74
		L174.55,219.54z"/>
	<path class="st1" d="M190.91,199.63c-1.88-0.16-2.83,0.07-3.77,0.9c-0.69,0.61-1.04,1.41-1.01,2.28l1.33,0.2
		c0.02-0.58,0.22-1.03,0.61-1.37c0.31-0.28,0.69-0.4,1.28-0.35c-0.96,1.62-0.83,3.59,0.48,5.06c1.66,1.88,4.34,1.95,6.32,0.2
		c1.98-1.76,2.21-4.43,0.56-6.3C195.19,198.54,192.82,198.31,190.91,199.63z M195.04,205.3c-1.12,1-2.69,0.93-3.75-0.27
		c-1.06-1.19-0.94-2.76,0.19-3.75c1.12-0.99,2.69-0.92,3.75,0.27C196.28,202.75,196.16,204.31,195.04,205.3z"/>
	<polygon class="st1" points="194.38,37.67 194.74,34.35 193.09,32.89 192.56,37.93 187.4,39.07 189.07,40.55 192.5,39.69 
		192.08,43.21 193.76,44.7 194.3,39.38 199.18,38.28 197.6,36.89 	"/>
	<path class="st1" d="M225.42,108.41c0.29,2.37,1.81,3.61,4.27,3.31l4.67-0.57l-0.23-1.91l-4.6,0.56c-1.58,0.19-2.32-0.41-2.46-1.59
		c-0.14-1.17,0.43-1.94,2.01-2.13l4.6-0.56l-0.23-1.93l-4.67,0.57C226.32,104.47,225.14,106.04,225.42,108.41z"/>
	<polygon class="st1" points="213.71,59.86 210.08,64.61 211.27,66.33 219.74,63.82 218.68,62.29 212.67,64.06 216.48,59.1 
		215.46,57.62 209.48,59.34 213.26,54.43 212.11,52.77 206.77,59.81 207.95,61.52 	"/>
	<path class="st1" d="M208.61,179.46l1.93,1.33l-0.96,1.39l-0.05,0.08l-2.84,0l-1.18,1.72l3.29-0.02c-0.24,1.16,0.16,2.21,1.2,2.93
		c1.55,1.07,3.3,0.58,4.58-1.27l2.06-2.99l-6.91-4.77L208.61,179.46z M211.81,181.67l2.41,1.66l-0.9,1.3
		c-0.67,0.98-1.46,1.16-2.22,0.64c-0.75-0.52-0.86-1.32-0.19-2.3L211.81,181.67z"/>
	<polygon class="st1" points="228.91,84.8 228.22,83 221.7,82.7 226.4,78.19 225.65,76.23 219.09,82.59 219.77,84.38 	"/>
	<path class="st1" d="M226.47,156.61c-2.92-1.11-3.64,3.84-5.11,3.28c-0.48-0.18-0.68-0.76-0.27-1.83c0.36-0.94,1.07-1.8,1.8-2.28
		l-1.13-1.14c-0.8,0.49-1.65,1.61-2.12,2.85c-0.85,2.24-0.14,3.76,1.17,4.25c2.88,1.09,3.62-3.85,5.06-3.3
		c0.49,0.19,0.74,0.75,0.33,1.83c-0.26,0.7-0.75,1.37-1.44,1.94l1.17,1.08c0.74-0.55,1.35-1.47,1.73-2.46
		C228.5,158.61,227.8,157.12,226.47,156.61z"/>
	<polygon class="st1" points="232.86,129.97 232.54,132.64 225.78,131.82 225.54,133.75 232.31,134.57 231.98,137.24 233.55,137.43 
		234.44,130.17 	"/>
</g>
<path class="st2" d="M120.97,0.5C54.44,0.5,0.5,54.44,0.5,120.97s53.94,120.47,120.47,120.47s120.47-53.94,120.47-120.47
	S187.51,0.5,120.97,0.5z M120.97,237.89c-64.57,0-116.92-52.35-116.92-116.92S56.4,4.05,120.97,4.05S237.89,56.4,237.89,120.97
	S185.55,237.89,120.97,237.89z"/>
<path class="st3" d="M119.53,117.07c2.15-0.55,4.35,0.74,4.9,2.9c0.55,2.15-0.74,4.35-2.9,4.9c-2.15,0.55-4.35-0.74-4.9-2.9
	C116.08,119.82,117.38,117.63,119.53,117.07z"/>
<path class="st4" d="M120.97,17.76c-56.05,0-101.48,46.21-101.48,103.22c0,57.01,45.43,103.22,101.48,103.22
	c56.05,0,101.48-46.21,101.48-103.22C222.45,63.97,177.02,17.76,120.97,17.76z M164.34,84.05c4.66-2.69,10.61-1.09,13.3,3.56
	s1.09,10.61-3.56,13.3c-4.66,2.69-10.61,1.09-13.3-3.56C158.09,92.69,159.69,86.74,164.34,84.05z M53.14,119.96
	c0-5.38,4.36-9.73,9.73-9.73c5.38,0,9.73,4.36,9.73,9.73s-4.36,9.73-9.73,9.73C57.49,129.69,53.14,125.34,53.14,119.96z
	 M75.37,157.9c-4.66,2.69-10.61,1.09-13.3-3.56c-2.69-4.66-1.09-10.61,3.56-13.3c4.66-2.69,10.61-1.09,13.3,3.56
	S80.03,155.21,75.37,157.9z M78.93,97.35c-2.69,4.66-8.64,6.25-13.3,3.56c-4.66-2.69-6.25-8.64-3.56-13.3
	c2.69-4.66,8.64-6.25,13.3-3.56S81.62,92.69,78.93,97.35z M99.79,175.19c-2.69,4.66-8.64,6.25-13.3,3.56
	c-4.66-2.69-6.25-8.64-3.56-13.3c2.69-4.66,8.64-6.25,13.3-3.56C100.88,164.58,102.48,170.54,99.79,175.19z M96.23,80.05
	c-4.66,2.69-10.61,1.09-13.3-3.56c-2.69-4.66-1.09-10.61,3.56-13.3c4.66-2.69,10.61-1.09,13.3,3.56S100.88,77.36,96.23,80.05z
	 M119.86,187.69c-5.38,0-9.73-4.36-9.73-9.73s4.36-9.73,9.73-9.73c5.38,0,9.73,4.36,9.73,9.73S125.23,187.69,119.86,187.69z
	 M119.86,73.72c-5.38,0-9.73-4.36-9.73-9.73s4.36-9.73,9.73-9.73c5.38,0,9.73,4.36,9.73,9.73S125.23,73.72,119.86,73.72z
	 M153.22,178.75c-4.66,2.69-10.61,1.09-13.3-3.56s-1.09-10.61,3.56-13.3c4.66-2.69,10.61-1.09,13.3,3.56
	C159.47,170.11,157.87,176.07,153.22,178.75z M156.78,76.49c-2.69,4.66-8.64,6.25-13.3,3.56c-4.66-2.69-6.25-8.64-3.56-13.3
	s8.64-6.25,13.3-3.56S159.47,71.83,156.78,76.49z M177.64,154.33c-2.69,4.66-8.64,6.25-13.3,3.56c-4.66-2.69-6.25-8.64-3.56-13.3
	s8.64-6.25,13.3-3.56C178.73,143.72,180.33,149.68,177.64,154.33z M176.84,129.69c-5.38,0-9.73-4.36-9.73-9.73s4.36-9.73,9.73-9.73
	s9.73,4.36,9.73,9.73S182.22,129.69,176.84,129.69z"/>
<circle class="st5" cx="120.54" cy="120.97" r="2.6"/>
<g>
	<g>
		<polygon class="st6" points="67.87,64.23 62.01,68.26 55.58,65.2 55.02,58.1 60.89,54.07 67.31,57.14 		"/>
	</g>
	
		<rect x="56.64" y="60.16" transform="matrix(0.4303 -0.9027 0.9027 0.4303 -20.2565 90.0105)" class="st7" width="9.08" height="1.79"/>
</g>
<g>
	<g>
		<circle class="st8" cx="180.86" cy="61.78" r="7.66"/>
	</g>
	<g>
		<polygon class="st9" points="181.12,55.88 178.93,56.27 179.74,60.81 174.89,62.16 175.49,64.31 180.13,63.01 180.92,67.41 
			183.12,67.02 182.29,62.41 186.39,61.27 185.79,59.12 181.9,60.21 		"/>
	</g>
</g>
<g>
	<g>
		<circle class="st8" cx="60.99" cy="180.21" r="7.66"/>
	</g>
	<g>
		<polygon class="st9" points="64.02,175.15 61.91,174.45 60.47,178.83 55.56,177.72 55.06,179.89 59.77,180.96 58.37,185.2 
			60.49,185.9 61.95,181.45 66.1,182.39 66.6,180.21 62.65,179.32 		"/>
	</g>
</g>
<g>
	<g>
		<polygon class="st5" points="178.62,186.42 173.43,181.55 175.05,174.62 181.86,172.56 187.05,177.43 185.43,184.36 		"/>
	</g>
	
		<rect x="175.75" y="178.31" transform="matrix(0.9737 0.2277 -0.2277 0.9737 45.5521 -36.3513)" class="st7" width="9.08" height="1.79"/>
</g>
<circle class="st10" cx="119.86" cy="120.97" r="38.27"/>
<rect x="132.44" y="148.55" transform="matrix(0.6319 0.7751 -0.7751 0.6319 166.8898 -51.9171)" class="st11" width="11.32" height="2.35"/>
<rect x="133.75" y="147.47" transform="matrix(0.658 0.7531 -0.7531 0.658 159.6173 -54.1394)" class="st11" width="11.32" height="2.35"/>
<rect x="135.02" y="146.33" transform="matrix(0.6833 0.7301 -0.7301 0.6833 152.2586 -55.9968)" class="st11" width="11.32" height="2.35"/>
<rect x="136.25" y="145.16" transform="matrix(0.7078 0.7064 -0.7064 0.7078 144.8343 -57.4859)" class="st11" width="11.32" height="2.35"/>
<rect x="137.44" y="143.94" transform="matrix(0.7315 0.6818 -0.6818 0.7315 137.3647 -58.6046)" class="st11" width="11.32" height="2.35"/>
<rect x="138.59" y="142.69" transform="matrix(0.7544 0.6564 -0.6564 0.7544 129.8706 -59.3518)" class="st11" width="11.32" height="2.35"/>
<rect x="139.69" y="141.4" transform="matrix(0.7763 0.6303 -0.6303 0.7763 122.3725 -59.7279)" class="st11" width="11.32" height="2.35"/>
<rect x="140.75" y="140.07" transform="matrix(0.7974 0.6034 -0.6034 0.7974 114.8909 -59.7343)" class="st11" width="11.32" height="2.35"/>
<rect x="141.76" y="138.7" transform="matrix(0.8175 0.5759 -0.5759 0.8175 107.446 -59.3739)" class="st11" width="11.32" height="2.35"/>
<rect x="142.73" y="137.3" transform="matrix(0.8367 0.5476 -0.5476 0.8367 100.0579 -58.6505)" class="st11" width="11.32" height="2.35"/>
<rect x="143.65" y="135.87" transform="matrix(0.8549 0.5187 -0.5187 0.8549 92.7463 -57.5693)" class="st11" width="11.32" height="2.35"/>
<rect x="144.52" y="134.41" transform="matrix(0.8722 0.4892 -0.4892 0.8722 85.5305 -56.1366)" class="st11" width="11.32" height="2.35"/>
<rect x="145.33" y="132.91" transform="matrix(0.8883 0.4592 -0.4592 0.8883 78.4293 -54.3599)" class="st11" width="11.32" height="2.35"/>
<rect x="146.1" y="131.4" transform="matrix(0.9035 0.4286 -0.4286 0.9035 71.461 -52.2477)" class="st11" width="11.32" height="2.35"/>
<rect x="146.81" y="129.85" transform="matrix(0.9176 0.3975 -0.3975 0.9176 64.6432 -49.8095)" class="st11" width="11.32" height="2.35"/>
<rect x="147.48" y="128.29" transform="matrix(0.9306 0.3659 -0.3659 0.9306 57.9928 -47.0561)" class="st11" width="11.32" height="2.35"/>
<rect x="148.08" y="126.7" transform="matrix(0.9426 0.3339 -0.3339 0.9426 51.5261 -43.9989)" class="st11" width="11.32" height="2.35"/>
<rect x="148.64" y="125.09" transform="matrix(0.9534 0.3016 -0.3016 0.9534 45.2585 -40.6505)" class="st11" width="11.32" height="2.35"/>
<rect x="149.13" y="123.46" transform="matrix(0.9632 0.2688 -0.2688 0.9632 39.2045 -37.0242)" class="st11" width="11.32" height="2.35"/>
<rect x="149.57" y="121.82" transform="matrix(0.9718 0.2358 -0.2358 0.9718 33.3777 -33.1342)" class="st11" width="11.32" height="2.35"/>
<path class="st12" d="M112.35,98.89c-0.33,0.12-0.66,0.24-0.98,0.37L79.78,58.02c-1.42-1.86-4.1-2.21-5.96-0.79l-2.25,1.72
	c-1.86,1.42-2.21,4.1-0.79,5.96l31.41,41.01c-0.42,0.51-0.82,1.03-1.19,1.57L51.77,90.28c-2.21-0.77-4.65,0.4-5.42,2.61l-0.94,2.68
	c-0.77,2.21,0.4,4.65,2.61,5.42l48.95,17.12c-0.39,3.35-0.04,6.84,1.14,10.24c4.21,12.06,17.39,18.43,29.46,14.22
	c12.06-4.21,18.43-17.39,14.22-29.46C137.59,101.05,124.41,94.69,112.35,98.89z M129.33,117.46c1.8,5.17-0.93,10.83-6.1,12.63
	c-5.17,1.8-10.83-0.93-12.63-6.1c-1.8-5.17,0.93-10.83,6.1-12.63C121.87,109.56,127.53,112.29,129.33,117.46z"/>
<g>
	<g>
		<polygon class="st6" points="95.76,97.41 96.34,91.86 101.43,89.58 105.95,92.85 105.37,98.4 100.28,100.68 		"/>
	</g>
	
		<rect x="97.5" y="94.33" transform="matrix(0.4085 0.9128 -0.9128 0.4085 146.5186 -36.0298)" class="st7" width="7.12" height="1.4"/>
</g>
<g>
	<g>
		<polygon class="st6" points="86.24,108.03 90.7,104.69 95.83,106.89 96.49,112.43 92.02,115.77 86.89,113.57 		"/>
	</g>
	
		<rect x="88.01" y="109.61" transform="matrix(-0.3943 0.919 -0.919 -0.3943 229.0522 69.6463)" class="st7" width="7.12" height="1.4"/>
</g>
<g>
	<g>
		<circle class="st8" cx="92.57" cy="134.58" r="6.19"/>
	</g>
	<g>
		<polygon class="st9" points="96.95,136.47 97.29,134.7 93.62,134.01 93.99,129.96 92.2,129.8 91.85,133.68 88.3,133.01 
			87.96,134.78 91.68,135.48 91.37,138.91 93.16,139.07 93.46,135.82 		"/>
	</g>
</g>
<g>
	<g>
		<circle class="st8" cx="123.13" cy="90.3" r="6.19"/>
	</g>
	<g>
		<polygon class="st9" points="127.89,89.95 127.36,88.22 123.8,89.31 122.25,85.55 120.58,86.24 122.07,89.84 118.62,90.9 
			119.14,92.62 122.76,91.52 124.07,94.69 125.74,94.01 124.49,90.99 		"/>
	</g>
</g>
<g>
	<g>
		<circle class="st8" cx="127.22" cy="150.73" r="6.19"/>
	</g>
	<g>
		<polygon class="st9" points="128.45,146.12 126.64,146.05 126.51,149.77 122.44,150.01 122.55,151.81 126.44,151.58 126.3,155.19 
			128.11,155.26 128.25,151.48 131.68,151.28 131.58,149.48 128.31,149.67 		"/>
	</g>
</g>
<g>
	<g>
		<circle class="st8" cx="149.69" cy="112.89" r="6.19"/>
	</g>
	<g>
		<polygon class="st9" points="151.2,108.36 149.41,108.18 149.04,111.89 144.97,111.86 144.96,113.67 148.86,113.69 148.49,117.28 
			150.29,117.46 150.67,113.7 154.11,113.72 154.12,111.92 150.85,111.9 		"/>
	</g>
</g>
<g>
	<g>
		<polygon class="st5" points="108.35,150.47 104.15,151.82 100.88,148.86 101.81,144.55 106,143.2 109.27,146.16 		"/>
	</g>
	
		<rect x="102.13" y="146.84" transform="matrix(0.671 -0.7414 0.7414 0.671 -74.7627 126.2973)" class="st7" width="5.63" height="1.11"/>
</g>
<g>
	<g>
		<polygon class="st5" points="134.27,98.68 134.29,94.27 138.12,92.09 141.93,94.31 141.91,98.72 138.08,100.9 		"/>
	</g>
	
		<rect x="135.44" y="95.85" transform="matrix(0.4958 0.8685 -0.8685 0.4958 153.4308 -71.4557)" class="st7" width="5.63" height="1.11"/>
</g>
<path class="st13" d="M95.44,50.87l-4.66-21.05l-4.03,0.89l-0.73-3.28l11.55-2.56l0.73,3.28l-4.03,0.89l4.66,21.05L95.44,50.87z"/>
<path class="st13" d="M103.68,49.1l-1.88-24.85l3.56-0.27l0.8,10.64l4.4-0.33l-0.8-10.64l3.56-0.27l1.88,24.85l-3.56,0.27
	l-0.84-11.06l-4.4,0.33l0.83,11.06L103.68,49.1z"/>
<path class="st13" d="M116.02,48.13l7.61-24.37l2.96,0.25l3.48,25.29L126.51,49l-0.6-5.42l-4.85-0.4l-1.49,5.25L116.02,48.13z
	 M125.53,40.18l-1-9.14l-0.07-0.01l-2.49,8.85L125.53,40.18z"/>
<path class="st13" d="M131.5,49.82l4.34-21.12l-4.05-0.83l0.68-3.29l11.59,2.38l-0.68,3.29l-4.04-0.83l-4.34,21.12L131.5,49.82z"/>
<path class="st13" d="M156.64,38.83l-3.36-1.22l0.28-0.76c0.28-0.77,0.34-1.5,0.18-2.19s-0.67-1.19-1.52-1.5
	c-0.46-0.17-0.86-0.21-1.21-0.14s-0.66,0.21-0.93,0.41c-0.28,0.22-0.52,0.5-0.71,0.84c-0.2,0.34-0.37,0.7-0.51,1.1
	c-0.17,0.46-0.29,0.85-0.37,1.17c-0.08,0.32-0.1,0.62-0.05,0.91c0.04,0.29,0.16,0.57,0.35,0.83c0.19,0.27,0.47,0.57,0.84,0.9
	l2.2,1.95c0.64,0.56,1.12,1.11,1.44,1.66c0.32,0.55,0.52,1.13,0.6,1.73c0.05,0.61,0,1.27-0.16,1.97c-0.15,0.7-0.39,1.48-0.7,2.33
	c-0.36,0.99-0.79,1.87-1.29,2.64c-0.5,0.77-1.08,1.38-1.74,1.81c-0.68,0.45-1.46,0.71-2.34,0.79c-0.87,0.08-1.85-0.08-2.92-0.47
	c-0.81-0.3-1.52-0.71-2.12-1.25c-0.6-0.54-1.06-1.15-1.38-1.84c-0.32-0.69-0.51-1.42-0.56-2.2c-0.05-0.78,0.06-1.56,0.35-2.35
	l0.46-1.25l3.35,1.22l-0.38,1.05c-0.22,0.61-0.24,1.23-0.06,1.86s0.7,1.09,1.56,1.4c0.57,0.21,1.04,0.29,1.42,0.24
	c0.38-0.05,0.71-0.19,1-0.44c0.29-0.24,0.53-0.57,0.71-0.99c0.19-0.42,0.38-0.89,0.57-1.41c0.22-0.61,0.38-1.13,0.48-1.54
	c0.1-0.41,0.13-0.76,0.08-1.05c-0.07-0.3-0.2-0.57-0.39-0.81c-0.2-0.24-0.47-0.53-0.83-0.86l-2.04-1.86
	c-1.23-1.12-1.92-2.25-2.05-3.41c-0.14-1.16,0.06-2.47,0.59-3.94c0.32-0.88,0.74-1.67,1.27-2.37c0.53-0.7,1.14-1.25,1.83-1.64
	c0.67-0.4,1.42-0.64,2.26-0.72c0.84-0.08,1.75,0.06,2.73,0.42c0.83,0.3,1.54,0.73,2.12,1.29c0.58,0.56,1.03,1.18,1.35,1.87
	c0.63,1.42,0.69,2.81,0.2,4.17L156.64,38.83z"/>
<path class="st13" d="M179.27,75.33l22.57-10.56l1.46,3.11l-11.31,11.25l0.03,0.06l13.6-6.37l1.51,3.23l-22.57,10.57l-1.42-3.04
	l11.25-11.3l-0.03-0.06l-13.57,6.35L179.27,75.33z"/>
<path class="st13" d="M203.58,83.41c0.97-0.27,1.87-0.34,2.7-0.21c0.84,0.13,1.58,0.41,2.23,0.83c0.62,0.41,1.15,0.92,1.59,1.54
	c0.44,0.62,0.76,1.27,0.95,1.97s0.26,1.42,0.21,2.18c-0.06,0.75-0.24,1.48-0.56,2.17c-0.34,0.68-0.84,1.29-1.49,1.83
	c-0.65,0.54-1.45,0.95-2.42,1.22l-12.67,3.54c-1.01,0.28-1.92,0.36-2.74,0.22c-0.81-0.14-1.53-0.41-2.15-0.82
	c-0.65-0.42-1.2-0.94-1.64-1.56c-0.44-0.62-0.76-1.27-0.95-1.97c-0.2-0.7-0.26-1.42-0.21-2.18c0.05-0.76,0.25-1.47,0.6-2.15
	c0.31-0.69,0.78-1.31,1.41-1.85c0.62-0.54,1.44-0.95,2.45-1.23L203.58,83.41z M191.87,90.39c-0.83,0.23-1.38,0.63-1.64,1.2
	c-0.26,0.57-0.31,1.17-0.13,1.8c0.18,0.63,0.52,1.12,1.05,1.47c0.52,0.35,1.2,0.41,2.03,0.18l12.67-3.54
	c0.83-0.23,1.38-0.63,1.64-1.2c0.27-0.57,0.31-1.17,0.13-1.8c-0.18-0.63-0.53-1.12-1.05-1.47c-0.52-0.35-1.2-0.41-2.03-0.18
	L191.87,90.39z"/>
<path class="st13" d="M189.03,104.28l21.37-2.89l-0.55-4.09l3.33-0.45l1.58,11.72l-3.33,0.45l-0.55-4.09l-21.37,2.88L189.03,104.28z
	"/>
<path class="st13" d="M190.34,117.18l24.45,7.35l-0.22,2.97l-25.26,3.75l0.26-3.56l5.42-0.66l0.35-4.85l-5.26-1.43L190.34,117.18z
	 M198.4,126.61l9.13-1.09l0.01-0.07l-8.88-2.4L198.4,126.61z"/>
<path class="st13" d="M189.03,132.12l24.35,5.32l-0.76,3.49l-20.86-4.56l-1.51,6.91l-3.49-0.76L189.03,132.12z"/>
<path class="st13" d="M186.88,142.4l21.4,13.93l-1.04,2.79l-25.29-3.51l1.25-3.34l5.38,0.89l1.7-4.56l-4.65-2.86L186.88,142.4z
	 M191.96,153.71l9.07,1.52l0.02-0.07l-7.85-4.8L191.96,153.71z"/>
<path class="st13" d="M181.58,156.24l21.71,12.24l-1.68,2.99l-15.73-2.68l-0.03,0.06l13.08,7.38l-1.75,3.11l-21.71-12.24l1.65-2.93
	l15.73,2.6l0.03-0.06l-13.05-7.36L181.58,156.24z"/>
</svg>
