<?xml version="1.0" encoding="utf-8"?>
<!-- Generator: Adobe Illustrator 23.0.2, SVG Export Plug-In . SVG Version: 6.00 Build 0)  -->
<svg version="1.1" id="Layer_1" xmlns="http://www.w3.org/2000/svg" xmlns:xlink="http://www.w3.org/1999/xlink" x="0px" y="0px"
	 viewBox="0 0 1070.19 248.17" style="enable-background:new 0 0 1070.19 248.17;" xml:space="preserve">
<style type="text/css">
	.st0{fill:#6B6C6F;}
</style>
<path d="M1065.31,162.29c-3.63-4.8-9.37-8.11-14.45-11.68c-17.13-12.05-36.89-17.4-56.91-22.15c-8.65-2.06-17.28-4.31-25.75-7
	c-6.42-2.04-12.66-3.78-19.51-2.72c-3.72,0.58-7.76,1.11-11.33,0.28c-6.8-1.58-19.29-9.4-19.72-1.9l-131.04-10
	c-7.14-1.46-14.24-3.2-21.43-4.32c-3.21-0.5-6.61,0.41-9.92,0.38c-16.52-0.17-33.05-1.08-49.54-0.53
	c-21.59,0.72-43.16,2.29-64.7,4.01c-12.89,1.03-25.7,3.07-39.28,4.74c0-3.8,0-7.51,0-11.22c0-9.6,0.19-19.21-0.09-28.8
	c-0.09-3.19-0.56-6.89-2.26-9.42c-8.61-12.82-20.36-22.01-34.64-27.87c-6.54-2.68-13.1-5.32-19.78-7.6
	c-10.12-3.45-20.18-7.31-30.56-9.66c-16.3-3.69-32.77-6.84-49.32-9.13c-17.63-2.44-35.41-3.89-53.16-5.26
	c-15.72-1.21-31.49-2.17-47.25-2.41c-14.33-0.22-28.69,0.71-43.04,1.06c-3.59,0.09-7.19-0.2-10.78-0.15
	c-11.47,0.17-22.93,0.61-34.39,0.59c-13.96-0.03-27.94-0.82-41.89-0.51c-9.72,0.22-19.41,1.74-29.11,2.66
	c-24.64,2.34-49.36,4.03-73.9,7.17c-25.45,3.26-50.86,7.19-76,12.27c-12.66,2.56-24.99,7.62-36.85,12.93
	c-5.98,2.68-11.69,6.92-14.68,14.06c-2.29,5.47-2.09,10.65-2.26,16.17c-0.21,7-2.05,14.01-1.73,20.95
	c0.67,14.54,1.88,17.83,14.11,22.08c0.93,0.33,1.89,0.73,2.65,1.34c8.12,6.47,17.57,9.82,27.58,11.98c2.07,0.45,3.98,1.64,6,2.38
	c6.65,2.41,13.16,5.72,20.03,6.97c15.85,2.88,31.94,4.39,47.81,7.14c19.28,3.35,38.36,7.95,57.69,10.96
	c12.27,1.9,24.84,1.89,37.27,2.74c4.98,0.34,10.03,0.27,14.92,1.09c19.52,3.27,39.01,6.92,58.91,6.44
	c12.29-0.29,24.56-1.54,36.84-1.55c10.04-0.01,20.08,1.41,30.14,1.81c17.29,0.68,34.59,1.05,51.88,1.58
	c0.62,0.02,1.24,0.29,0.48,0.1c1.88,4.79,2.29,10,5.07,12.14c8.66,6.68,17.59,13.75,27.59,17.76c12.3,4.93,25.77,6.96,38.75,10.17
	c11.51,2.84,22.91,6.61,34.6,8.15c18.41,2.43,35.91,7.75,53.46,13.55c-0.35,1.02-0.62,1.79-0.88,2.62
	c-2.67,7.63,0.01,16.42,7.06,20.32c6.4,3.54,10.29-1.75,14.4-5.44c0.37-0.33,0.73-0.69,1.06-1.06c5.03-5.66,11.22-8.45,18.87-7.63
	c5.55,0.6,11.09,1.57,16.65,1.69c23.58,0.52,47.02,3.83,70.76,1.55c13.84-1.33,27.95,0.23,41.94,0.54
	c11.36,0.25,22.73,1.09,34.06,0.72c14.53-0.47,29.03-1.82,43.53-2.91c14.95-1.12,29.91-1.55,44.9-1.66
	c11.54-0.09,23.1-0.32,34.61-1.08c11.74-0.77,23.42-2.29,35.14-3.43c5.03-0.49,10.11-0.65,15.12-1.29
	c8.6-1.09,17.24-2.11,25.75-3.77c9.38-1.83,18.68-4.15,27.92-6.64c8.12-2.19,16.3-4.41,24.1-7.5c11.37-4.49,24.49-4.54,34.19-13.21
	c4.38-3.91,9.51-7.43,12.63-12.21C1072.33,176.5,1069.97,168.44,1065.31,162.29z M580.22,233.82c-1.66,1.07-4.06,0.99-6.12,1.44
	c-0.05-2.02-0.6-4.18-0.05-6.01c2.12-6.99,5.86-8.88,12.93-6.88c3.25,0.92,6.44,2.03,9.66,3.05
	C589.31,225.2,585.3,230.54,580.22,233.82z M659.16,229.45c-4.89-0.27-9.78-0.6-14.68-0.8c-4.98-0.2-9.98-0.09-14.95-0.45
	c-5.03-0.37-10.04-1.16-16.36-1.92c6.91-4.45,12.53-8.06,18.89-12.17c2.16,2.19,4.56,5.64,7.84,7.7c3.63,2.28,8.02,3.4,12.15,4.79
	c2.32,0.77,4.79,1.07,7.19,1.59C659.21,228.61,659.19,229.03,659.16,229.45z"/>
<path d="M378.68,189.78c7.69,0,14.41,0,21.14,0c1.33,0,2.73-0.22,3.96,0.13c0.89,0.26,1.56,1.3,2.33,1.99
	c-0.73,0.53-1.46,1.52-2.2,1.53c-10.29,0.11-20.59,0.13-30.88,0.05c-0.79-0.01-2.26-0.97-2.21-1.35c0.12-1,0.67-2.21,1.45-2.82
	c3.66-2.85,7.57-5.4,11.18-8.31c2.57-2.07,4.69-4.69,7.23-6.8c1.08-0.9,2.73-1.12,4.12-1.64c-0.51,1.3-0.68,2.95-1.59,3.84
	C388.82,180.65,384.24,184.7,378.68,189.78z"/>
<path d="M362.07,191.66c-4.64-1.34-9.54-2.15-13.84-4.2c-3.61-1.72-3.33-6.3,0.4-7.8c7.27-2.93,14.89-3.14,22.38-0.61
	c1.11,0.37,1.78,2.02,2.66,3.08c-1.27,0.08-2.62,0.48-3.81,0.2c-6.72-1.59-13.31-1.44-19.82,0.49c-0.13,0.58-0.27,1.15-0.4,1.73
	c4.58,1.38,9.17,2.77,13.75,4.15C362.95,189.69,362.51,190.67,362.07,191.66z"/>
<g>
	<path class="st0" d="M591.57,90.19c-1.71,1.25-3.25,2.94-5.16,3.68c-8.2,3.18-16.41,6.37-24.79,9c-7.67,2.41-15.57,4.1-23.37,6.1
		c-7.85,2.01-15.61,4.61-23.58,5.9c-14.73,2.39-29.78,3.05-44.32,6.21c-18.77,4.07-37.61,3.93-56.54,3.99
		c-1.33,0-2.66,0.05-3.99,0.14c-17,1.2-33.98,2.88-51,3.5c-17.13,0.63-34.3,0.34-51.45,0.22c-12.05-0.08-24.11-0.41-36.15-0.85
		c-15.57-0.57-31.15-1.18-46.71-2.11c-12.39-0.74-24.84-1.3-37.09-3.13c-18.02-2.69-36.18-5.33-53.72-10.08
		c-12.94-3.51-25.86-6.39-39.04-8.67c-12.51-2.16-24.93-4.99-37.24-8.14c-8.95-2.29-17.65-5.54-26.44-8.44
		c-5.78-1.9-11.49-4.01-17.28-5.87c-1.58-0.51-3.35-0.46-5.22-0.69c0.38,4.06,0.7,7.41,1.14,12.11c6.59,3.24,14.32,7.05,22.06,10.83
		c10.22,4.99,20.03,10.63,31.78,12.16c9.42,1.23,18.51,4.74,27.85,6.74c7.07,1.52,14.34,2.11,21.47,3.38
		c7.66,1.36,15.22,3.29,22.9,4.51c12.05,1.91,24.18,3.37,36.26,5.13c11.6,1.69,23.15,3.77,34.78,5.22
		c15.95,1.99,32.04,2.97,47.91,5.45c16.8,2.62,33.62,3.27,50.5,2.65c16.74-0.62,33.48-1.58,50.17-3.01
		c17.17-1.47,34.27-3.72,51.4-5.58c11.05-1.19,22.09-2.52,33.16-3.34c6.54-0.48,13.15-0.1,19.73-0.07c4.93,0.02,9.95-0.45,14.77,0.3
		c4.85,0.75,8.61-2.48,13.59-2.12c6.76,0.48,13.76-1.52,20.58-2.83c12.02-2.31,24.01-4.77,35.96-7.45c8-1.79,16.06-3.56,23.77-6.24
		c7.64-2.65,14.89-6.41,22.27-9.77c0.77-0.35,1.73-1.28,1.8-2.01c0.51-5.5,0.81-11.02,1.18-16.53
		C592.86,90.38,592.22,90.29,591.57,90.19z"/>
	<path class="st0" d="M23.32,76.53c7,1.59,13.84,3.9,20.75,5.91c15.06,4.39,29.98,9.39,45.22,13c13.02,3.08,26.67,3.64,39.58,7.06
		c10.31,2.73,20.08,7.31,30.94,8.43c17.28,1.79,34.48,4.41,51.77,6.17c13.76,1.4,27.59,2.5,41.41,2.93
		c22.56,0.71,45.15,0.85,67.73,1.09c13.96,0.14,27.93,0.02,41.89,0.02c0.01-0.15,0.02-0.31,0.03-0.46
		c9.28-0.58,18.56-1.05,27.82-1.76c9.73-0.75,19.43-2.14,29.17-2.5c15.56-0.56,31.12-0.22,46.41-4.33
		c6.64-1.78,13.68-2.08,20.57-2.88c7.55-0.88,15.32-0.74,22.66-2.49c18.35-4.36,36.6-9.25,54.71-14.53
		c7.23-2.11,14.2-5.43,20.92-8.91c7.05-3.65,10.78-13.64,7.12-18.42c-7.43-9.73-16.36-18.41-27.84-22.56
		c-16.27-5.88-31.36-14.78-49.03-17.28c-17.95-2.54-35.5-7.83-53.42-10.7c-16.23-2.6-32.69-4.25-49.11-5.1
		c-21.98-1.14-44.02-1.33-66.04-1.51c-20.07-0.17-40.15,0.16-60.22,0.37c-10.07,0.11-20.15,0.62-30.22,0.61
		c-10.96-0.01-21.95-1.01-32.87-0.48c-14.14,0.7-28.24,2.41-42.34,3.84c-8.24,0.84-16.45,2.01-24.68,2.96
		c-5.93,0.69-11.88,1.16-17.8,1.94c-10.46,1.37-20.91,2.81-31.34,4.39c-6.62,1.01-13.26,3.54-19.79,3.24
		c-10.65-0.48-20.36,2.95-30.35,5.17c-4.73,1.05-9.05,4.78-13.71,5.1c-7.04,0.49-13.19,2.31-19.01,6.07
		c-5.71,3.69-11.27,6.99-13.15,14.58C8.65,65.37,13.56,74.31,23.32,76.53z M551.78,48.21c2.38,0.19,5,2.84,6.7,5
		c4.51,5.72,1.73,14.65-4.87,17.59c-21.31,9.49-44.08,14.13-66.37,20.43c-22.73,6.43-46.05,7.9-69.35,9.85
		c-18.33,1.55-36.65,3.21-56.33,4.94c-9.19,0-19.65-0.39-30.08,0.1c-12.46,0.59-24.87,2.29-37.32,2.81
		c-6.72,0.28-13.51-0.81-20.24-1.51c-1.18-0.12-2.23-1.39-3.35-2.12c0.98-0.97,1.81-2.46,2.98-2.83c5.49-1.73,11.07-3.22,16.64-4.69
		c7.91-2.08,15.77-4.45,23.79-5.97c11.49-2.18,23.15-3.52,34.67-5.55c13.8-2.43,27.52-5.27,41.3-7.83
		c7.49-1.39,15.07-2.32,22.53-3.86c17.8-3.68,35.51-7.8,53.33-11.36c13.15-2.63,26.46-4.5,39.64-6.98
		c10.72-2.02,21.33-4.57,32.04-6.62C542.2,48.71,547.08,47.83,551.78,48.21z M421.96,34.14c11.97-1.68,23.95-3.19,35.92-4.9
		c8.69-1.24,17.31-3.31,26.03-3.81c5.48-0.32,11.12,1.4,16.64,2.49c7.36,1.46,14.7,3.03,21.95,4.96c1.51,0.4,3.38,2.47,3.56,3.95
		c0.15,1.29-1.63,3.84-2.93,4.12c-13.05,2.79-26.17,5.19-39.26,7.77c-4.54,0.9-9,2.25-13.57,3c-13.57,2.21-27.22,3.96-40.74,6.42
		c-8.79,1.59-17.42,4.06-26.11,6.19c-11.24,2.76-22.38,6.02-33.71,8.27c-10.32,2.05-20.91,2.67-31.26,4.56
		c-21.34,3.88-42.64,7.96-63.87,12.36c-18.14,3.76-36.09,8.44-54.27,11.99c-8.92,1.72-18.15,1.82-30.18,2.93
		c-12.04-2.28-26.87-5.07-41.67-7.93c-1.28-0.25-2.65-0.76-3.65-1.56c-1.01-0.82-2.3-2.23-2.18-3.23c0.14-1.14,1.5-2.66,2.66-3.06
		c3.91-1.34,8.03-2.06,11.96-3.35c16.14-5.32,33.13-5.89,49.65-9.07c19.33-3.72,38.59-7.84,57.94-11.44
		c13.36-2.49,26.86-4.22,40.24-6.61c7.93-1.42,15.73-3.59,23.63-5.2c13.3-2.71,26.7-4.99,39.95-7.93
		c13.85-3.07,28.48-2.19,41.68-8.71C413.77,34.67,418.05,34.69,421.96,34.14z M347.28,14.67c15.18,0.47,30.34,1.85,45.47,3.23
		c2.97,0.27,5.95,1.82,8.64,3.3c2.84,1.57,2.93,4.04,0.19,5.89c-2.3,1.55-4.8,3.12-7.44,3.8c-11.38,2.9-22.77,5.92-34.31,8.05
		c-12.02,2.22-24.24,3.27-36.32,5.18c-11.42,1.81-22.76,4.2-34.17,6.09c-7.69,1.28-15.46,1.98-23.16,3.22
		c-8.18,1.32-16.3,2.97-24.44,4.48c-0.07-0.47-0.16-0.94-0.25-1.41c-6.47,1.24-12.93,2.49-19.4,3.72
		C203.06,63.83,184,67.31,165,71.1c-9.91,1.98-19.68,4.65-29.55,6.79c-12.79,2.77-25.55,5.99-38.5,7.66
		c-5.75,0.74-12.09-1.34-17.88-3.07C72.82,80.61,66.71,77.99,60.9,75c-3.19-1.64-5.63-4.73-8.41-7.16c3.11-1.49,6.09-3.79,9.36-4.34
		c19.43-3.29,38.91-6.33,58.41-9.13c11.74-1.69,23.58-2.62,35.33-4.25c7.71-1.07,15.32-2.86,23.01-4.15
		c10.11-1.7,20.29-2.96,30.35-4.9c10.52-2.03,20.9-4.77,31.4-6.95c6-1.24,12.11-1.93,18.15-2.95c10.09-1.71,20.19-3.44,30.26-5.25
		c14.22-2.54,28.43-5.08,42.62-7.77C336.72,17.14,342.02,14.5,347.28,14.67z M30.23,50.84c8.83-5.93,18.04-11.39,28.68-13.68
		c12.42-2.68,24.75-5.88,37.27-7.97c10.76-1.8,21.77-2.12,32.6-3.54c7.16-0.94,14.17-2.92,21.32-3.99
		c12.57-1.87,25.14-3.97,37.79-4.92c15.06-1.12,30.21-1.08,45.32-1.64c15.84-0.59,31.68-1.34,47.53-1.93
		c5.45-0.2,10.92-0.39,16.34-0.05c1.76,0.11,3.42,1.93,5.12,2.97c-1.51,1.03-2.9,2.62-4.56,2.99c-12.26,2.7-24.48,6.52-36.89,7.37
		c-21.76,1.48-42.98,6.23-64.52,8.86c-16.05,1.96-32.09,4.08-48.08,6.46c-10.6,1.58-21.12,3.78-31.67,5.67
		c-1.61,0.29-3.24,0.44-4.87,0.65c-0.01-0.08-0.02-0.18-0.03-0.27c-6.38,0.83-12.8,1.39-19.13,2.53
		c-10.6,1.92-21.14,4.14-31.68,6.34c-8.42,1.76-16.8,3.69-25.2,5.54c-2.84,0.62-5.95,2.25-7.87-1.54
		C25.68,56.72,27.36,52.77,30.23,50.84z"/>
</g>
</svg>
