<?xml version="1.0" encoding="utf-8"?>
<!-- Generator: Adobe Illustrator 23.0.2, SVG Export Plug-In . SVG Version: 6.00 Build 0)  -->
<svg version="1.1" id="Layer_1" xmlns="http://www.w3.org/2000/svg" xmlns:xlink="http://www.w3.org/1999/xlink" x="0px" y="0px"
	 viewBox="0 0 1070.18 1222.11" style="enable-background:new 0 0 1070.18 1222.11;" xml:space="preserve">
<path d="M565.83,1198.06c-17.55-5.8-35.05-11.12-53.46-13.55c-11.69-1.54-23.09-5.31-34.6-8.15c-12.98-3.21-26.45-5.24-38.75-10.17
	c-10-4.01-18.93-11.08-27.59-17.76c-2.78-2.14-3.19-7.35-5.07-12.14c0.76,0.19,0.14-0.08-0.48-0.1c-17.29-0.53-34.59-0.9-51.88-1.58
	c-10.06-0.4-20.1-1.82-30.14-1.81c-12.28,0.01-24.55,1.26-36.84,1.55c-19.9,0.48-39.39-3.17-58.91-6.44
	c-4.89-0.82-9.94-0.75-14.92-1.09c-12.43-0.85-25-0.84-37.27-2.74c-19.33-3.01-38.41-7.61-57.69-10.96
	c-15.87-2.75-31.96-4.26-47.81-7.14c-6.87-1.25-13.38-4.56-20.03-6.97c-2.02-0.74-3.93-1.93-6-2.38
	c-10.01-2.16-19.46-5.51-27.58-11.98c-0.76-0.61-1.72-1.01-2.65-1.34c-12.23-4.25-13.44-7.54-14.11-22.08
	c-0.32-6.94,1.52-13.95,1.73-20.95c0.17-5.52-0.03-10.7,2.26-16.17c2.99-7.14,8.7-11.38,14.68-14.06
	c11.86-5.31,24.19-10.37,36.85-12.93c25.14-5.08,50.55-9.01,76-12.27c24.54-3.14,49.26-4.83,73.9-7.17
	c9.7-0.92,19.39-2.44,29.11-2.66c13.95-0.31,27.93,0.48,41.89,0.51c11.46,0.02,22.92-0.42,34.39-0.59
	c3.59-0.05,7.19,0.24,10.78,0.15c14.35-0.35,28.71-1.28,43.04-1.06c15.76,0.24,31.53,1.2,47.25,2.41
	c17.75,1.37,35.53,2.82,53.16,5.26c16.55,2.29,33.02,5.44,49.32,9.13c10.38,2.35,20.44,6.21,30.56,9.66
	c6.68,2.28,13.24,4.92,19.78,7.6c14.28,5.86,26.03,15.05,34.64,27.87c1.7,2.53,2.17,6.23,2.26,9.42c0.28,9.59,0.09,19.2,0.09,28.8
	c0,3.71,0,7.42,0,11.22c13.58-1.67,26.39-3.71,39.28-4.74c21.54-1.72,43.11-3.29,64.7-4.01c16.49-0.55,33.02,0.36,49.54,0.53
	c3.31,0.03,6.71-0.88,9.92-0.38c7.19,1.12,14.29,2.86,21.43,4.32c0.93,0.19,1.9,0.2,3.26-0.53c-3.06-1.87-6-3.99-9.21-5.57
	c-5.9-2.91-8.41-8.24-10.32-13.92c-2.96-8.82-4.24-18.08-1.09-26.88c1.91-5.36,6.2-9.86,9.42-14.75c1.19-1.81,2.43-3.58,3.52-5.45
	c0.4-0.68,0.28-1.65,0.62-2.39c1.17-2.56,2.18-5.23,3.7-7.57c2.45-3.77,4.47,0.93,6.9,0.66c2.81-0.32,5.74,0.28,8.54-0.11
	c9.69-1.35,18.75-0.33,28,3.55c3.93,1.64,9.65-0.47,14.4-1.57c2.22-0.51,4.06-2.66,5.01-3.33c4.86,1.99,8.84,3.51,12.73,5.24
	c14.74,6.55,28.27,14.55,39.46,26.73c12.73,13.85,16.04,29.93,15.31,47.77c-0.17,4.04,0.79,8.12,1.27,12.55
	c6.17-3.8,12.44-4.11,19.24-2.53c3.57,0.83,7.61,0.3,11.33-0.28c6.85-1.06,13.09,0.68,19.51,2.72c8.47,2.69,17.1,4.94,25.75,7
	c20.02,4.75,39.78,10.1,56.91,22.15c5.08,3.57,10.82,6.88,14.45,11.68c4.66,6.15,7.02,14.21,2.32,21.38
	c-3.12,4.78-8.25,8.3-12.63,12.21c-9.7,8.67-22.82,8.72-34.19,13.21c-7.8,3.09-15.98,5.31-24.1,7.5
	c-9.24,2.49-18.54,4.81-27.92,6.64c-8.51,1.66-17.15,2.68-25.75,3.77c-5.01,0.64-10.09,0.8-15.12,1.29
	c-11.72,1.14-23.4,2.66-35.14,3.43c-11.51,0.76-23.07,0.99-34.61,1.08c-14.99,0.11-29.95,0.54-44.9,1.66
	c-14.5,1.09-29,2.44-43.53,2.91c-11.33,0.37-22.7-0.47-34.06-0.72c-13.99-0.31-28.1-1.87-41.94-0.54
	c-23.74,2.28-47.18-1.03-70.76-1.55c-5.56-0.12-11.1-1.09-16.65-1.69c-7.65-0.82-13.84,1.97-18.87,7.63
	c-0.33,0.37-0.69,0.73-1.06,1.06c-4.11,3.69-8,8.98-14.4,5.44c-7.05-3.9-9.73-12.69-7.06-20.32
	C565.21,1199.85,565.48,1199.08,565.83,1198.06z M362.62,1095.14c0.01-0.15,0.02-0.31,0.03-0.46c9.28-0.58,18.56-1.05,27.82-1.76
	c9.73-0.75,19.43-2.14,29.17-2.5c15.56-0.56,31.12-0.22,46.41-4.33c6.64-1.78,13.68-2.08,20.57-2.88
	c7.55-0.88,15.32-0.74,22.66-2.49c18.35-4.36,36.6-9.25,54.71-14.53c7.23-2.11,14.2-5.43,20.92-8.91
	c7.05-3.65,10.78-13.64,7.12-18.42c-7.43-9.73-16.36-18.41-27.84-22.56c-16.27-5.88-31.36-14.78-49.03-17.28
	c-17.95-2.54-35.5-7.83-53.42-10.7c-16.23-2.6-32.69-4.25-49.11-5.1c-21.98-1.14-44.02-1.33-66.04-1.51
	c-20.07-0.17-40.15,0.16-60.22,0.37c-10.07,0.11-20.15,0.62-30.22,0.61c-10.96-0.01-21.95-1.01-32.87-0.48
	c-14.14,0.7-28.24,2.41-42.34,3.84c-8.24,0.84-16.45,2.01-24.68,2.96c-5.93,0.69-11.88,1.16-17.8,1.94
	c-10.46,1.37-20.91,2.81-31.34,4.39c-6.62,1.01-13.26,3.54-19.79,3.24c-10.65-0.48-20.36,2.95-30.35,5.17
	c-4.73,1.05-9.05,4.78-13.71,5.1c-7.04,0.49-13.19,2.31-19.01,6.07c-5.71,3.69-11.27,6.99-13.15,14.58
	c-2.45,9.87,2.46,18.81,12.22,21.03c7,1.59,13.84,3.9,20.75,5.91c15.06,4.39,29.98,9.39,45.22,13c13.02,3.08,26.67,3.64,39.58,7.06
	c10.31,2.73,20.08,7.31,30.94,8.43c17.28,1.79,34.48,4.41,51.77,6.17c13.76,1.4,27.59,2.5,41.41,2.93
	c22.56,0.71,45.15,0.85,67.73,1.09C334.69,1095.26,348.66,1095.14,362.62,1095.14z M593.52,1064.48c-0.65-0.1-1.29-0.19-1.94-0.29
	c-1.71,1.25-3.25,2.94-5.16,3.68c-8.2,3.18-16.41,6.37-24.79,9c-7.67,2.41-15.57,4.1-23.37,6.1c-7.85,2.01-15.61,4.61-23.58,5.9
	c-14.73,2.39-29.78,3.05-44.32,6.21c-18.77,4.07-37.61,3.93-56.54,3.99c-1.33,0-2.66,0.05-3.99,0.14c-17,1.2-33.98,2.88-51,3.5
	c-17.13,0.63-34.3,0.34-51.45,0.22c-12.05-0.08-24.11-0.41-36.15-0.85c-15.57-0.57-31.15-1.18-46.71-2.11
	c-12.39-0.74-24.84-1.3-37.09-3.13c-18.02-2.69-36.18-5.33-53.72-10.08c-12.94-3.51-25.86-6.39-39.04-8.67
	c-12.51-2.16-24.93-4.99-37.24-8.14c-8.95-2.29-17.65-5.54-26.44-8.44c-5.78-1.9-11.49-4.01-17.28-5.87
	c-1.58-0.51-3.35-0.46-5.22-0.69c0.38,4.06,0.7,7.41,1.14,12.11c6.59,3.24,14.32,7.05,22.06,10.83
	c10.22,4.99,20.03,10.63,31.78,12.16c9.42,1.23,18.51,4.74,27.85,6.74c7.07,1.52,14.34,2.11,21.47,3.38
	c7.66,1.36,15.22,3.29,22.9,4.51c12.05,1.91,24.18,3.37,36.26,5.13c11.6,1.69,23.15,3.77,34.78,5.22
	c15.95,1.99,32.04,2.97,47.91,5.45c16.8,2.62,33.62,3.27,50.5,2.65c16.74-0.62,33.48-1.58,50.17-3.01
	c17.17-1.47,34.27-3.72,51.4-5.58c11.05-1.19,22.09-2.52,33.16-3.34c6.54-0.48,13.15-0.1,19.73-0.07c4.93,0.02,9.95-0.45,14.77,0.3
	c4.85,0.75,8.61-2.48,13.59-2.12c6.76,0.48,13.76-1.52,20.58-2.83c12.02-2.31,24.01-4.77,35.96-7.45c8-1.79,16.06-3.56,23.77-6.24
	c7.64-2.65,14.89-6.41,22.27-9.77c0.77-0.35,1.73-1.28,1.8-2.01C592.85,1075.51,593.15,1069.99,593.52,1064.48z M613.18,1200.28
	c6.32,0.76,11.33,1.55,16.36,1.92c4.97,0.36,9.97,0.25,14.95,0.45c4.9,0.2,9.79,0.53,14.68,0.8c0.03-0.42,0.05-0.84,0.08-1.26
	c-2.4-0.52-4.87-0.82-7.19-1.59c-4.13-1.39-8.52-2.51-12.15-4.79c-3.28-2.06-5.68-5.51-7.84-7.7
	C625.71,1192.22,620.09,1195.83,613.18,1200.28z M596.65,1199.42c-3.22-1.02-6.41-2.13-9.66-3.05c-7.07-2-10.81-0.11-12.93,6.88
	c-0.55,1.83,0,3.99,0.05,6.01c2.06-0.45,4.46-0.37,6.12-1.44C585.31,1204.54,589.32,1199.2,596.65,1199.42z M799.8,1048.85
	c0.47-3.19-2.7-4.88-4.84-4.56c-1.57,0.24-3.76,3.9-3.61,5.89c0.15,1.94,2.9,3.68,4.51,5.51c0.27-0.32,0.53-0.65,0.8-0.97
	c-1.36-1.83-2.71-3.65-4.07-5.48c0.29-0.51,0.59-1.03,0.88-1.54C795.52,1048.07,797.56,1048.44,799.8,1048.85z"/>
<path d="M688.72,97.92c-8.3-4.71-8.18-4.59-14.78,1.89c-3.5,3.43-7.56,6.29-11.27,9.51c-3.53,3.06-7.44,2.34-11.24,1.1
	c-3.31-1.08-3.35-8.34-0.27-12.25c6-7.64,11.97-15.3,18.25-23.33c-6.33-5.54-10.55-13.56-12.87-22.39
	c-1.81-6.88-0.52-13.86,2.52-20.3c2.95-6.25,3.67-12.61,2.4-19.39c-0.36-1.92,0.57-4.09,0.91-6.17c6.69,2.94,12.41,5.45,17.53,7.71
	c11.53-7.85,23.53-9.81,36.61-7.36c2.14,0.4,5.09-0.73,6.95-2.11c9.29-6.89,9.04-6.9,15.31,3.12c8.26,13.2,16.54,26.4,25.35,39.23
	c5.05,7.35,11.47,13.74,16.72,20.96c6.32,8.69,7.83,18.93,9.27,29.43c2,14.57-0.48,28.78-1.67,43.08
	c-0.55,6.63-2.85,13.12-4.39,19.81c9.12,1.28,17.67,3.71,25.51,8.93c6.02,4,13.32,6.1,19.26,10.18c4.86,3.34,9.34,7.87,12.53,12.81
	c2.16,3.34,3.54,2.91,6.12,1.76c6.24-2.77,7.29-2.81,9.01,3.54c3.84,14.16,7.15,28.47,10.18,42.83c1.53,7.25-3.46,12.42-7.3,17.84
	c-0.88,1.24-1.38,3.03-1.37,4.56c0.02,8.9-0.64,17.52-6.58,24.86c-2.29,2.83-5.28,5.34-8.39,3.39c-2.7-1.69-4.84-5.2-5.87-8.35
	c-0.98-2.99-0.21-6.55-0.21-10.41c-14.59,4.11-25.45-3.46-36.66-10.47c0.93,3.61,2.42,7.09,2.63,10.65
	c0.35,6.24,0.71,12.68-0.52,18.72c-0.63,3.09-4.25,6.61-7.34,7.82c-2.23,0.87-6.84-0.91-8.58-3.01c-2.93-3.54-4.49-8.25-6.5-12.52
	c-0.68-1.44-0.99-3.06-1.97-4.5c-2.19,5.28-0.06,10.11,1.72,14.84c2.58,6.86,6.71,12.46,12.19,17.69c5.25,5.01,7.34,12.47,5.49,20.2
	c-0.96,4.04-3.83,6.74-7.64,6.8c-2.89,0.04-6.93-1.18-8.49-3.29c-4.14-5.62-7.21-12.02-10.22-17.27c0.04-0.49-0.14,0.51-0.1,1.49
	c0.04,0.98,0.33,1.95,0.49,2.93c1.64,10.47,1.24,20.45-5.98,29.17c-5.23,6.31-14.76,6.78-20.36,0.61
	c-5.31-5.86-8.08-12.66-8.24-20.72c-0.24-12.32-2.96-24.08-9.26-34.87c-1.99-3.41-3.62-7.04-5.92-11.56
	c-2.01,2.69-4.33,5.1-5.86,7.95c-5.07,9.43-7.56,19.62-9.32,30.17c-0.71,4.26-3.69,8.55-6.67,11.91c-3.79,4.27-8.26,2.64-8.68-3.2
	c-0.54-7.39-0.68-14.94,0.23-22.27c1.3-10.46,5.65-19.73,12.03-28.4c3.74-5.08,5.44-11.84,7.22-18.09c0.6-2.11-1.38-4.96-2.31-7.84
	c-1.19,0.71-2.23,1.76-3.38,1.9c-2.15,0.27-4.8,0.72-6.42-0.25c-1.27-0.76-2.13-3.75-1.76-5.45c1.62-7.57,3.61-15.07,5.71-22.52
	c2.14-7.58,4.64-15.07,6.85-22.63c0.49-1.69,0.44-3.53,0.77-6.46c-6.98,4.24-11.05,9.54-14.41,15.65
	c-6.97,12.66-15.91,23.77-27.36,32.64c-2.21,1.71-5.38,3.01-8.13,3.05c-6.33,0.09-10.26-6.16-8.44-13.07
	c2.24-8.49,6.52-15.66,13.52-21.35c8.64-7.01,14.6-16.11,18.24-26.65c3.43-9.95,7.95-19.72,9.83-29.96
	c2.37-12.95,2.82-26.28,3.51-39.48c0.27-5.18-2.99-6.79-8.16-6.4c-2.24,0.17-5.02-0.99-6.74-2.49c-0.76-0.67,0.05-3.91,0.95-5.54
	C684.51,103.37,686.74,100.72,688.72,97.92z M755.7,344.45c3.62-5.21,4.75-10.86,3.97-17.07c-0.91-7.24-1.88-14.5-2.24-21.77
	c-0.44-8.99,0.62-18.14-0.63-26.98c-1.32-9.34,1.19-17.84,3.54-26.34c1.06-3.85,4.91-7.1,7.99-10.12c0.89-0.87,4.16-0.74,5.18,0.19
	c4.66,4.27,8.66,9.12,9.27,15.86c0.39,4.3,0.37,8.7,1.37,12.86c1.38,5.77,1.26,12.28,6.65,16.47c2.14,1.66,4.32,1.74,4.96-1.13
	c0.75-3.35,1.51-7.06,0.82-10.3c-2.28-10.74-3.82-21.86-12.62-30.05c-1.36-1.27-0.84-4.56-1.19-6.91c2.02,0.62,4.4,0.75,5.99,1.94
	c9.95,7.47,19.59,15.29,31.61,19.5c13.35,4.67,25.84,1.85,34.77-8.39c-9.03-2.46-14.34-8.46-12.59-15.36
	c0.75-2.95,3.15-6.05,5.68-7.82c2.5-1.74,6.12-1.89,10.01-2.94c-2.05-7.49-4.28-15.61-6.82-24.89c-2.89,3.27-5.24,5.4-6.89,7.97
	c-1.51,2.35-3.22,5.22-5.85,3.86c-3.25-1.68-1.71-4.8,0.03-7.28c0.12-0.17-0.11-0.58-0.09-0.5c-9.04-7.06-18.37-4.54-27.98-2.42
	c2.18,4.8,3.99,8.81,6.12,13.51c-9.05,1.39-7.89-8.29-13.34-9.46c-1.54,4.83-3.07,9.63-4.62,14.51c-3.11-1.63-4.95-2.77-6.93-3.57
	c-1.16-0.47-2.53-0.4-3.8-0.57c0.25-1.4,0.06-3.13,0.82-4.16c3.58-4.85,7.39-9.53,11.2-14.2c0.6-0.74,1.53-1.47,2.43-1.68
	c4.23-1,8.47-2.09,12.77-2.64c5.77-0.74,11.59-1.02,18.91-1.61c-3.11-2.73-5.01-5.03-7.44-6.43c-6.74-3.89-13.9-7.06-20.5-11.14
	c-8.44-5.21-16.68-10.46-27.2-6.88c-6.65,2.26-14.22,3.41-19.64,7.41c-15.83,11.67-30,25.34-38.58,43.46
	c-6.19,13.07-7.99,27.31-3.1,40.94c3.23,9,10.03,16.64,14.45,25.3c4.27,8.37,8.21,17.05,11.03,25.99
	c2.22,7.03,2.06,14.77,3.81,21.99C748.13,338.12,749.12,343.64,755.7,344.45z M715.69,272.93c-4.67,7.84-9.46,15.37-13.72,23.18
	c-3.12,5.73-5.5,21.83-4.05,26.43c0.96-3.29,1.68-5.78,2.4-8.26c3.88-13.3,7.62-26.67,18.67-36.58c-0.51-0.98-1.05-2.18-1.73-3.28
	C716.92,273.88,716.31,273.51,715.69,272.93z M695.09,46.03c2.08,2.84,5.27,4.03,9.67,2.68c1.6-0.49,3.4-2.21,3.98-3.79
	c1.35-3.61-3.78-9.84-8.86-10.88c-5.44-1.11-3.49,3.83-4.71,6.16c-0.21,0.39-0.13,0.94-0.14,1c1.78-0.15,3.5-0.38,5.22-0.33
	c0.17,0.01,0.68,2.33,0.38,2.52C698.99,44.41,697.15,45.1,695.09,46.03z M663.04,42.67c2.72,1.76,4.32,2.8,5.92,3.84
	c-1.32,1.76-2.65,3.51-3.97,5.27c-0.44-0.18-0.87-0.37-1.31-0.55c0.52,1.94,1.05,3.88,1.65,6.12c2.06-1.44,3.69-2.54,5.28-3.7
	c0.8-0.58,1.54-1.26,2.28-1.91c3.92-3.47,3.6-6.96-1.05-8.99c-2.05-0.89-4.41-1.29-6.66-1.44
	C664.29,41.25,663.32,42.48,663.04,42.67z M858.93,244.6c0-2.95-0.08-5.69,0.02-8.44c0.11-2.98-1.36-3.72-4.04-3.3
	c-2.92,0.45-6.3,4.53-5.98,7.41C849.35,244.09,852.61,245.65,858.93,244.6z M852.05,267.22c-0.47-0.33-0.95-0.65-1.42-0.98
	c-2.24,1.85-5.67,3.3-6.44,5.64c-1.02,3.08,0.05,6.85,0.22,10.32c0.84,0.08,1.69,0.15,2.53,0.23
	C848.64,277.35,850.35,272.29,852.05,267.22z"/>
<path d="M938.23,460.74c-3.43,6.91-7.15,13.69-10.23,20.75c-4.2,9.64-6.99,20.01-12.12,29.08c-3.7,6.53-4.06,13.16-5.52,19.94
	c-1.09,5.05-4.41,9.58-6.2,14.53c-0.99,2.73-1.43,5.91-1.15,8.79c0.88,9.33,3.04,18.62,2.99,27.92c-0.02,4.15-3.45,8.93-6.59,12.22
	c-2.98,3.13-6.42,0.3-8.82-2.4c-6.3-7.06-9.73-15.26-9.62-24.83c0.03-2.48,0-4.96,0-7.78c-10.48,2.18-19.17-3.25-28.57-5.17
	c-3.15,6.2-5.82,12.69-9.59,18.45c-2.83,4.32-6.77,8.1-10.79,11.41c-3.31,2.72-8.19-0.3-7.79-5.31c0.69-8.53,1.09-17.54,4.2-25.31
	c3.59-8.98,3.49-17.21,1.99-26.33c-1.44-8.72-3.2-17.32-5.35-25.87c-0.46-1.84-1.27-4.42,2.27-4.68c0.46-0.03,1.05-0.89,1.25-1.48
	c2.12-6.4,7.29-9.6,12.77-12.6c1.09-0.6,2.15-1.93,2.48-3.13c2.98-10.94,5.47-22.03,8.73-32.89c5.2-17.33,15-32.34,25.45-46.83
	c3.58-4.96,9-8.55,13.29-13.04c1.17-1.23,2-3.51,1.82-5.19c-1.23-11.6-2.87-23.16-4.17-34.76c-0.59-5.27-0.82-10.58-1-15.88
	c-0.26-7.49,1.51-14.34,6.41-20.3c3.15-3.82,5.83-8.02,8.8-12c4.58-6.13,11-5.72,14.16,1.04c2.29,4.92,3.64,9.79-0.9,14.6
	c-5.33,5.65-6,12.98-6.58,20.36c-1.22,15.61,0.03,30.95,4.01,46.1c0.85,3.25,2.37,4.62,5.84,5.54c13.46,3.57,26.27,8.98,33.15,22.05
	c6.12,11.63,9.92,24.2,10.2,37.57c0.23,10.71,0.57,21.42,0.82,32.13c0.15,6.29-3.73,10.61-7.98,14.27
	c-3.11,2.68-8.82-0.08-11.64-4.68c-3.1-5.06-3.54-10.56-3.37-16.29c0.09-3.22-0.4-6.46-0.63-9.69
	C939.58,460.95,938.91,460.85,938.23,460.74z M893.41,533.58c4.05-1.01,3.26-5.23,2.19-6.09c-2.06-1.66-5.35-2.55-8.08-2.45
	c-4.6,0.17-5.22,4.32-4.26,7.45c0.52,1.69,3.97,2.48,6.1,3.67c0.24-0.44,0.47-0.88,0.71-1.33c-1.06-1.67-2.13-3.34-3.26-5.11
	C893.03,527.34,893.31,527.51,893.41,533.58z M840.47,534.22c5.27,3.69,9.39,6.57,13.85,9.68
	C855.74,535.83,851.28,532.6,840.47,534.22z"/>
<path d="M720.43,668.94c10.46-3.43,20.28-7.71,30.55-9.65c7.04-1.33,13.58,3.1,18.94,8.11c0.84,0.79,1.55,1.73,2.33,2.61
	c0.62-0.48,1.1-0.72,1.38-1.1c2.96-4.07,6.12-7.62,11.95-5.62c5.49,1.88,10.13,8.23,10.41,13.8c0.45,8.81-2.46,16.74-6.01,24.54
	c-6.66,14.62-7.72,30.56-10.96,46c-2.11,10.01-4.47,20.01-7.39,29.81c-4.44,14.86-9.39,29.58-14.27,44.31
	c-2.38,7.17-5.52,14.12-7.45,21.39c-0.91,3.44-0.15,7.49,0.47,11.15c1.29,7.65,3.44,15.17,4.34,22.85
	c0.46,3.94-0.39,8.32-1.73,12.12c-1.89,5.35-7.24,5.97-9.52,0.9c-3.11-6.94-4.75-14.54-6.85-21.35c-2.98,4.28-6.6,9.81-10.58,15.07
	c-1.97,2.6-4.47,4.83-6.96,6.98c-2.62,2.26-6.96,0.86-8.05-2.52c-2.21-6.87-2.48-13.7,1.55-20.03c6-9.42,6.74-20.04,7.86-31.59
	c-6.22,1.37-10.3,4.53-13.67,8.92c-4.92,6.43-9.61,13.08-14.97,19.14c-2.55,2.89-6.14,5.65-9.74,6.59
	c-3.21,0.84-7.24-0.49-10.65-1.64c-3.58-1.2-4.8-4.6-4.35-8.13c1.11-8.8,5.56-16.37,11.05-22.81c7.12-8.35,12.85-17.52,15.52-27.78
	c5.19-19.93,9.18-40.19,13.08-60.43c0.94-4.87-0.07-10.23-0.78-15.28c-2.17-15.34-5.12-30.58-6.82-45.97
	c-1.24-11.16,3.7-21.29,8.05-31.27c1.34-3.08,6.2-2.39,8.59,1.13c1.11,1.64,2,3.45,2.85,5.25
	C719.42,666.22,720.08,668.08,720.43,668.94z M674.25,859.9c4.83,2.41,8.06,1.86,11.45-2.13c6.35-7.47,12.79-14.88,18.89-22.56
	c3.65-4.61,8.46-6.35,13.88-6.63c6.46-0.34,9.4,3.32,8.47,9.78c-0.38,2.62-0.67,5.25-0.94,7.88c-0.96,9.34-3.06,18.28-8.26,26.33
	c-1.39,2.16-2,4.82-2.96,7.25c2.36-0.24,3.93-0.83,4.7-1.96c6.2-9.18,13.06-18.04,18.1-27.83c5.3-10.29,9.01-21.44,13.06-32.34
	c5.5-14.81,12.56-29.06,15.29-44.89c2.06-11.95,5.09-23.73,7.79-35.57c2.27-9.96,4.35-19.97,7.12-29.8
	c2.19-7.79,5.14-15.38,8.05-22.95c2.07-5.39-1.03-9.2-3.61-13.08c-0.5-0.75-3.71-0.82-4.49-0.04c-1.66,1.66-3.05,3.97-3.66,6.24
	c-3.86,14.36-7.44,28.79-11.26,43.16c-0.32,1.2-1.77,2.1-2.69,3.14c-1.14-1.05-2.95-1.92-3.29-3.18c-0.84-3.15-1.01-6.48-1.65-11.16
	c-3.37,2.1-6.41,3.55-8.91,5.65c-4.46,3.75-12.11,6.84-16.76,1.29c-2.02-2.41-3.82-5-5.72-7.5c2.05-0.31,3.6-0.16,4.78,0.59
	c9.36,5.89,17.91,0.04,26.7-1.83c0.85-0.18,1.71-1.59,2.07-2.6c3.3-9.2,6.5-18.44,9.59-27.28c-2.11-1.96-3.46-3.72-5.24-4.78
	c-3.2-1.91-6.8-4.96-9.94-4.64c-3.44,0.36-6.53,3.99-8.5,5.33c0.73,3.34,2.4,6.93,1.54,7.7c-3.79,3.4-6.67-0.1-8.28-1.56
	c-4.53,0.41-7.91,0.93-11.28,0.92c-1.16-0.01-2.31-1.36-3.46-2.1c0.8-1.21,1.35-2.79,2.47-3.52c1.14-0.74,2.91-0.41,4.24-0.95
	c1.91-0.78,3.67-1.92,5.49-2.9c-0.27-0.44-0.55-0.88-0.82-1.32c-1.54,0.49-3.06,1.02-4.62,1.45c-9.15,2.51-10.17,4.95-7.62,13.69
	c1.49,5.13,1.68,10.68,2.13,16.07c0.33,3.92-3.11,4.52-5.68,4.54c-1.25,0.01-3.39-2.35-3.63-3.88c-1.01-6.36-1.31-12.82-2.13-19.22
	c-0.67-5.21-1.7-10.37-2.76-16.62c-4.72,6.78-6.51,13.11-5.65,19.59c2.19,16.54,5.01,33,7.55,49.49c0.5,3.26,1.56,6.64,1.15,9.8
	c-1.5,11.49-2.92,23.04-5.48,34.32c-3.02,13.3-6.61,26.54-11.07,39.42c-2.38,6.87-6.68,13.23-10.91,19.26
	C682.56,845.03,676.33,851.18,674.25,859.9z M746.46,883.1c0.87-0.13,1.73-0.25,2.6-0.38c-1.17-7.58-2.34-15.15-3.5-22.73
	c-0.58,0.07-1.15,0.13-1.73,0.2C744.7,867.83,745.58,875.47,746.46,883.1z"/>
<path d="M378.69,1163.78c7.69,0,14.41,0,21.14,0c1.33,0,2.73-0.22,3.96,0.13c0.89,0.26,1.56,1.3,2.33,1.99
	c-0.73,0.53-1.46,1.52-2.2,1.53c-10.29,0.11-20.59,0.13-30.88,0.05c-0.79-0.01-2.26-0.97-2.21-1.35c0.12-1,0.67-2.21,1.45-2.82
	c3.66-2.85,7.57-5.4,11.18-8.31c2.57-2.07,4.69-4.69,7.23-6.8c1.08-0.9,2.73-1.12,4.12-1.64c-0.51,1.3-0.68,2.95-1.59,3.84
	C388.83,1154.65,384.25,1158.7,378.69,1163.78z"/>
<path d="M362.08,1165.66c-4.64-1.34-9.54-2.15-13.84-4.2c-3.61-1.72-3.33-6.3,0.4-7.8c7.27-2.93,14.89-3.14,22.38-0.61
	c1.11,0.37,1.78,2.02,2.66,3.08c-1.27,0.08-2.62,0.48-3.81,0.2c-6.72-1.59-13.31-1.44-19.82,0.49c-0.13,0.58-0.27,1.15-0.4,1.73
	c4.58,1.38,9.17,2.77,13.75,4.15C362.96,1163.69,362.52,1164.67,362.08,1165.66z"/>
<path d="M190.17,1078.44c-12.04-2.28-26.87-5.07-41.67-7.93c-1.28-0.25-2.65-0.76-3.65-1.56c-1.01-0.82-2.3-2.23-2.18-3.23
	c0.14-1.14,1.5-2.66,2.66-3.06c3.91-1.34,8.03-2.06,11.96-3.35c16.14-5.32,33.13-5.89,49.65-9.07c19.33-3.72,38.59-7.84,57.94-11.44
	c13.36-2.49,26.86-4.22,40.24-6.61c7.93-1.42,15.73-3.59,23.63-5.2c13.3-2.71,26.7-4.99,39.95-7.93
	c13.85-3.07,28.48-2.19,41.68-8.71c3.4-1.68,7.68-1.66,11.59-2.21c11.97-1.68,23.95-3.19,35.92-4.9c8.69-1.24,17.31-3.31,26.03-3.81
	c5.48-0.32,11.12,1.4,16.64,2.49c7.36,1.46,14.7,3.03,21.95,4.96c1.51,0.4,3.38,2.47,3.56,3.95c0.15,1.29-1.63,3.84-2.93,4.12
	c-13.05,2.79-26.17,5.19-39.26,7.77c-4.54,0.9-9,2.25-13.57,3c-13.57,2.21-27.22,3.96-40.74,6.42c-8.79,1.59-17.42,4.06-26.11,6.19
	c-11.24,2.76-22.38,6.02-33.71,8.27c-10.32,2.05-20.91,2.67-31.26,4.56c-21.34,3.88-42.64,7.96-63.87,12.36
	c-18.14,3.76-36.09,8.44-54.27,11.99C211.43,1077.23,202.2,1077.33,190.17,1078.44z"/>
<path d="M241.5,1030.5c-6.47,1.24-12.93,2.49-19.4,3.72c-19.03,3.61-38.09,7.09-57.09,10.88c-9.91,1.98-19.68,4.65-29.55,6.79
	c-12.79,2.77-25.55,5.99-38.5,7.66c-5.75,0.74-12.09-1.34-17.88-3.07c-6.25-1.87-12.36-4.49-18.17-7.48
	c-3.19-1.64-5.63-4.73-8.41-7.16c3.11-1.49,6.09-3.79,9.36-4.34c19.43-3.29,38.91-6.33,58.41-9.13c11.74-1.69,23.58-2.62,35.33-4.25
	c7.71-1.07,15.32-2.86,23.01-4.15c10.11-1.7,20.29-2.96,30.35-4.9c10.52-2.03,20.9-4.77,31.4-6.95c6-1.24,12.11-1.93,18.15-2.95
	c10.09-1.71,20.19-3.44,30.26-5.25c14.22-2.54,28.43-5.08,42.62-7.77c5.34-1.01,10.64-3.65,15.9-3.48
	c15.18,0.47,30.34,1.85,45.47,3.23c2.97,0.27,5.95,1.82,8.64,3.3c2.84,1.57,2.93,4.04,0.19,5.89c-2.3,1.55-4.8,3.12-7.44,3.8
	c-11.38,2.9-22.77,5.92-34.31,8.05c-12.02,2.22-24.24,3.27-36.32,5.18c-11.42,1.81-22.76,4.2-34.17,6.09
	c-7.69,1.28-15.46,1.98-23.16,3.22c-8.18,1.32-16.3,2.97-24.44,4.48C241.68,1031.44,241.59,1030.97,241.5,1030.5z"/>
<path d="M361.57,1080.02c-9.19,0-19.65-0.39-30.08,0.1c-12.46,0.59-24.87,2.29-37.32,2.81c-6.72,0.28-13.51-0.81-20.24-1.51
	c-1.18-0.12-2.23-1.39-3.35-2.12c0.98-0.97,1.81-2.46,2.98-2.83c5.49-1.73,11.07-3.22,16.64-4.69c7.91-2.08,15.77-4.45,23.79-5.97
	c11.49-2.18,23.15-3.52,34.67-5.55c13.8-2.43,27.52-5.27,41.3-7.83c7.49-1.39,15.07-2.32,22.53-3.86
	c17.8-3.68,35.51-7.8,53.33-11.36c13.15-2.63,26.46-4.5,39.64-6.98c10.72-2.02,21.33-4.57,32.04-6.62c4.71-0.9,9.59-1.78,14.29-1.4
	c2.38,0.19,5,2.84,6.7,5c4.51,5.72,1.73,14.65-4.87,17.59c-21.31,9.49-44.08,14.13-66.37,20.43c-22.73,6.43-46.05,7.9-69.35,9.85
	C399.57,1076.63,381.25,1078.29,361.57,1080.02z"/>
<path d="M111.59,1021.82c-6.38,0.83-12.8,1.39-19.13,2.53c-10.6,1.92-21.14,4.14-31.68,6.34c-8.42,1.76-16.8,3.69-25.2,5.54
	c-2.84,0.62-5.95,2.25-7.87-1.54c-2.02-3.97-0.34-7.92,2.53-9.85c8.83-5.93,18.04-11.39,28.68-13.68
	c12.42-2.68,24.75-5.88,37.27-7.97c10.76-1.8,21.77-2.12,32.6-3.54c7.16-0.94,14.17-2.92,21.32-3.99
	c12.57-1.87,25.14-3.97,37.79-4.92c15.06-1.12,30.21-1.08,45.32-1.64c15.84-0.59,31.68-1.34,47.53-1.93
	c5.45-0.2,10.92-0.39,16.34-0.05c1.76,0.11,3.42,1.93,5.12,2.97c-1.51,1.03-2.9,2.62-4.56,2.99c-12.26,2.7-24.48,6.52-36.89,7.37
	c-21.76,1.48-42.98,6.23-64.52,8.86c-16.05,1.96-32.09,4.08-48.08,6.46c-10.6,1.58-21.12,3.78-31.67,5.67
	c-1.61,0.29-3.24,0.44-4.87,0.65C111.61,1022.01,111.6,1021.91,111.59,1021.82z"/>
<path d="M829.87,243.01c0.01,5.04-4.3,9.51-9.13,9.48c-5.34-0.04-12.46-7.01-12.53-12.27c-0.07-4.87,5.98-10.15,11.59-10.12
	C824.88,230.13,829.86,236.51,829.87,243.01z M819.99,247.81c2.24-2.89,4.25-4.33,4.45-5.98c0.35-2.88-0.36-6.72-4.12-6.31
	c-1.99,0.21-4.55,3.27-5.12,5.49C814.84,242.42,817.65,244.66,819.99,247.81z"/>
<path d="M832.53,255.86c-1.15-1.93-1.98-3.32-2.82-4.71c1.41-0.62,2.77-1.4,4.23-1.83c8.32-2.47,6.56,4.42,7.98,8.36
	c-2.98,1.32-5.73,2.66-8.59,3.71c-0.72,0.27-2.07-0.1-2.59-0.68c-0.42-0.46-0.27-1.78,0.06-2.51
	C831.27,257.17,832.15,256.34,832.53,255.86z"/>
<path d="M858.9,239.58c-2.99,2.2-4.16,3.72-5.13,3.6c-0.95-0.11-2.49-2.05-2.33-2.91c0.2-1.05,1.81-2.33,2.99-2.55
	C855.49,237.53,856.79,238.64,858.9,239.58z"/>
</svg>
