<?xml version="1.0" encoding="utf-8"?>
<!-- Generator: Adobe Illustrator 23.0.2, SVG Export Plug-In . SVG Version: 6.00 Build 0)  -->
<svg version="1.1" id="Layer_1" xmlns="http://www.w3.org/2000/svg" xmlns:xlink="http://www.w3.org/1999/xlink" x="0px" y="0px"
	 viewBox="0 0 320.23 1375.17" style="enable-background:new 0 0 320.23 1375.17;" xml:space="preserve">
<path d="M39.82,97.93c-8.3-4.71-8.18-4.59-14.78,1.89c-3.5,3.43-7.56,6.29-11.27,9.51c-3.53,3.06-7.44,2.34-11.24,1.1
	c-3.31-1.08-3.35-8.34-0.27-12.25c6-7.64,11.97-15.3,18.25-23.33C14.18,69.31,9.96,61.29,7.64,52.46
	c-1.81-6.88-0.52-13.86,2.52-20.3c2.95-6.25,3.67-12.61,2.4-19.39c-0.36-1.92,0.57-4.09,0.91-6.17c6.69,2.94,12.41,5.45,17.53,7.71
	C42.53,6.46,54.53,4.5,67.61,6.95c2.14,0.4,5.09-0.73,6.95-2.11c9.29-6.89,9.04-6.9,15.31,3.12c8.26,13.2,16.54,26.4,25.35,39.23
	c5.05,7.35,11.47,13.74,16.72,20.96c6.32,8.69,7.83,18.93,9.27,29.43c2,14.57-0.48,28.78-1.67,43.08
	c-0.55,6.63-2.85,13.12-4.39,19.81c9.12,1.28,17.67,3.71,25.51,8.93c6.02,4,13.32,6.1,19.26,10.18c4.86,3.34,9.34,7.87,12.53,12.81
	c2.16,3.34,3.54,2.91,6.12,1.76c6.24-2.77,7.29-2.81,9.01,3.54c3.84,14.16,7.15,28.47,10.18,42.83c1.53,7.25-3.46,12.42-7.3,17.84
	c-0.88,1.24-1.38,3.03-1.37,4.56c0.02,8.9-0.64,17.52-6.58,24.86c-2.29,2.83-5.28,5.34-8.39,3.39c-2.7-1.69-4.84-5.2-5.87-8.35
	c-0.98-2.99-0.21-6.55-0.21-10.41c-14.59,4.11-25.45-3.46-36.66-10.47c0.93,3.61,2.42,7.09,2.63,10.65
	c0.35,6.24,0.71,12.68-0.52,18.72c-0.63,3.09-4.25,6.61-7.34,7.82c-2.23,0.87-6.84-0.91-8.58-3.01c-2.93-3.54-4.49-8.25-6.5-12.52
	c-0.68-1.44-0.99-3.06-1.97-4.5c-2.19,5.28-0.06,10.11,1.72,14.84c2.58,6.86,6.71,12.46,12.19,17.69c5.25,5.01,7.34,12.47,5.49,20.2
	c-0.96,4.04-3.83,6.74-7.64,6.8c-2.89,0.04-6.93-1.18-8.49-3.29c-4.14-5.62-7.21-12.02-10.22-17.27c0.04-0.49-0.14,0.51-0.1,1.49
	c0.04,0.98,0.33,1.95,0.49,2.93c1.64,10.47,1.24,20.45-5.98,29.17c-5.23,6.31-14.76,6.78-20.36,0.61
	c-5.31-5.86-8.08-12.66-8.24-20.72c-0.24-12.32-2.96-24.08-9.26-34.87c-1.99-3.41-3.62-7.04-5.92-11.56
	c-2.01,2.69-4.33,5.1-5.86,7.95c-5.07,9.43-7.56,19.62-9.32,30.17c-0.71,4.26-3.69,8.55-6.67,11.91c-3.79,4.27-8.26,2.64-8.68-3.2
	c-0.54-7.39-0.68-14.94,0.23-22.27c1.3-10.46,5.65-19.73,12.03-28.4c3.74-5.08,5.44-11.84,7.22-18.09c0.6-2.11-1.38-4.96-2.31-7.84
	c-1.19,0.71-2.23,1.76-3.38,1.9c-2.15,0.27-4.8,0.72-6.42-0.25c-1.27-0.76-2.13-3.75-1.76-5.45c1.62-7.57,3.61-15.07,5.71-22.52
	c2.14-7.58,4.64-15.07,6.85-22.63c0.49-1.69,0.44-3.53,0.77-6.46c-6.98,4.24-11.05,9.54-14.41,15.65
	c-6.97,12.66-15.91,23.77-27.36,32.64c-2.21,1.71-5.38,3.01-8.13,3.05c-6.33,0.09-10.26-6.16-8.44-13.07
	c2.24-8.49,6.52-15.66,13.52-21.35c8.64-7.01,14.6-16.11,18.24-26.65c3.43-9.95,7.95-19.72,9.83-29.96
	c2.37-12.95,2.82-26.28,3.51-39.48c0.27-5.18-2.99-6.79-8.16-6.4c-2.24,0.17-5.02-0.99-6.74-2.49c-0.76-0.67,0.05-3.91,0.95-5.54
	C35.61,103.38,37.84,100.73,39.82,97.93z M106.8,344.46c3.62-5.21,4.75-10.86,3.97-17.07c-0.91-7.24-1.88-14.5-2.24-21.77
	c-0.44-8.99,0.62-18.14-0.63-26.98c-1.32-9.34,1.19-17.84,3.54-26.34c1.06-3.85,4.91-7.1,7.99-10.12c0.89-0.87,4.16-0.74,5.18,0.19
	c4.66,4.27,8.66,9.12,9.27,15.86c0.39,4.3,0.37,8.7,1.37,12.86c1.38,5.77,1.26,12.28,6.65,16.47c2.14,1.66,4.32,1.74,4.96-1.13
	c0.75-3.35,1.51-7.06,0.82-10.3c-2.28-10.74-3.82-21.86-12.62-30.05c-1.36-1.27-0.84-4.56-1.19-6.91c2.02,0.62,4.4,0.75,5.99,1.94
	c9.95,7.47,19.59,15.29,31.61,19.5c13.35,4.67,25.84,1.85,34.77-8.39c-9.03-2.46-14.34-8.46-12.59-15.36
	c0.75-2.95,3.15-6.05,5.68-7.82c2.5-1.74,6.12-1.89,10.01-2.94c-2.05-7.49-4.28-15.61-6.82-24.89c-2.89,3.27-5.24,5.4-6.89,7.97
	c-1.51,2.35-3.22,5.22-5.85,3.86c-3.25-1.68-1.71-4.8,0.03-7.28c0.12-0.17-0.11-0.58-0.09-0.5c-9.04-7.06-18.37-4.54-27.98-2.42
	c2.18,4.8,3.99,8.81,6.12,13.51c-9.05,1.39-7.89-8.29-13.34-9.46c-1.54,4.83-3.07,9.63-4.62,14.51c-3.11-1.63-4.95-2.77-6.93-3.57
	c-1.16-0.47-2.53-0.4-3.8-0.57c0.25-1.4,0.06-3.13,0.82-4.16c3.58-4.85,7.39-9.53,11.2-14.2c0.6-0.74,1.53-1.47,2.43-1.68
	c4.23-1,8.47-2.09,12.77-2.64c5.77-0.74,11.59-1.02,18.91-1.61c-3.11-2.73-5.01-5.03-7.44-6.43c-6.74-3.89-13.9-7.06-20.5-11.14
	c-8.44-5.21-16.68-10.46-27.2-6.88c-6.65,2.26-14.22,3.41-19.64,7.41c-15.83,11.67-30,25.34-38.58,43.46
	c-6.19,13.07-7.99,27.31-3.1,40.94c3.23,9,10.03,16.64,14.45,25.3c4.27,8.37,8.21,17.05,11.03,25.99
	c2.22,7.03,2.06,14.77,3.81,21.99C99.23,338.13,100.22,343.65,106.8,344.46z M66.79,272.94c-4.67,7.84-9.46,15.37-13.72,23.18
	c-3.12,5.73-5.5,21.83-4.05,26.43c0.96-3.29,1.68-5.78,2.4-8.26c3.88-13.3,7.62-26.67,18.67-36.58c-0.51-0.98-1.05-2.18-1.73-3.28
	C68.02,273.89,67.41,273.52,66.79,272.94z M46.19,46.04c2.08,2.84,5.27,4.03,9.67,2.68c1.6-0.49,3.4-2.21,3.98-3.79
	c1.35-3.61-3.78-9.84-8.86-10.88c-5.44-1.11-3.49,3.83-4.71,6.16c-0.21,0.39-0.13,0.94-0.14,1c1.78-0.15,3.5-0.38,5.22-0.33
	c0.17,0.01,0.68,2.33,0.38,2.52C50.09,44.42,48.25,45.11,46.19,46.04z M14.14,42.68c2.72,1.76,4.32,2.8,5.92,3.84
	c-1.32,1.76-2.65,3.51-3.97,5.27c-0.44-0.18-0.87-0.37-1.31-0.55c0.52,1.94,1.05,3.88,1.65,6.12c2.06-1.44,3.69-2.54,5.28-3.7
	c0.8-0.58,1.54-1.26,2.28-1.91c3.92-3.47,3.6-6.96-1.05-8.99c-2.05-0.89-4.41-1.29-6.66-1.44C15.39,41.26,14.42,42.49,14.14,42.68z
	 M210.03,244.61c0-2.95-0.08-5.69,0.02-8.44c0.11-2.98-1.36-3.72-4.04-3.3c-2.92,0.45-6.3,4.53-5.98,7.41
	C200.45,244.1,203.71,245.66,210.03,244.61z M203.15,267.23c-0.47-0.33-0.95-0.65-1.42-0.98c-2.24,1.85-5.67,3.3-6.44,5.64
	c-1.02,3.08,0.05,6.85,0.22,10.32c0.84,0.08,1.69,0.15,2.53,0.23C199.74,277.36,201.45,272.3,203.15,267.23z"/>
<path d="M294.59,547.5c-3.43,6.91-7.15,13.69-10.23,20.75c-4.2,9.64-6.99,20.01-12.12,29.08c-3.7,6.53-4.06,13.16-5.52,19.94
	c-1.09,5.05-4.41,9.58-6.2,14.53c-0.99,2.73-1.43,5.91-1.15,8.79c0.88,9.33,3.04,18.62,2.99,27.92c-0.02,4.15-3.45,8.93-6.59,12.22
	c-2.98,3.13-6.42,0.3-8.82-2.4c-6.3-7.06-9.73-15.26-9.62-24.83c0.03-2.48,0-4.96,0-7.78c-10.48,2.18-19.17-3.25-28.57-5.17
	c-3.15,6.2-5.82,12.69-9.59,18.45c-2.83,4.32-6.77,8.1-10.79,11.41c-3.31,2.72-8.19-0.3-7.79-5.31c0.69-8.53,1.09-17.54,4.2-25.31
	c3.59-8.98,3.49-17.21,1.99-26.33c-1.44-8.72-3.2-17.32-5.35-25.87c-0.46-1.84-1.27-4.42,2.27-4.68c0.46-0.03,1.05-0.89,1.25-1.48
	c2.12-6.4,7.29-9.6,12.77-12.6c1.09-0.6,2.15-1.93,2.48-3.13c2.98-10.94,5.47-22.03,8.73-32.89c5.2-17.33,15-32.34,25.45-46.83
	c3.58-4.96,9-8.55,13.29-13.04c1.17-1.23,2-3.51,1.82-5.19c-1.23-11.6-2.87-23.16-4.17-34.76c-0.59-5.27-0.82-10.58-1-15.88
	c-0.26-7.49,1.51-14.34,6.41-20.3c3.15-3.82,5.83-8.02,8.8-12c4.58-6.13,11-5.72,14.16,1.04c2.29,4.92,3.64,9.79-0.9,14.6
	c-5.33,5.65-6,12.98-6.58,20.36c-1.22,15.61,0.03,30.95,4.01,46.1c0.85,3.25,2.37,4.62,5.84,5.54c13.46,3.57,26.27,8.98,33.15,22.05
	c6.12,11.63,9.92,24.2,10.2,37.57c0.23,10.71,0.57,21.42,0.82,32.13c0.15,6.29-3.73,10.61-7.98,14.27
	c-3.11,2.68-8.82-0.08-11.64-4.68c-3.1-5.06-3.54-10.56-3.37-16.29c0.09-3.22-0.4-6.46-0.63-9.69
	C295.94,547.71,295.27,547.61,294.59,547.5z M249.77,620.34c4.05-1.01,3.26-5.23,2.19-6.09c-2.06-1.66-5.35-2.55-8.08-2.45
	c-4.6,0.17-5.22,4.32-4.26,7.45c0.52,1.69,3.97,2.48,6.1,3.67c0.24-0.44,0.47-0.88,0.71-1.33c-1.06-1.67-2.13-3.34-3.26-5.11
	C249.39,614.1,249.67,614.27,249.77,620.34z M196.83,620.98c5.27,3.69,9.39,6.57,13.85,9.68
	C212.1,622.59,207.64,619.36,196.83,620.98z"/>
<path d="M68.13,880.88c10.46-3.43,20.28-7.71,30.55-9.65c7.04-1.33,13.58,3.1,18.94,8.11c0.84,0.79,1.55,1.73,2.33,2.61
	c0.62-0.48,1.1-0.72,1.38-1.1c2.96-4.07,6.12-7.62,11.95-5.62c5.49,1.88,10.13,8.23,10.41,13.8c0.45,8.81-2.46,16.74-6.01,24.54
	c-6.66,14.62-7.72,30.56-10.96,46c-2.11,10.01-4.47,20.01-7.39,29.81c-4.44,14.86-9.39,29.58-14.27,44.31
	c-2.38,7.17-5.52,14.12-7.45,21.39c-0.91,3.44-0.15,7.49,0.47,11.15c1.29,7.65,3.44,15.17,4.34,22.85
	c0.46,3.94-0.39,8.32-1.73,12.12c-1.89,5.35-7.24,5.97-9.52,0.9c-3.11-6.94-4.75-14.54-6.85-21.35c-2.98,4.28-6.6,9.81-10.58,15.07
	c-1.97,2.6-4.47,4.83-6.96,6.98c-2.62,2.26-6.96,0.86-8.05-2.52c-2.21-6.87-2.48-13.7,1.55-20.03c6-9.42,6.74-20.04,7.86-31.59
	c-6.22,1.37-10.3,4.53-13.67,8.92c-4.92,6.43-9.61,13.08-14.97,19.14c-2.55,2.89-6.14,5.65-9.74,6.59
	c-3.21,0.84-7.24-0.49-10.65-1.64c-3.58-1.2-4.8-4.6-4.35-8.13c1.11-8.8,5.56-16.37,11.05-22.81c7.12-8.35,12.85-17.52,15.52-27.78
	c5.19-19.93,9.18-40.19,13.08-60.43c0.94-4.87-0.07-10.23-0.78-15.28c-2.17-15.34-5.12-30.58-6.82-45.97
	c-1.24-11.16,3.7-21.29,8.05-31.27c1.34-3.08,6.2-2.39,8.59,1.13c1.11,1.64,2,3.45,2.85,5.25
	C67.12,878.16,67.78,880.02,68.13,880.88z M21.95,1071.84c4.83,2.41,8.06,1.86,11.45-2.13c6.35-7.47,12.79-14.88,18.89-22.56
	c3.65-4.61,8.46-6.35,13.88-6.63c6.46-0.34,9.4,3.32,8.47,9.78c-0.38,2.62-0.67,5.25-0.94,7.88c-0.96,9.34-3.06,18.28-8.26,26.33
	c-1.39,2.16-2,4.82-2.96,7.25c2.36-0.24,3.93-0.83,4.7-1.96c6.2-9.18,13.06-18.04,18.1-27.83c5.3-10.29,9.01-21.44,13.06-32.34
	c5.5-14.81,12.56-29.06,15.29-44.89c2.06-11.95,5.09-23.73,7.79-35.57c2.27-9.96,4.35-19.97,7.12-29.8
	c2.19-7.79,5.14-15.38,8.05-22.95c2.07-5.39-1.03-9.2-3.61-13.08c-0.5-0.75-3.71-0.82-4.49-0.04c-1.66,1.66-3.05,3.97-3.66,6.24
	c-3.86,14.36-7.44,28.79-11.26,43.16c-0.32,1.2-1.77,2.1-2.69,3.14c-1.14-1.05-2.95-1.92-3.29-3.18c-0.84-3.15-1.01-6.48-1.65-11.16
	c-3.37,2.1-6.41,3.55-8.91,5.65c-4.46,3.75-12.11,6.84-16.76,1.29c-2.02-2.41-3.82-5-5.72-7.5c2.05-0.31,3.6-0.16,4.78,0.59
	c9.36,5.89,17.91,0.04,26.7-1.83c0.85-0.18,1.71-1.59,2.07-2.6c3.3-9.2,6.5-18.44,9.59-27.28c-2.11-1.96-3.46-3.72-5.24-4.78
	c-3.2-1.91-6.8-4.96-9.94-4.64c-3.44,0.36-6.53,3.99-8.5,5.33c0.73,3.34,2.4,6.93,1.54,7.7c-3.79,3.4-6.67-0.1-8.28-1.56
	c-4.53,0.41-7.91,0.93-11.28,0.92c-1.16-0.01-2.31-1.36-3.46-2.1c0.8-1.21,1.35-2.79,2.47-3.52c1.14-0.74,2.91-0.41,4.24-0.95
	c1.91-0.78,3.67-1.92,5.49-2.9c-0.27-0.44-0.55-0.88-0.82-1.32c-1.54,0.49-3.06,1.02-4.62,1.45c-9.15,2.51-10.17,4.95-7.62,13.69
	c1.49,5.13,1.68,10.68,2.13,16.07c0.33,3.92-3.11,4.52-5.68,4.54c-1.25,0.01-3.39-2.35-3.63-3.88c-1.01-6.36-1.31-12.82-2.13-19.22
	c-0.67-5.21-1.7-10.37-2.76-16.62c-4.72,6.78-6.51,13.11-5.65,19.59c2.19,16.54,5.01,33,7.55,49.49c0.5,3.26,1.56,6.64,1.15,9.8
	c-1.5,11.49-2.92,23.04-5.48,34.32c-3.02,13.3-6.61,26.54-11.07,39.42c-2.38,6.87-6.68,13.23-10.91,19.26
	C30.26,1056.97,24.03,1063.12,21.95,1071.84z M94.16,1095.04c0.87-0.13,1.73-0.25,2.6-0.38c-1.17-7.58-2.34-15.15-3.5-22.73
	c-0.58,0.07-1.15,0.13-1.73,0.2C92.4,1079.77,93.28,1087.41,94.16,1095.04z"/>
<path d="M180.97,243.02c0.01,5.04-4.3,9.51-9.13,9.48c-5.34-0.04-12.46-7.01-12.53-12.27c-0.07-4.87,5.98-10.15,11.59-10.12
	C175.98,230.14,180.96,236.52,180.97,243.02z M171.09,247.82c2.24-2.89,4.25-4.33,4.45-5.98c0.35-2.88-0.36-6.72-4.12-6.31
	c-1.99,0.21-4.55,3.27-5.12,5.49C165.94,242.43,168.75,244.67,171.09,247.82z"/>
<path d="M183.63,255.87c-1.15-1.93-1.98-3.32-2.82-4.71c1.41-0.62,2.77-1.4,4.23-1.83c8.32-2.47,6.56,4.42,7.98,8.36
	c-2.98,1.32-5.73,2.66-8.59,3.71c-0.72,0.27-2.07-0.1-2.59-0.68c-0.42-0.46-0.27-1.78,0.06-2.51
	C182.37,257.18,183.25,256.35,183.63,255.87z"/>
<path d="M192.94,1283.74c0.22-5.79,0.71-11.63,0.6-17.35c-0.15-7.82-1.65-15.45-0.88-23.33c0.56-5.68-1.5-9.92-2.77-14.75
	c-0.94-3.6,0.04-7.87-0.33-11.72c-0.2-2.12-0.98-4.28-2.22-5.93c-3.99-5.36-8.95-10.12-12.2-15.88c-1.45-2.57-0.48-7.04,0.8-10.47
	c1.21-3.26,4.88-3.05,7.7-2.45c7.39,1.54,12.96,5.07,16.26,11.01c0.85,1.54,1.76,3.06,2.75,4.8c7.37-6.02,16.04-6.55,24.02-9.55
	c0.25-5.23,0.03-10.42,0.92-15.65c0.67-3.92,2.39-8.01,4.34-11.85c1.61-3.15,6.47-3.47,7.93-0.2c2.48,5.57,5.36,11.3,5.69,17.47
	c0.39,7.14,3.38,12.16,7.77,17.12c4.2,4.73,8.61,9.25,13.31,13.56c1.01,0.93,2.55,2.16-0.11,3.9c-0.35,0.22-0.5,1.02-0.45,1.47
	c0.62,4.89-2.27,9.17-5.46,13.46c-0.63,0.86-0.99,2.15-0.82,3.04c1.56,8.07,3.55,16.02,4.86,24.17c2.09,13-0.21,26.62-3.2,40.22
	c-1.03,4.65-3.97,9.28-5.71,13.96c-0.47,1.28-0.31,3.06,0.42,4.01c5.06,6.6,10.43,13,15.54,19.57c2.32,2.99,4.38,6.16,6.4,9.34
	c2.85,4.5,3.9,9.51,2.2,15.37c-1.1,3.76-1.69,7.54-2.59,11.32c-1.39,5.82-6.52,8.43-11.37,5.67c-3.52-2.01-6.29-4.41-4.47-9.4
	c2.14-5.86,0.07-10.68-2.09-15.48c-4.58-10.17-10.98-19.06-19.43-26.63c-1.81-1.62-3.48-1.79-6.5-0.81
	c-11.72,3.8-23.59,6.18-33.55,1.19c-8.87-4.44-16.27-10.49-21.22-18.61c-3.97-6.5-8.02-12.95-12.01-19.44
	c-2.34-3.81-0.86-8.2,1.15-12.35c1.47-3.04,6.88-3.88,10.7-2.31c4.2,1.74,6.49,4.93,8.38,8.54c1.07,2.02,2.6,3.8,3.92,5.69
	C191.82,1284.22,192.37,1283.98,192.94,1283.74z M201.98,1218.86c-2.79,2.43-0.68,4.68,0.45,4.73c2.19,0.1,5.06-0.81,7.14-2.09
	c3.51-2.16,2.53-4.99,0.67-6.49c-1-0.81-3.96,0.24-6.04,0.46c-0.03,0.38-0.05,0.75-0.08,1.14c1.41,0.56,2.84,1.11,4.34,1.7
	C204.49,1222.53,204.21,1222.55,201.98,1218.86z M242.88,1194.85c-5.4,0.08-9.62,0.14-14.18,0.21
	C230.45,1200.67,235.06,1200.67,242.88,1194.85z"/>
</svg>
