<?xml version="1.0" encoding="utf-8"?>
<!-- Generator: Adobe Illustrator 23.0.2, SVG Export Plug-In . SVG Version: 6.00 Build 0)  -->
<svg version="1.1" id="Layer_1" xmlns="http://www.w3.org/2000/svg" xmlns:xlink="http://www.w3.org/1999/xlink" x="0px" y="0px"
	 viewBox="0 0 752.43 682.96" style="enable-background:new 0 0 752.43 682.96;" xml:space="preserve">
<path d="M736.73,644.21c-5.93,8.06-10.93,16.43-17.51,23.26c-4.51,4.68-11.72,4.76-18.36,3.77c-1.05-0.16-2.07-0.49-3.12-0.75
	c-0.2,0.69-0.43,1.12-0.44,1.55c-0.03,4.62-0.48,8.95-5.86,10.49c-5.07,1.45-11.89-0.92-15.07-4.98
	c-5.02-6.42-7.09-13.93-8.61-21.67c-2.85-14.52-10.55-27.11-16.37-40.46c-3.77-8.66-7.34-17.44-10.39-26.37
	c-4.63-13.54-8.79-27.24-13.01-40.92c-2.06-6.66-3.43-13.54-5.87-20.05c-1.16-3.08-3.88-5.73-6.29-8.18
	c-5.03-5.1-10.63-9.66-15.39-14.99c-2.44-2.73-4.14-6.49-5.17-10.06c-1.45-5.03,2.19-8.3,6.58-5.65c6,3.61,11.26,8.5,16.45,12.54
	c-0.07-4.79-0.33-10.86-0.18-16.91c0.07-2.99,0.74-5.99,1.44-8.91c0.74-3.08,4.7-4.29,7.31-2.31c5.3,4.03,9.13,9.05,9.52,15.94
	c0.57,10.25,5.68,18.66,11,27.96c3.88-4.29,5.23-8.81,5.38-13.88c0.22-7.43,0.16-14.9,0.91-22.27c0.35-3.52,1.54-7.47,3.72-10.07
	c1.94-2.31,5.63-3.42,8.77-4.33c3.29-0.96,6,0.96,7.56,3.87c3.86,7.22,4.59,15.27,3.95,23c-0.83,10.02-0.2,19.94,3.29,29.09
	c6.76,17.76,14.6,35.14,22.48,52.46c1.9,4.17,5.5,7.69,8.71,11.13c9.78,10.45,20.08,20.42,29.54,31.14
	c6.86,7.78,8.59,18.01,10.68,27.82c0.64,3.03-3.33,5.04-6.97,3.64c-1.7-0.66-3.32-1.56-4.91-2.47
	C738.92,645.74,737.44,644.68,736.73,644.21z M669.27,475.88c-4.87,0.71-6.96,2.81-7.35,7.6c-0.73,8.96-1.56,17.92-1.99,26.91
	c-0.26,5.39-2.89,9.22-6.76,12.27c-4.61,3.63-8.74,2.41-11.49-2.96c-1.11-2.17-2.3-4.31-3.5-6.44c-4.26-7.55-7.46-15.41-7.9-24.2
	c-0.12-2.36-1.09-4.68-1.67-7.02c-1.62,1.42-2.48,2.68-2.44,3.94c0.3,10.17-0.08,20.45,1.4,30.48c1.55,10.54,4.74,20.9,7.54,31.25
	c3.81,14.06,6.16,28.51,12.57,41.89c4.84,10.1,8.86,20.58,13.17,30.93c3.62,8.7,7.41,17.36,10.59,26.22
	c2.52,7.03,4.38,14.3,6.25,21.53c1.33,5.15,5.66,6.41,9.64,7.99c0.77,0.31,3.19-1.32,3.35-2.32c0.34-2.12,0.15-4.59-0.61-6.63
	c-4.78-12.86-9.82-25.63-14.63-38.48c-0.4-1.07,0.19-2.51,0.32-3.78c1.4,0.19,3.21-0.1,4.13,0.68c2.3,1.94,4.2,4.36,7.16,7.57
	c1.38-3.35,2.86-6.04,3.59-8.93c1.31-5.17,5.34-11.5,11.74-9.74c2.78,0.76,5.49,1.78,8.24,2.68c-1.36,1.31-2.59,2-3.86,2.06
	c-10.07,0.45-13.3,9.33-18.82,15.34c-0.53,0.58-0.42,2.09-0.15,3.05c2.45,8.67,5,17.32,7.42,25.62c2.61,0.38,4.55,1,6.42,0.87
	c3.38-0.23,7.69,0.19,9.84-1.69c2.36-2.07,2.72-6.43,3.46-8.47c-2.32-2.14-5.47-3.98-5.24-5.01c1-4.55,5-3.41,6.97-3.15
	c3.14-2.68,5.37-4.84,7.88-6.59c0.86-0.6,2.43-0.18,3.68-0.23c0.05,1.33,0.48,2.82,0.04,3.94c-0.45,1.15-1.94,1.83-2.64,2.93
	c-1,1.58-1.7,3.36-2.53,5.06c0.44,0.19,0.87,0.38,1.31,0.56c0.88-1.17,1.73-2.38,2.65-3.51c5.45-6.67,4.9-9.05-1.64-14.32
	c-3.84-3.09-6.93-7.19-10.14-11.02c-2.33-2.78-0.09-5.04,1.79-6.4c0.92-0.66,3.76,0,4.76,1.03c4.13,4.27,7.8,9,11.82,13.4
	c3.27,3.58,6.78,6.94,10.9,11.11c-0.11-7.59-2.15-13.3-6.24-17.75c-10.43-11.34-21.29-22.29-31.95-33.42
	c-2.11-2.2-4.69-4.2-6.07-6.8c-5.01-9.46-10.1-18.93-14.21-28.78c-4.85-11.62-9.23-23.5-12.78-35.55
	c-1.89-6.43-2.09-13.48-2.16-20.25C671.03,491.44,672.38,483.54,669.27,475.88z M603.38,496.11c-0.57,0.55-1.15,1.1-1.72,1.65
	c4.9,5.11,9.8,10.22,14.7,15.33c0.39-0.35,0.78-0.7,1.18-1.06C612.82,506.72,608.1,501.42,603.38,496.11z"/>
<path d="M10.07,613.34c0.27,6.58-0.1,13.03,1.02,19.15c0.77,4.19,4.87,6.73,9.05,8.47c0.66,0.27,1.38,0.44,2.08,0.65
	c-0.15,0.46-0.19,0.78-0.35,1.03c-1.77,2.61-3.19,5.21-0.7,7.93c2.34,2.57,7.17,3.59,10.56,2.4c5.36-1.88,9.46-5.39,13.33-9.23
	c7.26-7.19,16.55-11.62,25.05-17.13c5.51-3.57,10.96-7.28,16.17-11.26c7.9-6.03,15.59-12.3,23.3-18.54
	c3.76-3.04,7.21-6.44,11.13-9.26c1.85-1.33,4.44-1.89,6.77-2.43c4.86-1.13,9.83-1.76,14.62-3.12c2.46-0.7,4.89-2.22,6.86-3.88
	c2.78-2.33,1.96-5.43-1.58-5.46c-4.84-0.04-9.74,0.89-14.28,1.37c1.9-2.67,4.4-6,6.65-9.46c1.11-1.71,1.89-3.63,2.62-5.51
	c0.77-1.99-1.03-4.04-3.29-3.82c-4.6,0.44-8.74,1.94-11.62,5.69c-4.3,5.58-10.48,8.54-17.13,11.94c-0.56-3.75,0.42-6.76,2.3-9.68
	c2.75-4.26,5.68-8.45,8.11-12.85c1.16-2.1,2.01-4.74,1.77-6.95c-0.21-1.97-1.9-3.87-3.34-5.47c-1.51-1.68-3.81-1.53-5.83-0.43
	c-5.01,2.73-8.55,7.01-11.17,11.58c-3.41,5.93-7.61,11.3-13.15,15.24c-10.75,7.66-21.97,14.74-33.2,21.77
	c-2.7,1.69-6.13,2.43-9.3,3.25c-9.65,2.5-19.41,4.55-28.98,7.32c-6.94,2.01-11.9,7.17-16.9,11.97c-1.54,1.48-0.05,3.99,2.58,4.46
	c1.23,0.22,2.51,0.27,3.77,0.3C8.22,613.44,9.48,613.36,10.07,613.34z"/>
</svg>
