<?xml version="1.0" encoding="utf-8"?>
<!-- Generator: Adobe Illustrator 23.0.2, SVG Export Plug-In . SVG Version: 6.00 Build 0)  -->
<svg version="1.1" id="Layer_1" xmlns="http://www.w3.org/2000/svg" xmlns:xlink="http://www.w3.org/1999/xlink" x="0px" y="0px"
	 viewBox="0 0 127.86 82.76" style="enable-background:new 0 0 127.86 82.76;" xml:space="preserve">
<path d="M7.48,40.61C6.4,34.68,4.82,29.05,4.51,23.33c-0.21-3.92,2.58-7.19,5.59-9.77c0.47-0.41,1.02-0.73,1.54-1.09
	c-0.21-0.37-0.3-0.65-0.49-0.83C9.21,9.76,7.55,7.8,9.01,4.76c1.37-2.86,5.04-4.96,8-4.74c4.68,0.35,8.66,2.46,12.52,4.92
	c7.25,4.61,15.58,6.25,23.49,9.05c5.13,1.82,10.24,3.77,15.2,6.02c7.53,3.41,14.94,7.09,22.37,10.74c3.62,1.77,7.06,3.95,10.76,5.49
	c1.75,0.73,3.94,0.58,5.91,0.49c4.12-0.19,8.24-0.86,12.35-0.83c2.11,0.01,4.36,0.77,6.27,1.76c2.69,1.39,2.65,4.34-0.19,5.24
	c-3.87,1.23-8,1.61-11.73,2.3c2.05,1.91,4.72,4.25,7.21,6.77c1.23,1.24,2.24,2.76,3.2,4.26c1.01,1.58-0.03,3.85-1.88,4.21
	c-3.78,0.74-7.39,0.43-10.45-2.19c-4.55-3.9-10.1-5.01-16.11-6.39c0.29,3.48,1.67,5.91,3.76,8.04c3.05,3.11,6.23,6.11,9.05,9.43
	c1.35,1.58,2.55,3.72,2.8,5.75c0.22,1.81-0.76,3.91-1.6,5.69c-0.88,1.87-2.76,2.3-4.59,1.82c-4.56-1.2-8.25-4.13-11.26-7.55
	c-3.91-4.43-8.35-8.17-13.57-10.31c-10.15-4.16-20.55-7.69-30.95-11.17c-2.5-0.84-5.4-0.65-8.11-0.6
	c-8.24,0.15-16.48,0.74-24.7,0.64c-5.97-0.07-10.97-3.44-15.93-6.48c-1.53-0.94-0.83-3.54,1.19-4.6c0.94-0.5,1.96-0.86,2.96-1.2
	C5.98,40.98,7,40.74,7.48,40.61z M104.95,78.55c1.61-2.47,1.54-4.26-0.33-6.38c-3.5-3.96-6.96-7.96-10.59-11.8
	c-2.18-2.3-2.76-5.03-2.54-8c0.27-3.54,2.4-4.9,5.74-3.96c1.35,0.38,2.72,0.72,4.09,1.04c4.86,1.15,9.43,2.89,13.31,6.26
	c1.04,0.9,2.4,1.41,3.62,2.1c0.04-1.3-0.16-2.2-0.71-2.69c-4.41-3.99-8.61-8.32-13.42-11.72c-5.06-3.58-10.68-6.34-16.14-9.28
	c-7.43-3.99-14.45-8.79-22.61-11.33c-6.16-1.92-12.16-4.36-18.21-6.62c-5.09-1.9-10.23-3.71-15.21-5.87
	C28,8.57,24.2,6.46,20.42,4.37c-2.7-1.49-4.92-0.06-7.14,1.09c-0.43,0.22-0.69,1.96-0.33,2.44c0.76,1.01,1.88,1.93,3.04,2.41
	c7.3,3.07,14.66,5.98,21.97,9.02c0.61,0.25,0.99,1.1,1.47,1.67c-0.63,0.55-1.21,1.48-1.9,1.58c-1.72,0.25-3.49,0.12-6,0.15
	c0.88,1.98,1.43,3.73,2.36,5.23c1.67,2.68,2.77,7.05-0.48,9.21c-1.41,0.94-2.9,1.75-4.35,2.61c-0.02-1.14,0.17-1.97,0.64-2.57
	c3.75-4.7,1.26-9.75,0.88-14.66c-0.04-0.48-0.72-1.04-1.23-1.3c-4.62-2.42-9.27-4.77-13.72-7.05c-1.18,1.02-2.2,1.64-2.88,2.53
	c-1.23,1.61-3.09,3.37-3.13,5.1c-0.05,1.89,1.65,3.82,2.22,4.99c1.81-0.18,3.82-0.84,4.17-0.32c1.53,2.29-0.51,3.62-1.39,4.4
	c-0.1,2.5-0.05,4.37-0.3,6.2c-0.08,0.63-0.88,1.17-1.35,1.74c-0.58-0.52-1.38-0.92-1.68-1.58c-0.31-0.67-0.01-1.61-0.21-2.37
	c-0.28-1.09-0.76-2.13-1.15-3.18c-0.25,0.12-0.5,0.24-0.75,0.36c0.15,0.87,0.33,1.74,0.44,2.61c0.69,5.15,1.91,5.87,6.69,5.07
	c2.81-0.47,5.75-0.2,8.62-0.08c2.09,0.08,2.16,2,2,3.4c-0.08,0.68-1.47,1.69-2.29,1.72c-3.42,0.12-6.85-0.14-10.28-0.13
	c-2.79,0.02-5.58,0.23-8.95,0.39c3.25,3.02,6.46,4.42,9.94,4.39c8.87-0.08,17.74-0.52,26.61-0.8c1.75-0.05,3.61-0.41,5.25,0.03
	c5.95,1.58,11.94,3.14,17.71,5.28c6.8,2.53,13.53,5.38,20.01,8.67c3.46,1.76,6.51,4.52,9.4,7.23
	C97.69,73.03,100.5,76.83,104.95,78.55z M122.18,40.78c-0.01-0.48-0.01-0.96-0.02-1.44c-4.08,0.13-8.15,0.26-12.23,0.38
	c0,0.32-0.01,0.64-0.01,0.96C114.01,40.72,118.09,40.75,122.18,40.78z"/>
</svg>
