<?xml version="1.0" encoding="utf-8"?>
<!-- Generator: Adobe Illustrator 23.0.2, SVG Export Plug-In . SVG Version: 6.00 Build 0)  -->
<svg version="1.1" id="Layer_1" xmlns="http://www.w3.org/2000/svg" xmlns:xlink="http://www.w3.org/1999/xlink" x="0px" y="0px"
	 viewBox="0 0 488.33 62.35" style="enable-background:new 0 0 488.33 62.35;" xml:space="preserve">
<style type="text/css">
	.st0{fill:#E3E3E3;}
	.st1{fill:#E41E27;}
</style>
<g>
	<path d="M83.83,55.15c-4.06,0-7.07-1.05-8.96-3.11c-1.88-2.05-2.83-5.15-2.83-9.19v-23.4c0-3.82,1.02-6.93,3.04-9.25
		c2.02-2.34,4.98-3.52,8.8-3.52c2.03,0,3.82,0.32,5.31,0.95c1.51,0.64,2.77,1.53,3.75,2.64c0.98,1.12,1.7,2.47,2.12,4.02
		c0.41,1.5,0.55,3.16,0.43,4.93l-0.03,0.39l-9.17,1.72l-0.02-0.58c-0.04-1.3-0.3-2.39-0.78-3.21c-0.43-0.77-0.96-1.12-1.67-1.12
		c-0.49,0-0.86,0.09-1.12,0.28c-0.3,0.21-0.54,0.46-0.71,0.75c-0.18,0.31-0.31,0.65-0.38,1.01c-0.07,0.42-0.1,0.75-0.1,1.02v23.8
		c0,0.55,0.13,1.07,0.39,1.59c0.2,0.39,0.74,0.59,1.62,0.59c0.73,0,1.3-0.19,1.74-0.58c0.44-0.38,0.65-0.86,0.65-1.46v-6.67h-2.95
		v-8.98h12.41v15.18c0,3.96-1.02,7.02-3.02,9.1C90.33,54.1,87.47,55.15,83.83,55.15z"/>
	<path class="st0" d="M83.88,7.18c1.96,0,3.67,0.3,5.11,0.91s2.63,1.44,3.57,2.51s1.61,2.35,2.01,3.82c0.4,1.47,0.53,3.06,0.41,4.76
		l-8.22,1.54c-0.04-1.38-0.32-2.54-0.85-3.45c-0.52-0.92-1.22-1.37-2.1-1.37c-0.59,0-1.06,0.12-1.41,0.37
		c-0.36,0.25-0.64,0.55-0.85,0.9c-0.21,0.36-0.36,0.75-0.44,1.17c-0.07,0.43-0.11,0.8-0.11,1.11v23.8c0,0.63,0.15,1.23,0.44,1.81
		c0.29,0.58,0.98,0.87,2.07,0.87c0.84,0,1.53-0.23,2.07-0.7c0.54-0.47,0.82-1.08,0.82-1.84v-7.17h-2.95v-7.98h11.41v14.68
		c0,3.84-0.96,6.76-2.88,8.75c-1.92,1.99-4.64,2.98-8.15,2.98c-3.93,0-6.79-0.98-8.59-2.95s-2.7-4.92-2.7-8.85v-23.4
		c0-3.71,0.97-6.68,2.92-8.92C77.39,8.3,80.2,7.18,83.88,7.18 M83.88,6.18c-3.97,0-7.05,1.24-9.18,3.7
		c-2.1,2.41-3.16,5.63-3.16,9.57v23.4c0,4.17,1,7.37,2.96,9.52c1.99,2.17,5.12,3.28,9.33,3.28c3.78,0,6.77-1.11,8.87-3.29
		c2.1-2.17,3.16-5.35,3.16-9.44V28.24v-1h-1H83.45h-1v1v7.98v1h1h1.95v6.17c0,0.46-0.15,0.8-0.48,1.09
		c-0.35,0.31-0.81,0.45-1.41,0.45c-0.63,0-1.08-0.12-1.18-0.32c-0.23-0.45-0.33-0.9-0.33-1.36v-23.8c0-0.24,0.03-0.55,0.1-0.95
		c0.05-0.27,0.16-0.56,0.32-0.83c0.13-0.22,0.32-0.42,0.56-0.58c0.18-0.13,0.47-0.19,0.84-0.19c0.35,0,0.8,0.1,1.23,0.86
		c0.45,0.76,0.69,1.77,0.72,2.99l0.03,1.17l1.15-0.22l8.22-1.54l0.76-0.14l0.05-0.77c0.13-1.83-0.02-3.54-0.44-5.09
		c-0.44-1.62-1.19-3.04-2.22-4.22c-1.03-1.17-2.35-2.1-3.93-2.77C87.83,6.51,85.98,6.18,83.88,6.18L83.88,6.18z"/>
</g>
<g>
	<polygon points="100.06,54.72 100.06,54.23 99.56,54.24 99.56,7.08 120.56,7.08 120.56,16.79 109.08,16.79 109.08,25.64 
		119.11,25.64 119.11,35.42 109.08,35.42 109.08,44.94 120.56,44.94 120.56,54.72 	"/>
	<path class="st0" d="M120.06,7.58v8.71h-11.48v9.85h10.03v8.78h-10.03v10.52h11.48v8.78h-20V7.58H120.06 M100.06,54.22v0.02V54.22
		 M121.06,6.58h-1h-20h-1v1v46.64v1h1h20h1v-1v-8.78v-1h-1h-10.48v-8.52h9.03h1v-1v-8.78v-1h-1h-9.03v-7.85h10.48h1v-1V7.58V6.58
		L121.06,6.58z"/>
</g>
<g>
	<polygon points="141.17,54.74 135.91,40.81 133.56,33.89 133.56,54.74 124.09,54.74 124.09,7.08 132.4,7.08 137.66,20.94 
		139.95,27.56 139.95,7.08 149.29,7.08 149.29,54.74 	"/>
	<path class="st0" d="M148.79,7.58v46.66h-7.27l-5.14-13.61l-3.01-8.85h-0.31v22.46h-8.47V7.58h7.46l5.14,13.54l2.95,8.51h0.31v0.01
		v-0.01V7.58H148.79 M149.79,6.58h-1h-8.34h-1v1v17.01l-1.32-3.79l-5.15-13.57l-0.24-0.65h-0.69h-7.46h-1v1v46.66v1h1h8.47h1v-1
		V36.91l1.37,4.04l5.15,13.64l0.24,0.65h0.69h7.27h1v-1V7.58V6.58L149.79,6.58z"/>
</g>
<g>
	<polygon points="154.93,54.72 154.93,54.23 154.43,54.24 154.43,7.08 175.43,7.08 175.43,16.79 163.95,16.79 163.95,25.64 
		173.98,25.64 173.98,35.42 163.95,35.42 163.95,44.94 175.43,44.94 175.43,54.72 	"/>
	<path class="st0" d="M174.93,7.58v8.71h-11.48v9.85h10.03v8.78h-10.03v10.52h11.48v8.78h-20V7.58H174.93 M154.93,54.22v0.02V54.22
		 M175.93,6.58h-1h-20h-1v1v46.64v1h1h20h1v-1v-8.78v-1h-1h-10.48v-8.52h9.03h1v-1v-8.78v-1h-1h-9.03v-7.85h10.48h1v-1V7.58V6.58
		L175.93,6.58z"/>
</g>
<g>
	<path d="M194.62,54.75l-5.14-18.17h-0.81v18.17h-9.53V7.08h10.85c1.85,0,3.57,0.24,5.1,0.72c1.58,0.49,2.96,1.32,4.1,2.48
		c1.13,1.14,2.02,2.64,2.66,4.48c0.63,1.83,0.94,4,0.94,6.63c0,3.22-0.41,5.9-1.22,7.96c-0.77,1.97-1.96,3.59-3.52,4.83l6.37,20.57
		H194.62z M189.49,26.79c0.57,0,1.1-0.07,1.63-0.21c0.46-0.14,0.87-0.39,1.24-0.78c0.39-0.4,0.69-0.92,0.91-1.59
		c0.23-0.69,0.35-1.62,0.35-2.76c0-1.64-0.36-2.84-1.08-3.57c-0.72-0.73-1.63-1.09-2.81-1.09l-1.07,0.01v9.99H189.49z"/>
	<path class="st0" d="M189.99,7.58c1.8,0,3.45,0.23,4.95,0.7c1.51,0.47,2.8,1.25,3.89,2.35c1.09,1.1,1.93,2.53,2.54,4.29
		c0.61,1.77,0.91,3.92,0.91,6.47c0,3.17-0.4,5.77-1.19,7.78c-0.79,2.01-2.01,3.62-3.64,4.83l6.27,20.25H195l-5.14-18.17h-1.69v18.17
		h-8.53V7.58H189.99 M188.17,27.29h1.32c0.63,0,1.21-0.08,1.76-0.23c0.54-0.16,1.03-0.46,1.47-0.91c0.44-0.45,0.78-1.04,1.03-1.78
		s0.38-1.71,0.38-2.92c0-1.79-0.41-3.09-1.22-3.92c-0.81-0.83-1.87-1.24-3.17-1.24l-1.57,0.01V27.29 M189.99,6.58h-10.35h-1v1v46.67
		v1h1h8.53h1v-1V37.31l4.87,17.21l0.21,0.73H195h8.72h1.36l-0.4-1.3l-6.07-19.6c1.51-1.27,2.65-2.89,3.41-4.82
		c0.84-2.13,1.26-4.87,1.26-8.15c0-2.69-0.32-4.91-0.96-6.8c-0.66-1.91-1.59-3.48-2.78-4.67c-1.2-1.21-2.65-2.09-4.3-2.6
		C193.66,6.83,191.89,6.58,189.99,6.58L189.99,6.58z M189.17,17.29l0.58,0c1.03,0,1.83,0.31,2.45,0.94
		c0.62,0.64,0.94,1.72,0.94,3.22c0,1.08-0.11,1.96-0.33,2.6c-0.2,0.6-0.46,1.06-0.8,1.4c-0.32,0.32-0.66,0.54-1.04,0.65
		c-0.46,0.13-0.95,0.19-1.48,0.19h-0.32V17.29L189.17,17.29z"/>
</g>
<g>
	<path d="M222.6,54.74l-1.31-9.12h-5.53l-1.32,9.12h-10.06l8.46-47.66h11.25l8.52,47.66H222.6z M219.9,36.04l-0.75-6.89l-0.63-6.36
		l-0.63,6.36l-0.82,6.89H219.9z"/>
	<path class="st0" d="M223.66,7.58L232,54.24h-8.97l-1.31-9.12h-6.4L214,54.24h-9.03l8.28-46.66H223.66 M216.51,36.54h3.95
		l-0.81-7.44l-0.94-9.45h-0.38l-0.94,9.45L216.51,36.54 M224.5,6.58h-0.84h-10.41h-0.84l-0.15,0.83l-8.28,46.66l-0.21,1.17h1.19H214
		h0.87l0.12-0.86l1.2-8.26h4.67l1.19,8.26l0.12,0.86h0.87H232h1.19l-0.21-1.18L224.64,7.4L224.5,6.58L224.5,6.58z M217.64,35.54
		l0.75-6.32l0.14-1.38l0.13,1.36l0.69,6.34H217.64L217.64,35.54z"/>
</g>
<g>
	<polygon points="235.27,54.74 235.27,7.08 244.8,7.08 244.8,44.96 256.28,44.96 256.28,54.74 	"/>
	<path class="st0" d="M244.3,7.58v37.88h11.48v8.78h-20.01V7.58H244.3 M245.3,6.58h-1h-8.53h-1v1v46.66v1h1h20.01h1v-1v-8.78v-1h-1
		H245.3V7.58V6.58L245.3,6.58z"/>
</g>
<g>
	<path d="M287.94,54.74l-1.31-9.12h-5.53l-1.32,9.12h-10.06l8.46-47.66h11.25l8.52,47.66H287.94z M285.25,36.04l-0.76-6.89
		l-0.63-6.35l-0.62,6.34l-0.82,6.89H285.25z"/>
	<path class="st0" d="M289,7.58l8.34,46.66h-8.97l-1.31-9.12h-6.4l-1.32,9.12h-9.03l8.28-46.66H289 M281.86,36.54h3.95l-0.82-7.44
		l-0.94-9.45h-0.38l-0.93,9.45L281.86,36.54 M289.84,6.58H289h-10.41h-0.84l-0.15,0.83l-8.28,46.66l-0.21,1.17h1.19h9.03h0.87
		l0.12-0.86l1.2-8.26h4.67l1.19,8.26l0.12,0.86h0.87h8.97h1.19l-0.21-1.18L289.98,7.4L289.84,6.58L289.84,6.58z M282.99,35.54
		l0.75-6.32l0.13-1.33l0.13,1.31l0.7,6.34H282.99L282.99,35.54z"/>
</g>
<g>
	<path d="M311.46,55.15c-2.07,0-3.88-0.33-5.37-0.98c-1.51-0.66-2.75-1.57-3.7-2.72c-0.94-1.13-1.63-2.48-2.08-4
		c-0.43-1.49-0.65-3.1-0.65-4.8v-0.41l9.5-1.94l0.03,0.58c0.08,1.62,0.3,2.84,0.67,3.63c0.32,0.67,0.88,0.98,1.78,0.98
		c0.5,0,0.88-0.12,1.14-0.34c0.3-0.26,0.52-0.59,0.68-1.01c0.17-0.43,0.28-0.96,0.35-1.61c0.06-0.65,0.09-1.31,0.09-1.96
		c0-0.93-0.06-1.66-0.18-2.25c-0.11-0.56-0.3-1.03-0.58-1.42c-0.27-0.4-0.65-0.74-1.14-1.03c-0.5-0.31-1.13-0.64-1.96-1.01
		c-2.18-0.96-3.95-1.97-5.24-2.98c-1.34-1.04-2.38-2.17-3.1-3.35c-0.72-1.19-1.2-2.47-1.42-3.8c-0.21-1.27-0.32-2.71-0.32-4.27
		c0-1.96,0.22-3.79,0.65-5.46c0.44-1.7,1.13-3.17,2.07-4.37c0.95-1.22,2.19-2.2,3.69-2.9c1.51-0.7,3.34-1.06,5.45-1.06
		c2.24,0,4.13,0.39,5.62,1.17c1.48,0.77,2.67,1.77,3.54,2.97c0.85,1.18,1.46,2.52,1.8,3.97c0.34,1.44,0.51,2.83,0.51,4.14v0.4
		l-9.4,2.17v-0.63c0-0.65-0.03-1.27-0.09-1.83c-0.05-0.52-0.18-1-0.37-1.43c-0.18-0.4-0.41-0.7-0.69-0.91
		c-0.27-0.2-0.66-0.3-1.17-0.3c-0.46,0-0.81,0.11-1.05,0.32c-0.29,0.25-0.5,0.55-0.65,0.89c-0.17,0.37-0.28,0.79-0.34,1.31
		c-0.06,0.52-0.09,1.01-0.09,1.48c0,0.6,0.04,1.12,0.11,1.6c0.07,0.41,0.25,0.81,0.54,1.19c0.29,0.4,0.73,0.79,1.35,1.19
		c0.63,0.41,1.52,0.86,2.65,1.33c2.06,0.87,3.66,1.77,4.89,2.75c1.21,0.98,2.16,2.06,2.8,3.23c0.64,1.17,1.04,2.47,1.25,3.96
		c0.18,1.52,0.27,3.16,0.27,4.88c0,2.15-0.18,4.15-0.54,5.93c-0.38,1.82-1.02,3.38-1.9,4.65c-0.91,1.3-2.15,2.31-3.68,3.02
		C315.66,54.79,313.73,55.15,311.46,55.15z"/>
	<path class="st0" d="M311.84,7.17c2.17,0,3.97,0.37,5.39,1.11c1.42,0.74,2.54,1.68,3.36,2.82s1.39,2.4,1.72,3.79
		c0.33,1.39,0.5,2.73,0.5,4.02l-8.4,1.94c0-0.67-0.03-1.3-0.09-1.88c-0.06-0.58-0.2-1.11-0.41-1.58c-0.21-0.47-0.49-0.84-0.85-1.11
		c-0.36-0.27-0.85-0.4-1.47-0.4c-0.59,0-1.05,0.15-1.38,0.44c-0.33,0.29-0.6,0.65-0.78,1.07c-0.19,0.42-0.31,0.9-0.38,1.44
		c-0.06,0.54-0.09,1.05-0.09,1.54c0,0.63,0.04,1.18,0.12,1.68c0.08,0.49,0.29,0.96,0.63,1.41c0.33,0.45,0.82,0.88,1.47,1.31
		c0.65,0.42,1.56,0.88,2.73,1.37c2.01,0.85,3.59,1.74,4.77,2.68c1.17,0.94,2.06,1.97,2.67,3.08c0.61,1.12,1,2.38,1.19,3.79
		c0.17,1.42,0.27,3.02,0.27,4.81c0,2.15-0.18,4.09-0.53,5.83c-0.36,1.74-0.96,3.23-1.82,4.46c-0.86,1.23-2.02,2.18-3.48,2.85
		c-1.46,0.67-3.3,1.01-5.52,1.01c-2.01,0-3.73-0.31-5.17-0.94c-1.44-0.63-2.61-1.49-3.51-2.58c-0.9-1.09-1.56-2.37-1.98-3.82
		s-0.63-3-0.63-4.66l8.53-1.74c0.08,1.7,0.32,2.97,0.72,3.82c0.4,0.85,1.14,1.27,2.23,1.27c0.63,0,1.12-0.16,1.47-0.47
		c0.36-0.31,0.63-0.71,0.82-1.21c0.19-0.49,0.31-1.07,0.38-1.74c0.06-0.67,0.09-1.34,0.09-2.01c0-0.94-0.06-1.72-0.19-2.35
		c-0.12-0.62-0.34-1.16-0.66-1.61c-0.31-0.45-0.74-0.84-1.29-1.17c-0.54-0.34-1.21-0.68-2.01-1.04c-2.13-0.94-3.85-1.91-5.14-2.92
		c-1.3-1.01-2.29-2.08-2.98-3.22s-1.14-2.35-1.35-3.62c-0.21-1.27-0.31-2.67-0.31-4.19c0-1.92,0.21-3.7,0.63-5.33
		c0.42-1.63,1.08-3.03,1.98-4.19c0.9-1.16,2.07-2.08,3.51-2.75C308.04,7.51,309.79,7.17,311.84,7.17 M311.84,6.17
		c-2.18,0-4.09,0.37-5.66,1.1c-1.58,0.73-2.88,1.76-3.88,3.04c-0.98,1.26-1.7,2.79-2.16,4.55c-0.44,1.7-0.66,3.58-0.66,5.58
		c0,1.59,0.11,3.06,0.32,4.35c0.23,1.39,0.73,2.73,1.48,3.97c0.75,1.24,1.83,2.41,3.22,3.49c1.35,1.05,3.1,2.05,5.35,3.05
		c0.8,0.36,1.41,0.68,1.88,0.97c0.44,0.27,0.77,0.56,1,0.89c0.24,0.34,0.41,0.75,0.5,1.23c0.12,0.56,0.17,1.27,0.17,2.16
		c0,0.64-0.03,1.28-0.09,1.92c-0.06,0.6-0.17,1.08-0.32,1.47c-0.13,0.35-0.31,0.61-0.54,0.81c-0.17,0.15-0.45,0.23-0.82,0.23
		c-0.88,0-1.16-0.35-1.33-0.7c-0.34-0.73-0.55-1.88-0.63-3.44l-0.05-1.17l-1.14,0.23l-8.53,1.74l-0.8,0.16v0.82
		c0,1.74,0.23,3.4,0.67,4.94c0.46,1.59,1.19,2.99,2.17,4.18c1,1.21,2.3,2.17,3.88,2.86c1.55,0.68,3.43,1.02,5.57,1.02
		c2.35,0,4.34-0.37,5.94-1.1c1.62-0.74,2.92-1.81,3.88-3.19c0.92-1.32,1.59-2.95,1.98-4.83c0.37-1.82,0.55-3.85,0.55-6.03
		c0-1.73-0.09-3.39-0.28-4.93c-0.21-1.55-0.65-2.94-1.3-4.15c-0.68-1.23-1.66-2.37-2.92-3.38c-1.27-1.01-2.91-1.93-5.01-2.82
		c-1.1-0.46-1.96-0.89-2.58-1.29c-0.55-0.36-0.96-0.72-1.21-1.06c-0.25-0.33-0.4-0.65-0.45-0.98c-0.07-0.45-0.11-0.95-0.11-1.52
		c0-0.45,0.03-0.92,0.08-1.43c0.06-0.45,0.16-0.83,0.3-1.14c0.12-0.29,0.3-0.53,0.53-0.73c0.18-0.16,0.49-0.19,0.72-0.19
		c0.39,0,0.7,0.07,0.87,0.2c0.22,0.16,0.39,0.4,0.54,0.72c0.17,0.38,0.28,0.81,0.33,1.27c0.06,0.54,0.08,1.14,0.08,1.78v1.26
		l1.23-0.28l8.4-1.94l0.77-0.18v-0.8c0-1.35-0.18-2.78-0.53-4.25c-0.36-1.51-0.99-2.91-1.88-4.14c-0.91-1.26-2.16-2.31-3.71-3.12
		C316.13,6.58,314.17,6.17,311.84,6.17L311.84,6.17z"/>
</g>
<g>
	<path d="M338.23,55.15c-2.07,0-3.88-0.33-5.37-0.98c-1.5-0.66-2.75-1.57-3.7-2.72c-0.94-1.13-1.63-2.48-2.07-4
		c-0.43-1.49-0.65-3.1-0.65-4.8v-0.41l9.5-1.94l0.03,0.58c0.08,1.62,0.3,2.84,0.67,3.63c0.32,0.67,0.88,0.98,1.78,0.98
		c0.5,0,0.88-0.12,1.14-0.34c0.3-0.26,0.52-0.59,0.68-1.01c0.17-0.43,0.28-0.96,0.35-1.61c0.06-0.64,0.09-1.3,0.09-1.96
		c0-0.93-0.06-1.67-0.18-2.25c-0.11-0.56-0.3-1.03-0.58-1.42c-0.27-0.4-0.66-0.74-1.14-1.03c-0.5-0.31-1.13-0.64-1.96-1.01
		c-2.18-0.96-3.95-1.97-5.24-2.98c-1.34-1.04-2.38-2.17-3.1-3.35c-0.72-1.19-1.2-2.46-1.42-3.8c-0.21-1.27-0.32-2.71-0.32-4.27
		c0-1.96,0.22-3.79,0.65-5.45c0.44-1.69,1.13-3.17,2.07-4.37c0.95-1.22,2.19-2.2,3.69-2.9c1.51-0.7,3.34-1.06,5.45-1.06
		c2.24,0,4.13,0.39,5.62,1.17c1.48,0.77,2.67,1.77,3.54,2.97c0.85,1.18,1.46,2.52,1.8,3.97c0.34,1.43,0.51,2.83,0.51,4.14v0.4
		l-9.4,2.17v-0.63c0-0.66-0.03-1.27-0.09-1.83c-0.05-0.52-0.18-1-0.37-1.43c-0.18-0.4-0.41-0.7-0.69-0.91
		c-0.26-0.2-0.66-0.3-1.17-0.3c-0.46,0-0.81,0.11-1.05,0.32c-0.29,0.25-0.5,0.55-0.65,0.89c-0.17,0.37-0.28,0.79-0.34,1.31
		c-0.06,0.52-0.09,1-0.09,1.48c0,0.6,0.04,1.12,0.11,1.6c0.07,0.41,0.25,0.81,0.54,1.19c0.29,0.4,0.73,0.79,1.35,1.19
		c0.63,0.41,1.52,0.85,2.65,1.33c2.06,0.87,3.66,1.77,4.89,2.75c1.21,0.97,2.15,2.06,2.8,3.23c0.63,1.16,1.05,2.49,1.25,3.96
		c0.18,1.43,0.28,3.07,0.28,4.88c0,2.16-0.18,4.15-0.54,5.93c-0.38,1.82-1.01,3.38-1.9,4.65c-0.91,1.3-2.15,2.31-3.68,3.02
		C342.43,54.79,340.5,55.15,338.23,55.15z"/>
	<path class="st0" d="M338.61,7.17c2.17,0,3.97,0.37,5.39,1.11c1.42,0.74,2.54,1.68,3.36,2.82s1.39,2.4,1.72,3.79
		c0.33,1.39,0.5,2.73,0.5,4.02l-8.4,1.94c0-0.67-0.03-1.3-0.09-1.88c-0.06-0.58-0.2-1.11-0.41-1.58c-0.21-0.47-0.49-0.84-0.85-1.11
		c-0.36-0.27-0.85-0.4-1.47-0.4c-0.59,0-1.05,0.15-1.38,0.44c-0.33,0.29-0.6,0.65-0.78,1.07c-0.19,0.42-0.31,0.9-0.38,1.44
		c-0.06,0.54-0.09,1.05-0.09,1.54c0,0.63,0.04,1.18,0.12,1.68c0.08,0.49,0.29,0.96,0.63,1.41c0.33,0.45,0.82,0.88,1.47,1.31
		c0.65,0.42,1.56,0.88,2.73,1.37c2.01,0.85,3.59,1.74,4.77,2.68c1.17,0.94,2.06,1.97,2.67,3.08c0.61,1.12,1,2.38,1.19,3.79
		c0.18,1.42,0.27,3.02,0.27,4.81c0,2.15-0.18,4.09-0.53,5.83c-0.36,1.74-0.96,3.23-1.82,4.46c-0.86,1.23-2.02,2.18-3.48,2.85
		c-1.46,0.67-3.3,1.01-5.52,1.01c-2.01,0-3.73-0.31-5.17-0.94c-1.44-0.63-2.61-1.49-3.51-2.58c-0.9-1.09-1.56-2.37-1.98-3.82
		s-0.63-3-0.63-4.66l8.53-1.74c0.08,1.7,0.32,2.97,0.72,3.82c0.4,0.85,1.14,1.27,2.23,1.27c0.63,0,1.12-0.16,1.47-0.47
		c0.36-0.31,0.63-0.71,0.82-1.21c0.19-0.49,0.31-1.07,0.38-1.74c0.06-0.67,0.09-1.34,0.09-2.01c0-0.94-0.06-1.72-0.19-2.35
		c-0.12-0.62-0.34-1.16-0.66-1.61c-0.31-0.45-0.74-0.84-1.29-1.17c-0.54-0.34-1.21-0.68-2.01-1.04c-2.13-0.94-3.85-1.91-5.14-2.92
		c-1.3-1.01-2.29-2.08-2.98-3.22s-1.14-2.35-1.35-3.62c-0.21-1.27-0.31-2.67-0.31-4.19c0-1.92,0.21-3.7,0.63-5.33
		c0.42-1.63,1.08-3.03,1.98-4.19c0.9-1.16,2.07-2.08,3.51-2.75C334.81,7.51,336.56,7.17,338.61,7.17 M338.61,6.17
		c-2.18,0-4.09,0.37-5.66,1.1c-1.58,0.73-2.88,1.76-3.88,3.04c-0.98,1.26-1.7,2.79-2.16,4.55c-0.44,1.7-0.66,3.58-0.66,5.58
		c0,1.59,0.11,3.06,0.32,4.35c0.23,1.39,0.73,2.73,1.48,3.97c0.75,1.24,1.83,2.41,3.22,3.49c1.35,1.05,3.1,2.05,5.35,3.05
		c0.8,0.36,1.41,0.68,1.88,0.97c0.44,0.27,0.77,0.56,1,0.89c0.24,0.34,0.41,0.75,0.5,1.23c0.12,0.56,0.17,1.27,0.17,2.16
		c0,0.64-0.03,1.28-0.09,1.92c-0.06,0.6-0.17,1.08-0.32,1.47c-0.13,0.35-0.31,0.61-0.54,0.81c-0.17,0.15-0.45,0.23-0.82,0.23
		c-0.88,0-1.16-0.35-1.33-0.7c-0.34-0.73-0.55-1.88-0.63-3.44l-0.05-1.17l-1.14,0.23l-8.53,1.74l-0.8,0.16v0.82
		c0,1.74,0.23,3.4,0.67,4.94c0.46,1.59,1.19,2.99,2.17,4.18c1,1.21,2.3,2.17,3.88,2.86c1.55,0.68,3.43,1.02,5.57,1.02
		c2.35,0,4.34-0.37,5.94-1.1c1.62-0.74,2.92-1.81,3.88-3.19c0.92-1.32,1.59-2.95,1.98-4.83c0.37-1.82,0.55-3.85,0.55-6.03
		c0-1.82-0.09-3.48-0.28-4.94c-0.21-1.54-0.65-2.94-1.3-4.14c-0.68-1.23-1.66-2.37-2.92-3.38c-1.27-1.01-2.91-1.93-5.01-2.82
		c-1.1-0.46-1.96-0.89-2.58-1.29c-0.55-0.36-0.96-0.72-1.21-1.06c-0.25-0.33-0.4-0.65-0.45-0.98c-0.07-0.45-0.11-0.95-0.11-1.52
		c0-0.45,0.03-0.92,0.08-1.43c0.06-0.45,0.16-0.83,0.3-1.14c0.12-0.29,0.3-0.53,0.53-0.73c0.18-0.16,0.49-0.19,0.72-0.19
		c0.39,0,0.7,0.07,0.87,0.2c0.22,0.16,0.39,0.4,0.54,0.72c0.17,0.38,0.28,0.81,0.33,1.27c0.06,0.54,0.08,1.14,0.08,1.78v1.26
		l1.23-0.28l8.4-1.94l0.77-0.18v-0.8c0-1.35-0.18-2.78-0.53-4.25c-0.36-1.51-0.99-2.91-1.88-4.14c-0.91-1.26-2.16-2.31-3.71-3.12
		C342.9,6.58,340.94,6.17,338.61,6.17L338.61,6.17z"/>
</g>
<g>
	<polygon points="354.66,54.72 354.66,54.23 354.16,54.24 354.16,7.08 375.16,7.08 375.16,16.79 363.68,16.79 363.68,25.64 
		373.71,25.64 373.71,35.42 363.68,35.42 363.68,44.94 375.16,44.94 375.16,54.72 	"/>
	<path class="st0" d="M374.66,7.58v8.71h-11.48v9.85h10.03v8.78h-10.03v10.52h11.48v8.78h-20V7.58H374.66 M354.66,54.22v0.02V54.22
		 M375.66,6.58h-1h-20h-1v1v46.64v1h1h20h1v-1v-8.78v-1h-1h-10.48v-8.52h9.03h1v-1v-8.78v-1h-1h-9.03v-7.85h10.48h1v-1V7.58V6.58
		L375.66,6.58z"/>
</g>
<g>
	<polygon points="400.81,54.74 400.81,35.16 399.48,39.83 397.68,45.62 391.23,45.62 389.3,39.3 387.96,34.69 387.96,54.74 
		378.49,54.74 378.49,7.08 387.31,7.08 391.75,19.89 394.42,28.25 397.14,19.7 401.52,7.08 410.34,7.08 410.34,54.74 	"/>
	<path class="st0" d="M409.84,7.58v46.66h-8.53V32.45h-0.25L399,39.69l-1.69,5.43h-5.71l-1.82-5.97l-2.01-6.9h-0.31v21.99h-8.47
		V7.58h7.96l4.33,12.47l2.95,9.25h0.38l3.01-9.45l4.26-12.27H409.84 M410.84,6.58h-1h-7.96h-0.71l-0.23,0.67l-4.26,12.27l-2.26,7.08
		l-2.19-6.86l-4.34-12.49l-0.23-0.67h-0.71h-7.96h-1v1v46.66v1h1h8.47h1v-1V38.19l0.36,1.24l1.82,5.98l0.22,0.71h0.74h5.71h0.74
		l0.22-0.7l1.69-5.43l0.36-1.25v15.5v1h1h8.53h1v-1V7.58V6.58L410.84,6.58z"/>
</g>
<g>
	<path d="M415.37,54.74V7.08h10.35c4.01,0,7.08,1.16,9.12,3.46c2.02,2.27,3.05,5.65,3.05,10.05c0,0.99-0.1,1.96-0.29,2.88
		c-0.2,0.97-0.5,1.87-0.89,2.69c-0.4,0.85-0.93,1.62-1.56,2.28c-0.48,0.5-1.04,0.91-1.65,1.22c0.76,0.36,1.41,0.81,1.94,1.36
		c0.68,0.7,1.24,1.52,1.67,2.45c0.41,0.9,0.71,1.9,0.89,2.98c0.17,1.03,0.26,2.12,0.26,3.23c0,5.11-1.07,8.93-3.19,11.36
		c-2.14,2.45-5.35,3.69-9.54,3.69H415.37z M425.89,44.95c0.68,0,1.23-0.14,1.63-0.41c0.41-0.28,0.73-0.67,0.96-1.17
		c0.25-0.54,0.41-1.16,0.49-1.85c0.09-0.71,0.14-1.5,0.14-2.43c0-1.76-0.27-2.99-0.8-3.65c-0.52-0.64-1.28-0.95-2.34-0.95h-1.07
		v10.46H425.89z M425.46,25.04c1.12,0,1.91-0.32,2.43-0.99c0.55-0.69,0.82-1.77,0.82-3.2c0-2.1-0.43-2.95-0.78-3.29
		c-0.54-0.51-1.43-0.77-2.67-0.77h-0.38v8.25C424.89,25.04,425.46,25.04,425.46,25.04z"/>
	<path class="st0" d="M425.72,7.58c3.89,0,6.8,1.1,8.75,3.29c1.95,2.19,2.92,5.43,2.92,9.72c0,0.94-0.09,1.87-0.28,2.78
		c-0.19,0.92-0.47,1.78-0.85,2.58s-0.87,1.52-1.47,2.15c-0.61,0.63-1.33,1.1-2.16,1.41v0.33h-0.02c1,0.36,1.83,0.87,2.48,1.54
		c0.65,0.67,1.17,1.44,1.57,2.31c0.4,0.87,0.68,1.82,0.85,2.85s0.25,2.08,0.25,3.15c0,5.01-1.02,8.68-3.07,11.03
		c-2.05,2.35-5.1,3.52-9.16,3.52h-9.66V7.58H425.72 M424.39,25.54h1.07c0.01,0,0.02,0,0.02,0c2.49,0,3.74-1.57,3.74-4.69
		c0-1.83-0.31-3.05-0.94-3.65c-0.63-0.6-1.63-0.91-3.01-0.91h-0.88V25.54 M424.39,45.45h1.5c0.79,0,1.43-0.17,1.91-0.5
		c0.48-0.33,0.86-0.79,1.13-1.37c0.27-0.58,0.45-1.25,0.53-2.01c0.1-0.76,0.14-1.59,0.14-2.48c0-1.88-0.3-3.2-0.91-3.96
		c-0.61-0.76-1.52-1.14-2.73-1.14h-1.57V45.45 M425.72,6.58h-9.85h-1v1v46.66v1h1h9.66c4.34,0,7.68-1.3,9.91-3.86
		c2.23-2.56,3.32-6.38,3.32-11.69c0-1.14-0.09-2.25-0.26-3.31c-0.19-1.12-0.5-2.17-0.93-3.1c-0.45-0.98-1.04-1.85-1.76-2.59
		c-0.38-0.39-0.81-0.74-1.3-1.04c0.36-0.25,0.69-0.53,1-0.85c0.67-0.71,1.23-1.52,1.65-2.42c0.41-0.86,0.72-1.8,0.93-2.81
		c0.2-0.95,0.3-1.96,0.3-2.98c0-4.53-1.07-8.02-3.17-10.39C433.08,7.8,429.88,6.58,425.72,6.58L425.72,6.58z M425.39,24.54v-7.25
		c1.02,0.02,1.78,0.23,2.2,0.63c0.19,0.18,0.63,0.83,0.63,2.93c0,3.25-1.38,3.69-2.74,3.69L425.39,24.54L425.39,24.54z
		 M425.39,34.99h0.57c0.9,0,1.54,0.25,1.95,0.77c0.31,0.39,0.69,1.29,0.69,3.33c0,0.91-0.04,1.68-0.13,2.35
		c-0.07,0.66-0.22,1.23-0.45,1.72c-0.19,0.41-0.46,0.74-0.79,0.97c-0.31,0.22-0.76,0.32-1.34,0.32h-0.5V34.99L425.39,34.99z"/>
</g>
<g>
	<polygon points="443.34,54.74 443.34,7.08 452.87,7.08 452.87,44.96 464.35,44.96 464.35,54.74 	"/>
	<path class="st0" d="M452.37,7.58v37.88h11.48v8.78h-20.01V7.58H452.37 M453.37,6.58h-1h-8.53h-1v1v46.66v1h1h20.01h1v-1v-8.78v-1
		h-1h-10.48V7.58V6.58L453.37,6.58z"/>
</g>
<g>
	<polygon points="469.42,54.75 469.42,35.34 460.71,7.08 470.88,7.08 473.1,16.79 474.34,22.88 475.58,16.67 477.54,7.09 
		487.66,7.09 479.01,35.36 479.01,54.75 	"/>
	<path class="st0" d="M470.48,7.58l2.13,9.32l1.57,7.71h0.32l1.57-7.84l1.88-9.18h9.03l-8.47,27.69v18.97h-8.59V35.27l-8.53-27.69
		H470.48 M471.28,6.58h-0.8h-9.09h-1.35l0.4,1.29l8.49,27.55v18.83v1h1h8.59h1v-1V35.43l8.43-27.55l0.4-1.29h-1.35h-9.03h-0.82
		l-0.16,0.8l-1.88,9.18l-0.76,3.78l-0.74-3.65l-2.14-9.34L471.28,6.58L471.28,6.58z"/>
</g>
<g>
	<g>
		<path class="st1" d="M34.81,61.85c-0.26,0-0.48-0.2-0.5-0.46l-0.01-0.23c-0.01-0.16-0.02-0.31-0.05-0.46
			c-0.33-1.49-1.6-2.54-3.08-2.54c-0.21,0-0.42,0.02-0.63,0.06c-1.39,0.27-2.5,1.67-2.48,3.12c0,0.13-0.05,0.26-0.14,0.36
			c-0.09,0.09-0.22,0.15-0.36,0.15c-0.12,0-0.28-0.04-0.38-0.11c-0.76-0.14-1.56-0.29-2.36-0.45l-1.9-0.37
			c-0.14-0.03-0.27-0.11-0.34-0.24c-0.07-0.12-0.09-0.28-0.04-0.41c0.33-0.97,0.3-1.83-0.08-2.61c-0.4-0.84-1.06-1.41-1.96-1.68
			c-0.29-0.09-0.58-0.13-0.88-0.13c-1.22,0-2.31,0.74-2.9,1.99c-0.06,0.13-0.18,0.23-0.32,0.27c-0.04,0.01-0.09,0.02-0.13,0.02
			c-0.1,0-0.19-0.03-0.28-0.08l-3.88-2.59c-0.12-0.08-0.2-0.22-0.22-0.36c-0.02-0.15,0.04-0.29,0.14-0.4
			c1.05-1.08,1.25-2.54,0.51-3.82c-0.54-0.93-1.57-1.51-2.69-1.51c-0.74,0-1.44,0.26-1.98,0.74c-0.14,0.12-0.32,0.25-0.56,0.25
			c-0.37,0-0.57-0.3-0.65-0.42c-0.3-0.47-0.61-0.93-0.93-1.39l-0.48-0.71c-0.33-0.49-0.65-1-0.98-1.5c-0.08-0.12-0.1-0.27-0.06-0.4
			c0.04-0.14,0.13-0.25,0.26-0.31c1.86-0.91,2.3-2.75,1.77-4.1c-0.28-0.72-0.8-1.27-1.53-1.63c-0.46-0.23-0.93-0.35-1.38-0.35
			c-0.4,0-0.81,0.09-1.21,0.27c-0.07,0.03-0.14,0.04-0.21,0.04c-0.08,0-0.16-0.02-0.23-0.06c-0.14-0.07-0.23-0.2-0.26-0.35
			l-0.13-0.7c-0.15-0.8-0.3-1.58-0.46-2.36c-0.05-0.25-0.12-0.5-0.18-0.76l-0.12-0.5c-0.01-0.04-0.01-0.08-0.01-0.11v-0.29
			c0-0.26,0.2-0.48,0.46-0.5l0.25-0.02c0.14-0.01,0.29-0.01,0.43-0.04c1.38-0.22,2.5-1.52,2.54-2.96c0.03-0.93-0.32-1.71-1.04-2.36
			c-0.62-0.53-1.28-0.79-2.03-0.79c0,0-0.11,0-0.12,0c-0.13,0-0.25-0.05-0.35-0.14c-0.1-0.09-0.15-0.22-0.15-0.36v-0.29
			c0-0.12,0.04-0.23,0.12-0.32l0.52-2.65c0.09-0.48,0.19-0.96,0.29-1.46c0.03-0.15,0.13-0.28,0.26-0.35
			c0.07-0.04,0.15-0.05,0.23-0.05c0.07,0,0.14,0.02,0.21,0.05c0.36,0.17,0.76,0.25,1.17,0.25c1.13,0,2.24-0.63,2.76-1.57
			c0.42-0.75,0.51-1.64,0.25-2.45c-0.19-0.61-0.67-1.46-1.84-2.03c-0.13-0.06-0.23-0.18-0.26-0.32c-0.04-0.14-0.01-0.29,0.07-0.41
			c0.8-1.21,1.61-2.41,2.43-3.64l0.14-0.22c0.08-0.12,0.21-0.2,0.35-0.22c0.02,0,0.04,0,0.06,0c0.12,0,0.24,0.04,0.33,0.13
			c0.71,0.64,1.43,0.94,2.22,0.94l0.12,0c0.94-0.04,1.71-0.39,2.28-1.06c0.91-1.08,1.22-2.82-0.17-4.28
			c-0.1-0.11-0.15-0.25-0.13-0.4c0.02-0.15,0.1-0.28,0.22-0.36c0.65-0.43,3.22-2.16,3.86-2.59c0.08-0.06,0.18-0.08,0.28-0.08
			c0.04,0,0.08,0,0.12,0.01c0.14,0.03,0.25,0.12,0.32,0.24c0.05,0.09,0.1,0.18,0.14,0.27C16.9,4.8,16.95,4.9,17.02,5
			c0.7,0.95,1.56,1.41,2.63,1.41c0.11,0,0.22,0,0.33-0.01c1.16-0.09,2.31-1.05,2.63-2.18c0.19-0.65,0.19-1.31-0.02-1.96
			c-0.06-0.25,0.02-0.49,0.12-0.64c0.08-0.12,0.28-0.26,0.42-0.28c0.49-0.11,1.02-0.21,1.55-0.31l1.06-0.21
			C26,0.77,26.25,0.7,26.51,0.64l0.49-0.12c0.04-0.01,0.08-0.01,0.12-0.01h0.44c0.27,0,0.49,0.21,0.5,0.48
			c0.05,1.05,0.46,1.89,1.23,2.49c0.57,0.45,1.19,0.68,1.83,0.68c0.36,0,0.73-0.07,1.11-0.22c1.3-0.49,2-1.49,2.09-2.96
			c0.02-0.26,0.23-0.47,0.5-0.47h0.44c0.12,0,0.24,0.04,0.33,0.12c1.27,0.24,2.45,0.47,3.64,0.7c0.09,0.01,0.33,0.06,0.48,0.28
			c0.15,0.22,0.1,0.47,0.08,0.58l-0.05,0.24c-0.09,0.41-0.18,0.79-0.12,1.18c0.14,1.02,0.57,1.75,1.31,2.26
			c0.56,0.39,1.12,0.57,1.73,0.57c0.22,0,0.45-0.03,0.68-0.08c1.06-0.23,1.8-0.84,2.34-1.92c0.06-0.13,0.18-0.22,0.32-0.26
			c0.04-0.01,0.08-0.02,0.13-0.02c0.1,0,0.2,0.03,0.28,0.08c1.13,0.76,3.85,2.6,3.85,2.6c0.12,0.08,0.2,0.21,0.22,0.35
			s-0.03,0.29-0.13,0.4c-0.68,0.75-0.98,1.49-0.95,2.34c0.03,0.92,0.4,1.66,1.1,2.26c0.57,0.49,1.28,0.75,2,0.75
			c0.79,0,1.58-0.33,2.28-0.95c0.09-0.08,0.21-0.13,0.33-0.13c0.02,0,0.04,0,0.06,0c0.14,0.02,0.27,0.1,0.35,0.22l2.58,3.85
			c0.08,0.12,0.11,0.27,0.07,0.41c-0.04,0.14-0.13,0.26-0.26,0.32c-1.8,0.88-2.25,2.48-1.9,3.58c0.51,1.65,1.48,2.45,2.96,2.45
			c0.42,0,0.88-0.06,1.37-0.19c0.04-0.01,0.08-0.02,0.12-0.02c0.09,0,0.19,0.03,0.27,0.08c0.12,0.07,0.2,0.19,0.22,0.32
			c0.29,1.4,0.57,2.79,0.85,4.18l0.06,0.32c0.03,0.14-0.01,0.29-0.09,0.4s-0.22,0.19-0.37,0.19c-2.09,0.12-3.12,1.65-3.19,3.01
			c-0.08,1.52,1.1,3.17,3.2,3.29c0.14,0.01,0.28,0.08,0.37,0.19c0.09,0.11,0.12,0.26,0.09,0.4l-0.91,4.54
			c-0.03,0.14-0.12,0.27-0.25,0.34c-0.08,0.04-0.16,0.06-0.24,0.06c-0.06,0-0.12-0.01-0.18-0.03c-0.42-0.16-0.85-0.24-1.26-0.24
			c-1.34,0-2.29,0.85-2.73,1.64c-0.39,0.7-0.5,1.43-0.31,2.18c0.26,1.02,0.88,1.74,1.91,2.2c0.13,0.06,0.24,0.18,0.28,0.32
			c0.04,0.14,0.02,0.29-0.07,0.42l-2.61,3.88c-0.08,0.12-0.21,0.2-0.36,0.22c-0.02,0-0.04,0-0.06,0c-0.12,0-0.25-0.05-0.34-0.13
			c-0.66-0.61-1.44-0.93-2.25-0.93c-0.7,0-1.38,0.24-1.97,0.69c-0.6,0.47-0.99,1.12-1.12,1.88c-0.16,1.04,0.14,1.98,0.92,2.77
			c0.1,0.11,0.16,0.25,0.14,0.4c-0.02,0.15-0.1,0.28-0.22,0.36l-3.84,2.58c-0.08,0.06-0.18,0.08-0.28,0.08c-0.04,0-0.08,0-0.12-0.02
			c-0.14-0.04-0.25-0.13-0.32-0.25c-0.66-1.27-1.74-2-2.95-2c-0.41,0-0.83,0.08-1.23,0.25c-0.66,0.27-1.17,0.72-1.5,1.34
			c-0.49,0.89-0.54,1.81-0.17,2.82c0.05,0.14,0.04,0.29-0.03,0.42c-0.07,0.13-0.2,0.22-0.34,0.25l-0.73,0.14
			c-0.86,0.16-1.7,0.32-2.54,0.49c-0.27,0.05-0.53,0.12-0.8,0.2L35,61.83c-0.04,0.01-0.08,0.02-0.12,0.02H34.81z M22.99,13.74
			c-0.26,0-0.53,0.01-0.79,0.04c-1.62,0.15-2.8,0.7-3.69,1.73c-0.91,1.05-1.38,2.24-1.38,3.52c-0.03,6.92-0.02,13.95-0.01,20.76
			l0,3.37c0,0.23,0.03,0.48,0.09,0.75c0.32,1.53,0.95,2.63,1.93,3.37c0.51,0.38,1.1,0.7,1.7,0.91c0.59,0.21,1.24,0.31,1.97,0.31
			c0.41,0,0.85-0.03,1.35-0.1c1.4-0.19,2.5-0.77,3.34-1.78c0.87-1.04,1.3-2.25,1.32-3.71c0.04-2.52,0.03-5.04,0.02-7.56l0-2.74
			h-5.38v3.26h1.09c0.28,0,0.5,0.22,0.5,0.5l0,2.17c0,1.45-0.01,2.9,0.01,4.35c0.01,1.02-0.87,1.95-1.93,2.02
			c-0.06,0-0.12,0.01-0.17,0.01c-0.6,0-1.14-0.22-1.52-0.62c-0.38-0.4-0.58-0.93-0.58-1.56l0-19.42c0-1.29,0-2.58,0-3.86
			c0-0.76,0.29-1.36,0.84-1.74c0.4-0.27,0.83-0.41,1.27-0.41c0.38,0,0.76,0.1,1.11,0.31c0.7,0.42,1.06,1.1,1.05,1.97
			c-0.02,1.3-0.01,2.61-0.01,3.91l0,1.21h3.7v-4.85c0-1.4-0.31-2.58-0.94-3.6c-0.65-1.05-1.48-1.74-2.52-2.11
			C24.61,13.87,23.83,13.74,22.99,13.74z M35.12,48.17l1.04-8.13c0.03-0.25,0.24-0.44,0.5-0.44l1.35,0c0.46,0,0.92,0,1.37,0.01l0,0
			c0.34,0,0.71,0.32,0.75,0.67c0.05,0.28,0.09,0.61,0.12,0.93l0.27,2.37c0.08,0.61,0.16,1.23,0.25,1.84l0.37,2.75h3.97
			c-1.52-11.41-3.03-22.77-4.54-34.11h-4.92c-1.51,11.39-3,22.74-4.5,34.12H35.12z"/>
		<path class="st0" d="M35.25,1c0.02,0.03,0.04,0.07,0.06,0.07c1.27,0.25,2.54,0.5,3.81,0.74c0.17,0.03,0.2,0.07,0.16,0.26
			c-0.11,0.52-0.26,1.03-0.18,1.59c0.15,1.09,0.61,1.98,1.52,2.6c0.62,0.43,1.29,0.66,2.01,0.66c0.26,0,0.52-0.03,0.79-0.09
			c1.25-0.27,2.1-1.02,2.68-2.18c1.28,0.86,2.55,1.72,3.85,2.6c-0.71,0.78-1.12,1.65-1.08,2.7c0.04,1.07,0.48,1.94,1.28,2.62
			c0.62,0.53,1.44,0.87,2.33,0.87c0.85,0,1.76-0.31,2.61-1.07c0.86,1.28,1.72,2.57,2.58,3.85c-2.1,1.03-2.56,2.9-2.16,4.18
			c0.59,1.92,1.79,2.81,3.44,2.81c0.46,0,0.96-0.07,1.49-0.21c0.31,1.51,0.61,3,0.91,4.49c-2.35,0.14-3.58,1.89-3.66,3.48
			c-0.09,1.72,1.21,3.67,3.67,3.81c-0.3,1.51-0.61,3.03-0.91,4.54c-0.5-0.19-0.98-0.27-1.43-0.27c-1.44,0-2.58,0.85-3.17,1.89
			c-0.45,0.8-0.58,1.66-0.36,2.55c0.3,1.2,1.05,2.03,2.19,2.54c-0.88,1.31-1.74,2.59-2.61,3.88c-0.79-0.72-1.7-1.06-2.59-1.06
			c-0.81,0-1.6,0.28-2.27,0.79c-0.71,0.55-1.16,1.31-1.31,2.19c-0.19,1.21,0.16,2.29,1.05,3.2c-1.31,0.88-2.57,1.73-3.84,2.58
			c-0.8-1.54-2.09-2.27-3.39-2.27c-0.48,0-0.96,0.1-1.42,0.29c-0.75,0.31-1.35,0.83-1.75,1.56c-0.57,1.04-0.61,2.12-0.2,3.23
			c-1.11,0.21-2.2,0.41-3.28,0.63c-0.4,0.08-0.8,0.2-1.19,0.3c-0.02,0-0.05,0-0.07,0c-0.02-0.25-0.02-0.51-0.07-0.75
			c-0.38-1.69-1.81-2.94-3.57-2.94c-0.24,0-0.48,0.02-0.73,0.07c-1.61,0.31-2.91,1.9-2.89,3.62c-0.02,0-0.05,0-0.07,0
			c-0.03-0.03-0.06-0.07-0.1-0.08c-1.45-0.27-2.9-0.56-4.38-0.84c0.34-1.01,0.37-2.01-0.1-2.99c-0.47-0.98-1.24-1.63-2.27-1.94
			c-0.34-0.1-0.68-0.15-1.02-0.15c-1.35,0-2.65,0.8-3.35,2.27c-1.29-0.86-2.58-1.72-3.88-2.59c1.21-1.24,1.43-2.96,0.59-4.42
			c-0.66-1.14-1.89-1.76-3.13-1.76c-0.83,0-1.65,0.28-2.31,0.86c-0.09,0.08-0.17,0.12-0.23,0.12c-0.08,0-0.14-0.06-0.23-0.19
			c-0.45-0.71-0.94-1.4-1.41-2.1c-0.33-0.49-0.65-0.99-0.97-1.49c2.1-1.03,2.65-3.12,2.01-4.73c-0.34-0.86-0.96-1.49-1.77-1.89
			c-0.52-0.26-1.06-0.4-1.6-0.4c-0.47,0-0.94,0.1-1.42,0.32c-0.2-1.04-0.39-2.06-0.6-3.07c-0.09-0.42-0.2-0.84-0.3-1.27
			c0-0.1,0-0.2,0-0.29c0.24-0.02,0.48-0.02,0.72-0.06c1.64-0.26,2.91-1.77,2.96-3.44c0.03-1.09-0.39-2.01-1.21-2.75
			c-0.69-0.59-1.46-0.92-2.36-0.92c-0.04,0-0.08,0-0.12,0c0-0.1,0-0.2,0-0.29c0.02-0.01,0.06-0.02,0.06-0.03
			c0.18-0.9,0.36-1.81,0.54-2.72c0.1-0.52,0.2-1.04,0.31-1.58c0.44,0.2,0.91,0.3,1.38,0.3c1.29,0,2.57-0.7,3.2-1.83
			c0.94-1.69,0.48-4.06-1.8-5.18c0.85-1.28,1.7-2.55,2.57-3.85c0.75,0.67,1.58,1.07,2.55,1.07c0.05,0,0.09,0,0.14,0
			c1.04-0.04,1.96-0.44,2.64-1.24c1.18-1.39,1.29-3.39-0.19-4.95c1.29-0.86,2.57-1.73,3.86-2.59c0.13,0.23,0.22,0.45,0.35,0.63
			c0.78,1.05,1.76,1.62,3.03,1.62c0.12,0,0.25-0.01,0.38-0.02c1.41-0.11,2.71-1.26,3.07-2.54c0.22-0.75,0.21-1.5-0.02-2.24
			c-0.02-0.08,0.06-0.26,0.13-0.27c0.88-0.19,1.76-0.35,2.64-0.53C26.27,1.22,26.69,1.1,27.11,1c0.15,0,0.29,0,0.44,0
			c0.05,1.16,0.5,2.14,1.42,2.86c0.67,0.53,1.39,0.79,2.14,0.79c0.42,0,0.85-0.08,1.29-0.25c1.53-0.58,2.31-1.77,2.41-3.4
			C34.96,1,35.1,1,35.25,1 M22.81,49c0.47,0,0.94-0.04,1.41-0.1c1.46-0.2,2.69-0.8,3.66-1.95c0.99-1.18,1.42-2.55,1.44-4.03
			c0.05-3.47,0.02-6.94,0.02-10.41c0-0.13,0-0.26,0-0.4c-2.16,0-4.28,0-6.38,0c0,1.43,0,2.83,0,4.26c0.54,0,1.04,0,1.59,0
			c0,0.16,0,0.3,0,0.43c0,2.03-0.02,4.06,0.01,6.09c0.01,0.76-0.69,1.46-1.46,1.51c-0.05,0-0.1,0-0.14,0c-0.96,0-1.6-0.67-1.6-1.67
			c0-5.83,0-11.66,0-17.49c0-1.93-0.01-3.86,0-5.79c0-0.53,0.17-1.02,0.62-1.33c0.32-0.21,0.65-0.32,0.99-0.32
			c0.29,0,0.58,0.08,0.86,0.24c0.55,0.33,0.81,0.85,0.8,1.53c-0.02,1.75-0.01,3.5-0.01,5.24c0,0.13,0,0.26,0,0.39
			c1.58,0,3.12,0,4.7,0c0-0.17,0-0.31,0-0.44c0-1.64,0-3.28,0-4.91c0-1.38-0.28-2.68-1.01-3.86c-0.67-1.08-1.57-1.89-2.78-2.32
			c-0.83-0.3-1.67-0.43-2.54-0.43c-0.28,0-0.56,0.01-0.84,0.04c-1.59,0.15-2.95,0.67-4.02,1.9c-0.97,1.12-1.5,2.42-1.5,3.85
			c-0.04,8.04-0.02,16.09-0.01,24.13c0,0.29,0.04,0.58,0.1,0.86c0.3,1.45,0.91,2.75,2.12,3.66c0.55,0.41,1.18,0.75,1.83,0.98
			C21.37,48.91,22.08,49,22.81,49 M30.57,48.67c1.66,0,3.3,0,4.99,0c0.37-2.87,0.73-5.72,1.1-8.57c0.48,0,0.93,0,1.38,0
			c0.45,0,0.89,0,1.33,0.01c0.09,0,0.25,0.13,0.26,0.22c0.08,0.43,0.11,0.86,0.16,1.29c0.08,0.67,0.15,1.34,0.23,2.01
			c0.11,0.89,0.24,1.79,0.36,2.68c0.1,0.78,0.21,1.57,0.31,2.35c1.68,0,3.33,0,4.98,0C44.11,36.95,42.55,25.24,41,13.55
			c-1.98,0-3.89,0-5.8,0C33.65,25.27,32.11,36.96,30.57,48.67 M35.25,0h-0.44c-0.53,0-0.97,0.41-1,0.94
			c-0.08,1.28-0.66,2.11-1.77,2.53c-0.32,0.12-0.63,0.18-0.93,0.18c-0.53,0-1.04-0.19-1.52-0.57c-0.66-0.52-1-1.21-1.04-2.12
			C28.53,0.42,28.09,0,27.55,0h-0.44c-0.08,0-0.16,0.01-0.23,0.03c-0.17,0.04-0.33,0.08-0.5,0.12c-0.25,0.06-0.49,0.13-0.75,0.18
			c-0.34,0.07-0.69,0.14-1.04,0.21c-0.53,0.1-1.06,0.21-1.59,0.32c-0.28,0.06-0.53,0.23-0.7,0.48c-0.08,0.11-0.32,0.53-0.2,1.01
			c0,0.02,0.01,0.04,0.02,0.05c0.17,0.56,0.18,1.1,0.02,1.66c-0.26,0.94-1.24,1.75-2.19,1.82c-0.1,0.01-0.2,0.01-0.3,0.01
			c-0.91,0-1.62-0.38-2.23-1.21c-0.03-0.04-0.08-0.14-0.13-0.24c-0.05-0.09-0.1-0.19-0.15-0.29c-0.14-0.24-0.37-0.42-0.64-0.48
			c-0.08-0.02-0.15-0.03-0.23-0.03c-0.2,0-0.39,0.06-0.55,0.17c-0.65,0.43-1.29,0.86-1.93,1.3c-0.64,0.43-1.28,0.86-1.93,1.29
			c-0.25,0.16-0.41,0.43-0.44,0.72c-0.03,0.29,0.07,0.59,0.27,0.8c1.03,1.09,1.09,2.51,0.15,3.61c-0.47,0.56-1.12,0.86-1.92,0.89
			l-0.1,0c-0.66,0-1.27-0.27-1.88-0.82c-0.18-0.17-0.42-0.26-0.67-0.26c-0.04,0-0.08,0-0.12,0.01c-0.29,0.04-0.55,0.2-0.71,0.44
			L6.4,11.86c-0.86,1.29-1.7,2.54-2.54,3.81c-0.16,0.24-0.21,0.54-0.13,0.81c0.08,0.28,0.27,0.51,0.52,0.64
			c0.8,0.39,1.35,0.99,1.58,1.73c0.21,0.68,0.14,1.43-0.21,2.06c-0.44,0.78-1.37,1.31-2.32,1.31c-0.34,0-0.67-0.07-0.97-0.2
			c-0.13-0.06-0.27-0.09-0.42-0.09c-0.16,0-0.31,0.04-0.45,0.11c-0.27,0.14-0.47,0.39-0.53,0.69c-0.11,0.54-0.21,1.07-0.31,1.59
			c-0.16,0.81-0.32,1.63-0.48,2.44C0.05,26.91,0,27.08,0,27.26v0.29c0,0.27,0.11,0.53,0.3,0.72c0.19,0.18,0.44,0.28,0.7,0.28
			c0.01,0,0.02,0,0.03,0l0.09,0c0.63,0,1.17,0.22,1.71,0.68c0.6,0.54,0.88,1.19,0.86,1.96c-0.04,1.21-0.97,2.3-2.12,2.48
			c-0.13,0.02-0.26,0.03-0.38,0.03c-0.09,0-0.18,0.01-0.27,0.02c-0.52,0.04-0.92,0.48-0.92,1v0.29c0,0.08,0.01,0.15,0.03,0.23
			c0.04,0.17,0.08,0.34,0.12,0.5c0.06,0.25,0.12,0.5,0.18,0.75c0.16,0.78,0.31,1.57,0.46,2.36l0.13,0.68
			c0.06,0.3,0.25,0.56,0.52,0.7c0.14,0.07,0.3,0.11,0.46,0.11c0.14,0,0.28-0.03,0.41-0.09c0.34-0.15,0.67-0.23,1.01-0.23
			c0.38,0,0.76,0.1,1.16,0.29c0.61,0.3,1.05,0.76,1.28,1.36c0.44,1.1,0.15,2.65-1.52,3.46c-0.26,0.13-0.45,0.35-0.52,0.63
			c-0.08,0.27-0.03,0.57,0.12,0.81C4.17,47.1,4.5,47.6,4.83,48.1c0.16,0.23,0.32,0.47,0.48,0.7c0.31,0.45,0.62,0.91,0.92,1.37
			c0.3,0.44,0.65,0.66,1.08,0.66c0.45,0,0.76-0.26,0.88-0.36c0.46-0.4,1.04-0.62,1.66-0.62c0.94,0,1.81,0.48,2.26,1.26
			c0.62,1.07,0.45,2.31-0.44,3.22c-0.21,0.21-0.31,0.51-0.28,0.8c0.03,0.3,0.19,0.56,0.44,0.73c1.3,0.87,2.59,1.73,3.88,2.59
			c0.17,0.11,0.36,0.17,0.55,0.17c0.09,0,0.18-0.01,0.27-0.04c0.28-0.08,0.51-0.27,0.64-0.53c0.51-1.07,1.42-1.7,2.45-1.7
			c0.24,0,0.49,0.04,0.73,0.11c0.77,0.23,1.31,0.69,1.66,1.42c0.32,0.67,0.34,1.39,0.05,2.24c-0.09,0.27-0.06,0.57,0.08,0.82
			c0.15,0.25,0.39,0.42,0.68,0.48c0.65,0.12,1.3,0.25,1.94,0.37c0.74,0.14,1.48,0.29,2.22,0.42c0.15,0.09,0.33,0.14,0.51,0.14h0.07
			c0.27,0,0.52-0.11,0.71-0.3c0.19-0.19,0.29-0.45,0.29-0.71c-0.01-1.22,0.92-2.4,2.08-2.63c0.18-0.03,0.36-0.05,0.54-0.05
			c1.24,0,2.31,0.89,2.6,2.16c0.02,0.08,0.03,0.22,0.03,0.37c0,0.08,0.01,0.16,0.02,0.24c0.04,0.52,0.48,0.92,1,0.92h0.07
			c0.08,0,0.17-0.01,0.25-0.03l0.37-0.1c0.25-0.07,0.51-0.14,0.77-0.19c0.84-0.17,1.68-0.33,2.53-0.49l0.74-0.14
			c0.29-0.05,0.54-0.23,0.68-0.49c0.14-0.26,0.17-0.56,0.07-0.84c-0.32-0.86-0.27-1.65,0.14-2.4c0.28-0.51,0.7-0.89,1.26-1.12
			c0.34-0.14,0.69-0.21,1.04-0.21c1.03,0,1.92,0.61,2.5,1.73c0.13,0.25,0.36,0.44,0.64,0.51c0.08,0.02,0.16,0.03,0.25,0.03
			c0.2,0,0.39-0.06,0.56-0.17c0.83-0.55,1.65-1.1,2.48-1.66l1.36-0.92c0.25-0.17,0.41-0.43,0.44-0.73c0.03-0.3-0.07-0.59-0.28-0.8
			c-0.66-0.68-0.92-1.45-0.78-2.35c0.11-0.62,0.43-1.16,0.93-1.55c0.5-0.38,1.07-0.58,1.66-0.58c0.68,0,1.34,0.28,1.91,0.8
			c0.19,0.17,0.43,0.26,0.68,0.26c0.04,0,0.08,0,0.12-0.01c0.29-0.03,0.55-0.19,0.71-0.43c0.87-1.29,1.73-2.57,2.61-3.88
			c0.16-0.24,0.21-0.55,0.13-0.83c-0.08-0.28-0.28-0.52-0.55-0.64c-0.89-0.4-1.41-0.99-1.63-1.87c-0.16-0.63-0.07-1.23,0.26-1.82
			c0.38-0.67,1.18-1.38,2.3-1.38c0.35,0,0.71,0.07,1.08,0.21c0.11,0.04,0.23,0.06,0.35,0.06c0.17,0,0.34-0.04,0.49-0.13
			c0.26-0.14,0.44-0.39,0.5-0.68c0.15-0.75,0.3-1.51,0.45-2.27c0.15-0.76,0.31-1.52,0.46-2.27c0.06-0.28-0.01-0.58-0.19-0.81
			c-0.18-0.23-0.44-0.37-0.73-0.39c-1.98-0.11-2.78-1.68-2.73-2.76c0.06-1.15,0.93-2.43,2.72-2.53c0.29-0.02,0.56-0.16,0.73-0.39
			s0.25-0.52,0.19-0.81c-0.3-1.49-0.6-2.98-0.91-4.49c-0.06-0.27-0.22-0.5-0.45-0.65c-0.16-0.1-0.34-0.15-0.53-0.15
			c-0.08,0-0.17,0.01-0.25,0.03c-0.45,0.12-0.87,0.17-1.24,0.17c-0.79,0-1.9-0.22-2.48-2.1c-0.22-0.7-0.12-2.12,1.64-2.99
			c0.26-0.13,0.45-0.36,0.53-0.64c0.07-0.28,0.03-0.58-0.14-0.82l-1.29-1.92l-1.29-1.93c-0.16-0.24-0.42-0.4-0.7-0.43
			c-0.04-0.01-0.08-0.01-0.13-0.01c-0.24,0-0.48,0.09-0.66,0.25c-0.61,0.54-1.27,0.82-1.95,0.82c-0.6,0-1.2-0.22-1.68-0.63
			c-0.6-0.51-0.9-1.13-0.93-1.9c-0.03-0.71,0.23-1.34,0.82-1.99c0.2-0.21,0.29-0.5,0.25-0.79s-0.19-0.55-0.43-0.71l-0.17-0.11
			c-1.24-0.84-2.46-1.66-3.68-2.49c-0.17-0.11-0.36-0.17-0.56-0.17c-0.09,0-0.17,0.01-0.25,0.03c-0.28,0.07-0.51,0.26-0.64,0.52
			c-0.47,0.94-1.09,1.45-2,1.65c-0.2,0.05-0.39,0.07-0.58,0.07c-0.5,0-0.97-0.16-1.44-0.48c-0.63-0.43-0.98-1.04-1.1-1.91
			c-0.04-0.3,0.03-0.63,0.11-1l0.05-0.24c0.03-0.14,0.12-0.56-0.15-0.96c-0.27-0.4-0.68-0.47-0.81-0.49
			c-1.17-0.22-2.35-0.45-3.53-0.69C35.61,0.05,35.43,0,35.25,0L35.25,0z M22.81,48c-0.67,0-1.26-0.09-1.8-0.28
			c-0.55-0.19-1.09-0.48-1.57-0.84c-0.88-0.66-1.45-1.66-1.74-3.06c-0.05-0.25-0.08-0.46-0.08-0.66l0-3.44
			c-0.01-6.78-0.02-13.79,0.01-20.68c0-1.16,0.42-2.24,1.26-3.2c0.81-0.94,1.85-1.42,3.36-1.56c0.25-0.02,0.5-0.04,0.75-0.04
			c0.78,0,1.5,0.12,2.2,0.37c0.94,0.33,1.68,0.96,2.27,1.91c0.58,0.93,0.86,2.03,0.86,3.33v4.35h-2.7l0-0.7c0-1.3,0-2.61,0.01-3.92
			c0.02-1.04-0.44-1.89-1.29-2.4c-0.45-0.26-0.91-0.39-1.38-0.39c-0.53,0-1.07,0.17-1.55,0.5c-0.68,0.47-1.06,1.24-1.06,2.16
			c-0.01,1.28,0,2.57,0,3.86l0,1.93v17.49c0,1.55,1.09,2.67,2.6,2.67c0.07,0,0.14,0,0.21-0.01c1.31-0.09,2.41-1.24,2.39-2.52
			c-0.02-1.44-0.02-2.91-0.01-4.33l0-1.74v-0.43c0-0.55-0.45-1-1-1h-0.59v-2.26h4.38c0,0.75,0,1.49,0,2.24
			c0.01,2.48,0.01,5.04-0.02,7.55c-0.02,1.34-0.41,2.46-1.21,3.4c-0.76,0.9-1.75,1.43-3.03,1.6C23.61,47.97,23.19,48,22.81,48
			L22.81,48z M36.08,14.55h4.05c1.46,11.02,2.93,22.07,4.4,33.11h-2.96c-0.01-0.1-0.03-0.21-0.04-0.31
			c-0.05-0.39-0.1-0.78-0.15-1.17l-0.12-0.86c-0.08-0.61-0.17-1.22-0.24-1.82c-0.04-0.33-0.08-0.66-0.11-0.99
			c-0.04-0.34-0.08-0.67-0.12-1.01l-0.04-0.35c-0.03-0.32-0.07-0.65-0.13-0.99c-0.1-0.56-0.66-1.05-1.24-1.05
			c-0.42-0.01-0.87-0.01-1.33-0.01l-0.67,0l-0.71,0c-0.5,0-0.93,0.37-0.99,0.87c-0.21,1.63-0.42,3.27-0.63,4.91l-0.36,2.79h-2.97
			C33.16,36.63,34.62,25.6,36.08,14.55L36.08,14.55z"/>
	</g>
	<g>
		<path class="st1" d="M37.93,36.78c-0.81-0.05-1.63-0.47-2.21-1.13c-0.53-0.61-0.79-1.37-0.73-2.13c-0.07-0.69,0.22-1.49,0.78-2.11
			c0.62-0.68,1.48-1.07,2.37-1.07c1.76,0.05,3.17,1.52,3.17,3.22c0,1.56-1.28,3.23-3.2,3.23C38.06,36.79,38,36.78,37.93,36.78z"/>
		<path class="st0" d="M38.15,30.84c0.03,0,0.05,0,0.08,0c1.37,0.04,2.59,1.28,2.59,2.72c0,1.36-1.14,2.73-2.7,2.73
			c-0.05,0-0.11,0-0.16-0.01c-1.22-0.07-2.59-1.22-2.47-2.72C35.36,32.15,36.67,30.84,38.15,30.84 M38.15,29.84
			C38.15,29.84,38.15,29.84,38.15,29.84c-1.03,0-2.02,0.45-2.74,1.23c-0.64,0.7-0.97,1.61-0.92,2.49c-0.05,0.87,0.26,1.73,0.86,2.42
			c0.66,0.76,1.62,1.24,2.56,1.3c0.07,0,0.15,0.01,0.22,0.01c2.21,0,3.7-1.93,3.7-3.73c0-1.96-1.63-3.66-3.56-3.72L38.15,29.84
			L38.15,29.84z"/>
	</g>
</g>
</svg>
