<?xml version="1.0" encoding="utf-8"?>
<!-- Generator: Adobe Illustrator 23.0.2, SVG Export Plug-In . SVG Version: 6.00 Build 0)  -->
<svg version="1.1" id="Layer_1" xmlns="http://www.w3.org/2000/svg" xmlns:xlink="http://www.w3.org/1999/xlink" x="0px" y="0px"
	 viewBox="0 0 595.28 841.89" style="enable-background:new 0 0 595.28 841.89;" xml:space="preserve">
<style type="text/css">
	.st0{fill:#876C6E;stroke:#000000;stroke-miterlimit:10;}
	.st1{stroke:#000000;stroke-width:0.25;stroke-miterlimit:10;}
	.st2{fill:#CDDABF;stroke:#000000;stroke-miterlimit:10;}
	.st3{fill:#FFFFFF;stroke:#000000;stroke-width:0.75;stroke-miterlimit:10;}
	.st4{fill:#67596B;stroke:#000000;stroke-miterlimit:10;}
	.st5{fill:#828487;stroke:#000000;stroke-miterlimit:10;}
	.st6{fill:#987766;stroke:#000000;stroke-miterlimit:10;}
	.st7{fill:#B0B0B2;stroke:#000000;stroke-miterlimit:10;}
	.st8{fill:#974D4E;stroke:#000000;stroke-miterlimit:10;}
	.st9{fill:#8E6E6E;stroke:#000000;stroke-miterlimit:10;}
	.st10{fill:#CFD6EC;stroke:#000000;stroke-miterlimit:10;}
	.st11{fill:#898996;stroke:#000000;stroke-miterlimit:10;}
	.st12{fill:#AA999B;stroke:#000000;stroke-miterlimit:10;}
	.st13{fill:none;}
</style>
<path class="st0" d="M297.08,306.8c-64.57,0-116.92,52.35-116.92,116.92s52.35,116.92,116.92,116.92
	c64.57,0,116.92-52.35,116.92-116.92S361.66,306.8,297.08,306.8z M296.53,526.7c-56.05,0-101.48-46.21-101.48-103.22
	c0-57.01,45.43-103.22,101.48-103.22c56.05,0,101.48,46.21,101.48,103.22C398.01,480.49,352.57,526.7,296.53,526.7z"/>
<g>
	<polygon class="st1" points="197.94,387.91 195.08,386.82 196.46,383.19 195,382.64 193.62,386.27 191.55,385.48 193.11,381.37 
		191.65,380.81 189.4,386.75 197.25,389.72 	"/>
	<path class="st1" d="M187.78,414.61c2.51,0.31,4.54-1.41,4.86-4.02c0.14-1.19-0.07-2.5-0.65-3.5l-3.38-0.41l-0.21,1.76l2.44,0.3
		c0.2,0.52,0.24,1.02,0.17,1.54c-0.19,1.6-1.44,2.57-3,2.38c-1.58-0.19-2.53-1.43-2.34-3.05c0.1-0.85,0.49-1.51,1.2-2.04l-0.99-1.38
		c-1.04,0.7-1.69,1.85-1.86,3.31C183.71,412.16,185.27,414.31,187.78,414.61z"/>
	<polygon class="st1" points="192.65,438.07 189.23,438.49 188.77,434.7 192.19,434.29 191.96,432.36 183.62,433.37 183.86,435.3 
		187.14,434.9 187.6,438.68 184.31,439.08 184.55,441.01 192.88,440 	"/>
	
		<rect x="191.34" y="464.06" transform="matrix(0.9351 -0.3544 0.3544 0.9351 -152.1276 99.492)" class="st1" width="8.4" height="1.94"/>
	<polygon class="st1" points="211.98,361.48 210.69,360.59 208.1,364.35 206.5,363.25 208.71,360.04 207.47,359.18 205.26,362.39 
		203.76,361.35 206.26,357.72 204.98,356.83 201.38,362.06 208.29,366.83 	"/>
	<path class="st1" d="M207.36,484.46l-4.48,3.09l2.77,4.02l1.28-0.89l-1.68-2.43l3.29-2.27c0.76-0.52,1.38-0.45,1.82,0.19
		c0.34,0.49,0.37,1.09,0.13,1.81l1.68,0.15c0.3-0.95,0.09-2.02-0.55-2.95C210.5,483.56,209.07,483.28,207.36,484.46z"/>
	<polygon class="st1" points="347.78,326.06 347.53,321.72 345.71,320.76 346.08,327.05 344.68,329.71 346.4,330.61 347.78,327.97 
		353.19,324.69 351.5,323.8 	"/>
	<polygon class="st1" points="325.76,320.63 321.12,319.49 326.91,315.2 327.21,313.97 320.35,312.28 319.97,313.82 324.35,314.9 
		318.55,319.19 318.25,320.41 325.38,322.17 	"/>
	<path class="st1" d="M296.09,309.95l-3.74,8.4h1.99l0.74-1.8h3.9l0.74,1.8h2.04l-3.75-8.4H296.09z M295.7,315.07l1.33-3.21
		l1.33,3.21H295.7z"/>
	<path class="st1" d="M272.55,321.23c2.14-0.53,3.06-1.62,2.71-3.03c-0.25-1.03-1.01-1.58-1.99-1.65c0.58-0.51,0.84-1.25,0.64-2.06
		c-0.31-1.27-1.57-1.86-3.61-1.36l-3.98,0.98l2.01,8.15L272.55,321.23z M273.32,318.47c0.17,0.7-0.28,1.13-1.25,1.37l-2.2,0.54
		l-0.5-2.01l2.2-0.54C272.54,317.59,273.15,317.78,273.32,318.47z M270.43,314.61c0.92-0.23,1.5-0.04,1.66,0.61
		c0.16,0.64-0.26,1.09-1.18,1.32l-1.88,0.46l-0.47-1.92L270.43,314.61z"/>
	<path class="st1" d="M248.52,330.35c1.3-0.68,2.12-1.71,2.37-2.94l-1.64-0.44c-0.19,0.85-0.66,1.47-1.41,1.86
		c-1.39,0.73-2.89,0.27-3.63-1.13c-0.74-1.4-0.26-2.9,1.13-3.63c0.74-0.39,1.53-0.42,2.33-0.11l0.57-1.6
		c-1.15-0.48-2.46-0.39-3.75,0.29c-2.31,1.22-3.19,3.72-2.02,5.96C243.65,330.86,246.21,331.56,248.52,330.35z"/>
	<path class="st1" d="M227.33,344.71c2.05-1.82,2.37-4.31,0.68-6.21c-1.69-1.9-4.19-1.89-6.25-0.07l-2.85,2.53l5.57,6.28
		L227.33,344.71z M222.75,339.68c1.25-1.11,2.73-1.08,3.79,0.12c1.07,1.2,0.91,2.67-0.34,3.78l-1.33,1.18l-3.45-3.9L222.75,339.68z"
		/>
	<polygon class="st1" points="227.02,505.29 225.4,505.42 225.58,501.17 223.88,499.67 223.55,505.59 218.47,506.09 220.08,507.52 
		225.47,507.05 222.87,509.99 224.31,511.27 229.88,504.98 228.43,503.7 	"/>
	<polygon class="st1" points="245.09,517.24 248.82,519.2 245.66,525.23 247.38,526.13 251.28,518.7 245.83,515.84 	"/>
	<polygon class="st1" points="272.39,531.24 270.97,526.73 270.12,526.52 266.73,529.96 267.92,525.06 266.15,524.63 264.17,532.79 
		265.71,533.17 269.97,528.84 271.77,534.66 273.33,535.04 275.34,526.89 273.57,526.46 	"/>
	<polygon class="st1" points="298.74,534.19 294.56,529.09 292.96,529.09 292.96,537.49 294.88,537.49 294.88,532.39 299.05,537.49 
		300.66,537.49 300.66,529.09 298.74,529.09 	"/>
	<path class="st1" d="M321.79,526c-2.56,0.63-4.02,2.88-3.42,5.32c0.6,2.43,2.94,3.75,5.5,3.12c2.57-0.63,4.02-2.89,3.42-5.31
		C326.69,526.69,324.37,525.37,321.79,526z M323.47,532.82c-1.46,0.36-2.81-0.43-3.19-1.98s0.45-2.88,1.91-3.24
		c1.46-0.36,2.81,0.43,3.19,1.98S324.93,532.47,323.47,532.82z"/>
	<path class="st1" d="M347.5,516.25l1.08,2.05l-1.5,0.79c-1.99,1.04-2.69,2.72-1.82,4.38c0.88,1.67,2.66,2.04,4.64,1l3.22-1.69
		l-3.9-7.43L347.5,516.25z M350.66,522.28l-1.4,0.74c-1.05,0.55-1.83,0.35-2.26-0.46c-0.42-0.81-0.14-1.56,0.91-2.12l1.4-0.74
		L350.66,522.28z"/>
	<path class="st1" d="M367.02,502.37c-1.88-0.16-2.83,0.07-3.77,0.9c-0.69,0.61-1.04,1.41-1.01,2.28l1.33,0.2
		c0.02-0.58,0.22-1.03,0.61-1.37c0.31-0.28,0.69-0.4,1.28-0.35c-0.96,1.62-0.83,3.59,0.48,5.06c1.66,1.88,4.34,1.95,6.32,0.2
		c1.98-1.76,2.21-4.43,0.56-6.3C371.3,501.29,368.93,501.06,367.02,502.37z M371.15,508.05c-1.12,1-2.69,0.93-3.75-0.27
		c-1.06-1.19-0.94-2.76,0.19-3.75c1.12-0.99,2.69-0.92,3.75,0.27C372.39,505.49,372.27,507.05,371.15,508.05z"/>
	<polygon class="st1" points="370.49,340.42 370.85,337.1 369.2,335.63 368.67,340.68 363.52,341.81 365.19,343.29 368.61,342.43 
		368.19,345.96 369.87,347.45 370.41,342.12 375.29,341.03 373.72,339.64 	"/>
	<path class="st1" d="M401.54,411.16c0.29,2.37,1.81,3.61,4.27,3.31l4.67-0.57l-0.23-1.91l-4.6,0.56c-1.58,0.19-2.32-0.41-2.46-1.59
		c-0.14-1.17,0.43-1.94,2.01-2.13l4.6-0.56l-0.23-1.93l-4.67,0.57C402.43,407.22,401.25,408.79,401.54,411.16z"/>
	<polygon class="st1" points="389.82,362.6 386.19,367.35 387.38,369.07 395.85,366.56 394.79,365.03 388.79,366.8 392.59,361.85 
		391.57,360.36 385.59,362.09 389.37,357.18 388.22,355.52 382.88,362.56 384.06,364.27 	"/>
	<path class="st1" d="M384.72,482.21l1.93,1.33l-0.96,1.39l-0.05,0.08l-2.84,0l-1.18,1.72l3.29-0.02c-0.24,1.16,0.16,2.21,1.2,2.93
		c1.55,1.07,3.3,0.58,4.58-1.27l2.06-2.99l-6.91-4.77L384.72,482.21z M387.92,484.42l2.41,1.66l-0.9,1.3
		c-0.67,0.98-1.46,1.16-2.22,0.64c-0.75-0.52-0.86-1.32-0.19-2.3L387.92,484.42z"/>
	<polygon class="st1" points="405.02,387.55 404.33,385.74 397.81,385.45 402.51,380.93 401.76,378.97 395.2,385.33 395.88,387.13 	
		"/>
	<path class="st1" d="M402.58,459.35c-2.92-1.11-3.64,3.84-5.11,3.28c-0.48-0.18-0.68-0.76-0.27-1.83c0.36-0.94,1.07-1.8,1.8-2.28
		l-1.13-1.14c-0.8,0.49-1.65,1.61-2.12,2.85c-0.85,2.24-0.14,3.76,1.17,4.25c2.88,1.09,3.62-3.85,5.06-3.3
		c0.49,0.19,0.74,0.75,0.33,1.83c-0.26,0.7-0.75,1.37-1.44,1.94l1.17,1.08c0.74-0.55,1.35-1.47,1.73-2.46
		C404.61,461.36,403.91,459.86,402.58,459.35z"/>
	<polygon class="st1" points="408.97,432.72 408.65,435.39 401.89,434.56 401.65,436.49 408.42,437.31 408.09,439.98 409.66,440.17 
		410.55,432.91 	"/>
</g>
<path class="st2" d="M297.08,303.24c-66.54,0-120.47,53.94-120.47,120.47s53.94,120.47,120.47,120.47s120.47-53.94,120.47-120.47
	S363.62,303.24,297.08,303.24z M297.08,540.64c-64.57,0-116.92-52.35-116.92-116.92S232.51,306.8,297.08,306.8
	c64.57,0,116.92,52.35,116.92,116.92S361.66,540.64,297.08,540.64z"/>
<path class="st3" d="M295.65,419.82c2.15-0.55,4.35,0.74,4.9,2.9c0.55,2.15-0.74,4.35-2.9,4.9c-2.15,0.55-4.35-0.74-4.9-2.9
	C292.19,422.56,293.49,420.37,295.65,419.82z"/>
<path class="st4" d="M297.08,320.5c-56.05,0-101.48,46.21-101.48,103.22c0,57.01,45.43,103.22,101.48,103.22
	c56.05,0,101.48-46.21,101.48-103.22C398.56,366.71,353.13,320.5,297.08,320.5z M340.45,386.79c4.66-2.69,10.61-1.09,13.3,3.56
	s1.09,10.61-3.56,13.3c-4.66,2.69-10.61,1.09-13.3-3.56C334.2,395.43,335.8,389.48,340.45,386.79z M229.25,422.71
	c0-5.38,4.36-9.73,9.73-9.73c5.38,0,9.73,4.36,9.73,9.73s-4.36,9.73-9.73,9.73C233.6,432.44,229.25,428.08,229.25,422.71z
	 M251.48,460.64c-4.66,2.69-10.61,1.09-13.3-3.56c-2.69-4.66-1.09-10.61,3.56-13.3c4.66-2.69,10.61-1.09,13.3,3.56
	S256.14,457.95,251.48,460.64z M255.04,400.09c-2.69,4.66-8.64,6.25-13.3,3.56c-4.66-2.69-6.25-8.64-3.56-13.3s8.64-6.25,13.3-3.56
	S257.73,395.43,255.04,400.09z M275.9,477.94c-2.69,4.66-8.64,6.25-13.3,3.56c-4.66-2.69-6.25-8.64-3.56-13.3
	c2.69-4.66,8.64-6.25,13.3-3.56C277,467.33,278.59,473.28,275.9,477.94z M272.34,382.79c-4.66,2.69-10.61,1.09-13.3-3.56
	c-2.69-4.66-1.09-10.61,3.56-13.3c4.66-2.69,10.61-1.09,13.3,3.56S277,380.11,272.34,382.79z M295.97,490.44
	c-5.38,0-9.73-4.36-9.73-9.73s4.36-9.73,9.73-9.73c5.38,0,9.73,4.36,9.73,9.73S301.34,490.44,295.97,490.44z M295.97,376.46
	c-5.38,0-9.73-4.36-9.73-9.73s4.36-9.73,9.73-9.73c5.38,0,9.73,4.36,9.73,9.73S301.34,376.46,295.97,376.46z M329.33,481.5
	c-4.66,2.69-10.61,1.09-13.3-3.56s-1.09-10.61,3.56-13.3c4.66-2.69,10.61-1.09,13.3,3.56C335.58,472.86,333.98,478.81,329.33,481.5z
	 M332.89,379.23c-2.69,4.66-8.64,6.25-13.3,3.56c-4.66-2.69-6.25-8.64-3.56-13.3s8.64-6.25,13.3-3.56S335.58,374.58,332.89,379.23z
	 M353.75,457.08c-2.69,4.66-8.64,6.25-13.3,3.56c-4.66-2.69-6.25-8.64-3.56-13.3s8.64-6.25,13.3-3.56
	C354.84,446.47,356.44,452.42,353.75,457.08z M352.95,432.44c-5.38,0-9.73-4.36-9.73-9.73s4.36-9.73,9.73-9.73s9.73,4.36,9.73,9.73
	S358.33,432.44,352.95,432.44z"/>
<circle class="st5" cx="296.65" cy="423.72" r="2.6"/>
<g>
	<g>
		<polygon class="st6" points="243.98,366.97 238.12,371 231.7,367.94 231.14,360.85 237,356.82 243.42,359.88 		"/>
	</g>
	
		<rect x="232.75" y="362.9" transform="matrix(0.4303 -0.9027 0.9027 0.4303 -193.2084 421.4621)" class="st7" width="9.08" height="1.79"/>
</g>
<g>
	<g>
		<circle class="st8" cx="356.97" cy="364.52" r="7.66"/>
	</g>
	<g>
		<polygon class="st9" points="357.23,358.62 355.04,359.02 355.85,363.55 351,364.91 351.6,367.05 356.24,365.76 357.03,370.16 
			359.23,369.76 358.4,365.16 362.5,364.01 361.9,361.86 358.01,362.95 		"/>
	</g>
</g>
<g>
	<g>
		<circle class="st8" cx="237.1" cy="482.95" r="7.66"/>
	</g>
	<g>
		<polygon class="st9" points="240.14,477.89 238.02,477.19 236.58,481.57 231.67,480.46 231.18,482.64 235.88,483.7 234.48,487.95 
			236.6,488.64 238.06,484.19 242.21,485.13 242.71,482.96 238.76,482.07 		"/>
	</g>
</g>
<g>
	<g>
		<polygon class="st5" points="354.73,489.16 349.54,484.3 351.16,477.37 357.97,475.31 363.16,480.17 361.54,487.1 		"/>
	</g>
	
		<rect x="351.86" y="481.06" transform="matrix(0.9737 0.2277 -0.2277 0.9737 119.1293 -68.5041)" class="st7" width="9.08" height="1.79"/>
</g>
<circle class="st10" cx="295.97" cy="423.72" r="38.27"/>
<rect x="308.55" y="451.3" transform="matrix(0.6319 0.7751 -0.7751 0.6319 466.3721 -76.9666)" class="st11" width="11.32" height="2.35"/>
<rect x="309.86" y="450.21" transform="matrix(0.658 0.7531 -0.7531 0.658 447.8364 -83.2098)" class="st11" width="11.32" height="2.35"/>
<rect x="311.13" y="449.08" transform="matrix(0.6833 0.7301 -0.7301 0.6833 429.0839 -88.7012)" class="st11" width="11.32" height="2.35"/>
<rect x="312.36" y="447.9" transform="matrix(0.7078 0.7064 -0.7064 0.7078 410.1482 -93.4333)" class="st11" width="11.32" height="2.35"/>
<rect x="313.55" y="446.69" transform="matrix(0.7315 0.6818 -0.6818 0.7315 391.0634 -97.4)" class="st11" width="11.32" height="2.35"/>
<rect x="314.7" y="445.43" transform="matrix(0.7544 0.6564 -0.6564 0.7544 371.8635 -100.5971)" class="st11" width="11.32" height="2.35"/>
<rect x="315.8" y="444.14" transform="matrix(0.7763 0.6303 -0.6303 0.7763 352.5828 -103.0219)" class="st11" width="11.32" height="2.35"/>
<rect x="316.86" y="442.81" transform="matrix(0.7974 0.6034 -0.6034 0.7974 333.2555 -104.6736)" class="st11" width="11.32" height="2.35"/>
<rect x="317.87" y="441.44" transform="matrix(0.8175 0.5759 -0.5759 0.8175 313.9156 -105.553)" class="st11" width="11.32" height="2.35"/>
<rect x="318.84" y="440.04" transform="matrix(0.8367 0.5476 -0.5476 0.8367 294.5973 -105.6627)" class="st11" width="11.32" height="2.35"/>
<rect x="319.76" y="438.61" transform="matrix(0.8549 0.5187 -0.5187 0.8549 275.3339 -105.0068)" class="st11" width="11.32" height="2.35"/>
<rect x="320.63" y="437.15" transform="matrix(0.8722 0.4892 -0.4892 0.8722 256.1587 -103.5911)" class="st11" width="11.32" height="2.35"/>
<rect x="321.44" y="435.66" transform="matrix(0.8883 0.4592 -0.4592 0.8883 237.1045 -101.423)" class="st11" width="11.32" height="2.35"/>
<rect x="322.21" y="434.14" transform="matrix(0.9035 0.4286 -0.4286 0.9035 218.2036 -98.5116)" class="st11" width="11.32" height="2.35"/>
<rect x="322.93" y="432.6" transform="matrix(0.9176 0.3975 -0.3975 0.9176 199.4874 -94.8673)" class="st11" width="11.32" height="2.35"/>
<rect x="323.59" y="431.03" transform="matrix(0.9306 0.3659 -0.3659 0.9306 180.9867 -90.5022)" class="st11" width="11.32" height="2.35"/>
<rect x="324.19" y="429.44" transform="matrix(0.9426 0.3339 -0.3339 0.9426 162.7316 -85.4298)" class="st11" width="11.32" height="2.35"/>
<rect x="324.75" y="427.83" transform="matrix(0.9534 0.3016 -0.3016 0.9534 144.7513 -79.6648)" class="st11" width="11.32" height="2.35"/>
<rect x="325.24" y="426.21" transform="matrix(0.9632 0.2688 -0.2688 0.9632 127.074 -73.2234)" class="st11" width="11.32" height="2.35"/>
<rect x="325.69" y="424.56" transform="matrix(0.9718 0.2358 -0.2358 0.9718 109.7268 -66.1231)" class="st11" width="11.32" height="2.35"/>
<path class="st12" d="M288.46,401.64c-0.33,0.12-0.66,0.24-0.98,0.37l-31.58-41.24c-1.42-1.86-4.1-2.21-5.96-0.79l-2.25,1.72
	c-1.86,1.42-2.21,4.1-0.79,5.96l31.41,41.01c-0.42,0.51-0.82,1.03-1.19,1.57l-49.22-17.21c-2.21-0.77-4.65,0.4-5.42,2.61l-0.94,2.68
	c-0.77,2.21,0.4,4.65,2.61,5.42l48.95,17.12c-0.39,3.35-0.04,6.84,1.14,10.24c4.21,12.06,17.39,18.43,29.46,14.22
	c12.06-4.21,18.43-17.39,14.22-29.46C313.71,403.8,300.52,397.43,288.46,401.64z M305.44,420.21c1.8,5.17-0.93,10.83-6.1,12.63
	c-5.17,1.8-10.83-0.93-12.63-6.1c-1.8-5.17,0.93-10.83,6.1-12.63C297.98,412.3,303.64,415.03,305.44,420.21z"/>
<g>
	<g>
		<polygon class="st6" points="271.87,400.15 272.45,394.61 277.54,392.33 282.06,395.6 281.49,401.15 276.39,403.42 		"/>
	</g>
	
		<rect x="273.61" y="397.07" transform="matrix(0.4085 0.9128 -0.9128 0.4085 527.0276 -17.6984)" class="st7" width="7.12" height="1.4"/>
</g>
<g>
	<g>
		<polygon class="st6" points="262.35,410.77 266.81,407.43 271.94,409.63 272.6,415.17 268.13,418.51 263.01,416.31 		"/>
	</g>
	
		<rect x="264.13" y="412.35" transform="matrix(-0.3943 0.919 -0.919 -0.3943 752.8193 329.9122)" class="st7" width="7.12" height="1.4"/>
</g>
<g>
	<g>
		<circle class="st8" cx="268.68" cy="437.33" r="6.19"/>
	</g>
	<g>
		<polygon class="st9" points="273.06,439.22 273.4,437.45 269.74,436.76 270.1,432.71 268.31,432.54 267.96,436.42 264.41,435.76 
			264.07,437.53 267.79,438.23 267.48,441.65 269.28,441.81 269.57,438.56 		"/>
	</g>
</g>
<g>
	<g>
		<circle class="st8" cx="299.24" cy="393.05" r="6.19"/>
	</g>
	<g>
		<polygon class="st9" points="304,392.69 303.47,390.97 299.91,392.06 298.36,388.3 296.69,388.98 298.18,392.59 294.73,393.64 
			295.25,395.37 298.87,394.26 300.19,397.44 301.85,396.75 300.6,393.73 		"/>
	</g>
</g>
<g>
	<g>
		<circle class="st8" cx="303.33" cy="453.47" r="6.19"/>
	</g>
	<g>
		<polygon class="st9" points="304.56,448.86 302.76,448.8 302.62,452.52 298.55,452.75 298.66,454.55 302.55,454.33 302.42,457.94 
			304.22,458 304.36,454.22 307.79,454.02 307.69,452.22 304.42,452.41 		"/>
	</g>
</g>
<g>
	<g>
		<circle class="st8" cx="325.8" cy="415.63" r="6.19"/>
	</g>
	<g>
		<polygon class="st9" points="327.32,411.11 325.52,410.93 325.15,414.63 321.08,414.61 321.07,416.41 324.97,416.43 324.6,420.03 
			326.4,420.21 326.78,416.44 330.22,416.46 330.23,414.66 326.96,414.64 		"/>
	</g>
</g>
<g>
	<g>
		<polygon class="st5" points="284.46,453.21 280.26,454.56 276.99,451.61 277.92,447.3 282.11,445.94 285.38,448.9 		"/>
	</g>
	
		<rect x="278.24" y="449.59" transform="matrix(0.671 -0.7414 0.7414 0.671 -241.2925 356.4723)" class="st7" width="5.63" height="1.11"/>
</g>
<g>
	<g>
		<polygon class="st5" points="310.38,401.43 310.4,397.02 314.23,394.83 318.04,397.05 318.02,401.46 314.19,403.65 		"/>
	</g>
	
		<rect x="311.55" y="398.59" transform="matrix(0.4958 0.8685 -0.8685 0.4958 505.1539 -71.7454)" class="st7" width="5.63" height="1.11"/>
</g>
<path id="SVGID_x5F_1_x5F_" class="st13" d="M384.22,446.32c-7.97,48.64-53.19,81.71-101,73.88
	c-47.82-7.83-80.12-53.61-72.16-102.24c7.97-48.64,53.19-81.71,101-73.88C359.88,351.91,392.18,397.69,384.22,446.32z"/>
<text><textPath  xlink:href="#SVGID_x5F_1_x5F_" startOffset="87.2721%">
<tspan  style="fill:#FFFFFF;stroke:#000000;stroke-miterlimit:10; font-family:'Montserrat-Bold'; font-size:23.2511px;">HOME</tspan></textPath>
</text>
</svg>
