<?xml version="1.0" encoding="utf-8"?>
<!-- Generator: Adobe Illustrator 23.0.2, SVG Export Plug-In . SVG Version: 6.00 Build 0)  -->
<svg version="1.1" id="Layer_1" xmlns="http://www.w3.org/2000/svg" xmlns:xlink="http://www.w3.org/1999/xlink" x="0px" y="0px"
	 viewBox="0 0 360.19 585.93" style="enable-background:new 0 0 360.19 585.93;" xml:space="preserve">
<style type="text/css">
	.st0{fill:#FF0013;}
</style>
<path d="M49.95,101.95c-1.77-4.36-3.78-8.64-5.18-13.11c-0.52-1.67,0.37-3.79,0.56-5.19c3.46,0.3,6.62-0.15,9.07,0.96
	c3.4,1.53,6.37,4.11,9.3,6.51c1.08,0.88,1.37,2.65,2.25,3.84c2.31,3.11,4.9,3.81,7.88,0.72c1.22-1.27,2.65-2.33,4.3-3.75
	c0.39,1.45,0.61,2.27,1.08,4.01c4.17-4.47,7.83-8.39,12.24-13.12c2.19,0.18,4.13,1.46,2.02,5.21c-2.83,5.02-5.48,10.2-8.96,14.74
	c-1.36,1.78-4.29,4.14-7.39,0.09c-1.33-1.73-5.54-1.26-8.44-1.79c0.06,2.17-0.23,4.42,0.24,6.49c1.23,5.37,2.79,10.66,4.79,18.12
	c3.82,1.17,9.78,3.02,15.74,4.83c7.06,2.15,18.63-3.78,21.82-10.76c0.9-1.97,3.06-3.4,4.74-4.97c0.83-0.78,1.94-1.26,2.82-2
	c1.84-1.55,3.36-4.03,5.44-4.63c7.66-2.22,15.49-3.84,23.26-5.68c0.23,0.87,0.47,1.74,0.7,2.61c-8.29,2.68-16.57,5.36-24.86,8.04
	c0.21,0.89,0.42,1.78,0.63,2.68c18.6-4.56,37.19-9.18,56.51-7.77c-1.49,7.81,0.68,8.14-8.64,8.06c-10.04-0.09-20.14,1.7-30.15,3.11
	c-6.7,0.94-13.32,2.56-19.92,4.1c-1.58,0.37-2.94,1.64-4.4,2.49c0.14,0.41,0.29,0.83,0.43,1.24c14.92-2.17,29.77-5.19,44.77-6.28
	c14.99-1.09,30.12-0.24,45.21-0.81c-5.15-4.25-10.97-4.8-16.43-3.63c-1.75-2.56-3.17-4.63-5.29-7.73c2.32-0.2,4.52-0.71,6.66-0.51
	c4.79,0.46,9.53,1.54,13.84-1.84c0.71-0.56,2.62-0.75,3.12-0.25c4.72,4.74,7.42,0.32,11.35-1.93c-1.44-1.24-2.33-2.01-3.48-2.99
	c6.4-3.45,12.47-1.95,18.6-0.4c5.91,1.5,11.84,3.52,17.83,3.79c2.57,0.12,5.46-3.46,7.91-5.68c0.96-0.87,1.13-2.6,1.78-4.24
	c2.45,1.14,4.45,2.07,7.05,3.28c-2.72,3.3-4.6,6.81-7.51,8.74c-2.77,1.84-7.22,3.63-9.91,2.65c-7.27-2.67-12.39-2.27-15.07,6.19
	c5.61,6.29,14.1,2.03,20.97,5.1c-3.31,0.42-6.62,0.84-10.09,1.28c0.54,4.53,3.42,5.7,6.64,6.15c6,0.83,11.19-1.1,16.51-4.02
	c5.07-2.78,9.21-6.02,12.62-10.68c3.68-5.02,3.18-8.23-2.55-11.19c-0.37-0.19-0.55-0.72-1.24-1.66c1.75,0.17,2.95,0.42,4.13,0.35
	c1.29-0.08,2.56-0.46,4.57-0.86c-1.36-1.24-2.23-2.04-3.92-3.59c5.38,0.98,4.87-2.13,4.46-5.93c3.65,3.39,5.85,3.34,7.78-0.94
	c1.02-2.26,3.73-3.9,5.95-5.43c3.42-2.35,6.95-1.37,9.69,2.31c-2.29,4.32-0.59,12.22,3.27,15.19c6.43-6.37,6.38-6.35,3.16-14.33
	c-0.67-1.65-1.11-3.51-1.09-5.27c0.01-1.67,0.75-3.33,1.17-5c1.21,1.09,2.31,2.37,3.67,3.22c1.22,0.76,3.7,1.79,3.96,1.44
	c1.7-2.26,6.08-3.47,3.69-7.61c-0.87-1.51-2.05-2.84-3.57-4.9c4.29,0.05,5.55,2.51,5.49,5.08c-0.19,7.94,0.14,15.46-6.65,22.34
	c-3.75,3.8-6.97,6.7-11.85,8.36c-1.01,0.34-1.78,2.62-1.84,4.05c-0.04,0.83,1.54,2.47,2.4,2.48c6.75,0.05,11.1,4.58,16.04,8.09
	c1.1,0.78,2.55,1.07,3.83,1.59c0.23-1.53,0.87-3.14,0.58-4.56c-0.35-1.73-1.68-3.25-2.22-4.97c-0.33-1.07,0.03-2.35,0.08-3.54
	c1.17,0.28,2.47,0.34,3.49,0.9c0.98,0.54,1.86,1.47,2.46,2.43c2.06,3.33,3.96,3.46,7.18,0.97c3.6-2.78,7.47-1.79,10.8,1.41
	c3.39,3.25,2.83,6.41,0.21,9.71c-0.52,0.65-1.02,1.32-1.48,2.01c-3.71,5.49-4.36,5.6-9.81,1.49c-2.99,2.01-3.48,4.11-0.38,6.55
	c1.18,0.93,2.35,1.87,3.58,2.73c1.72,1.21,4.9,2.25,4.98,3.53c0.23,3.56-0.23,7.45-1.57,10.73c-0.81,1.98-3.9,2.93-5.72,4.62
	c-1.34,1.24-3.56,3.47-3.2,4.3c2.05,4.68,0.7,8.58-1.46,12.69c-2.39,4.55-4.32,9.29,2.49,13.75c-2.49,0.2-3.4,0.16-4.24,0.37
	c-1.35,0.34-3.48,0.54-3.79,1.35c-0.48,1.29-0.18,3.34,0.6,4.54c3.36,5.1,3.2,7.74-1.43,11.66c-1.51,1.28-3.27,2.26-5.18,3.56
	c0.81,3.56,1.79,7.22,2.46,10.94c3.04,16.94,2.4,33.93,2.31,51.08c-0.09,16.2-4.77,31.54-5.15,47.49c-0.04,1.55-0.62,3.44-1.63,4.56
	c-4.52,4.99-9.29,9.76-14.29,14.95c-0.34-1.68-0.76-3.39-1-5.12c-0.27-1.98,1.17-4.66-2.31-5.2c0.73-3.18,1.34-6.4,2.26-9.53
	c0.31-1.05,2.22-2.05,2.05-2.76c-1.4-5.88-3.1-11.68-4.9-18.16c-0.87,1.09-1.73,1.92-2.3,2.92c-7.34,12.89-15.63,24.77-29.72,31.37
	c-7.19,3.36-13.77,8.19-21.17,10.85c-5.4,1.94-11.71,2-17.58,1.84c-5.94-0.16-11.88-1.44-17.77-2.54
	c-7.19-1.34-14.18-1.68-21.73,3.51c2.22-5.18,3.38-8.64,7.47-11.34c3.43-2.26,5.12-7.18,7.58-10.92c-0.49-0.54-0.97-1.07-1.46-1.61
	c-2.09,1.19-4.28,2.24-6.22,3.65c-0.86,0.62-1.02,2.17-1.84,2.92c-1.35,1.24-2.99,2.18-4.5,3.24c-0.7-1.85-1.98-3.71-1.97-5.55
	c0.01-2.42,0.7-4.99,1.7-7.24c3.99-9.01,8.16-18.17,16.92-23.5c6.77-4.12,14.16-7.26,22.62-5c1.64,0.44,3.61-0.19,5.39-0.51
	c6.7-1.2,13.49-2.1,20.06-3.81c11.38-2.96,23.05-5.87,31.42-14.91c3.55-3.83,5.83-8.85,8.53-13.42c0.42-0.71,0.28-1.98,0-2.86
	c-5.71-17.49-10.71-35.25-17.46-52.33c-6.03-15.26-17.17-26.69-33.45-31.18c-8.52-2.35-17.59-3.07-26.47-3.7
	c-9.71-0.68-19.77,0.93-29.11-1.1c-4.94-1.07-9.39,0.35-14.07-0.25c-3.31-0.43-7.47,1.49-11.33,0.07c-2.51-0.92-4.96-2.04-7.9-3.26
	c-1.97,0-4.73,0.43-7.3-0.08c-6.77-1.35-13.43-3.25-20.2-4.66c-17.74-3.7-32.46,1.63-46.3,13.29
	c-11.05,9.31-20.58,19.56-27.14,32.12c-5.18,9.92-9.35,20.61-12.19,31.42c-1.75,6.67-1.78,14.77,0.43,21.19
	c2.03,5.91,7.22,11.81,12.59,15.23c7.88,5.01,16.99,8.3,25.91,11.37c6.97,2.41,14.41,3.46,21.68,4.98
	c13.76,2.88,27.56,5.54,41.29,8.55c3.35,0.74,6.23,2.47,4.94,7.09c-0.39,1.38,0.21,3.5,1.11,4.71c5.37,7.16,5.23,15.62,5.99,23.87
	c0.57,6.2,0.93,12.43,1.38,18.64c-0.43,0.13-0.85,0.26-1.28,0.39c-0.65-0.57-1.57-1.01-1.9-1.73c-3.28-7.14-9.66-8.51-16.31-7.92
	c-6.6,0.58-13.09,2.37-19.61,3.74c-13.82,2.91-26.35,0.67-37.61-8.36c-4.11-3.3-8.89-5.82-13.56-8.34
	c-9.58-5.17-17.33-12.35-23.65-21.09c-1.21-1.68-1.59-3.96-2.37-5.96c-0.87-2.24-1.75-4.47-2.67-6.79
	c-0.94,0.52-1.49,0.75-1.47,0.81c1.78,5.94-2.07,10.34-4.05,15.28c-1.21,3.02-2.56,6.17-2.82,9.35
	c-0.86,10.78-2.94,12.14-12.34,7.86c-0.61-9.5,1.36-18.6-1.55-27.98c-4.14-13.33-5.25-26.86-3.93-41.22
	c1.13-12.34,2.98-24.3,5.99-36.19c1.63-6.44,4.21-12.67,5.49-19.16c0.88-4.5,1.64-8.78,4.67-12.39c0.62-0.73,0.92-1.78,1.22-2.72
	c0.9-2.91,2.07-6.4-1.42-7.91c-1.74-0.76-4.5,0.82-7.3,1.46c-1.61-1.76-3.96-4.33-7.31-7.98c2.22,1.07,3.41,1.5,4.44,2.17
	c5.65,3.67,10.07,1.99,13.13-4.01c3.3-6.48,6.04-12.3-2.68-16.61c-0.26-0.13-0.39-0.53-0.59-0.79c-7.5-9.68-5.82-14.13,7.33-16.2
	c-0.92,1.12-1.68,2.45-2.8,3.31c-1.43,1.09-3.37,1.57-4.66,2.77c-0.72,0.68-0.93,2.36-0.68,3.43c0.11,0.48,1.9,0.72,2.95,0.8
	c4.86,0.35,9.84-1.21,14.47,2.01c4.2,2.92,7.12,1.38,7.84-3.73c0.68-4.76,1.4-9.55,1.52-14.33c0.05-2.14-0.82-4.73-2.18-6.37
	c-1.79-2.16-4.63-3.03-6.84-0.24c-4.37,5.53-8.01,6.9-14.24,5.01c-11.55-3.51-13.08-2.39-13.24,9.61c-0.02,1.33,0.01,2.7-0.3,3.97
	c-1.16,4.85-0.17,8.77,4.07,11.87c2.75,2.01,3.61,4.72,0.34,8.19c-1.61-1.28-3.15-2.62-4.8-3.8c-1.36-0.98-2.85-1.78-4.28-2.65
	c-0.29,1.91-0.71,3.82-0.81,5.74c-0.03,0.67,0.72,1.38,1.8,3.26c-5.94-3.56-10.89-5.55-11.37-12.76c-0.3-4.64-1.41-9.96-6.53-12.73
	c-0.72-0.39-1.28-1.65-1.38-2.56c-0.75-7.47-1.37-14.96-2.04-22.45c0.71-0.22,1.43-0.43,2.14-0.65c0.69,1.58,1.75,3.1,2.01,4.74
	c0.62,3.9,0.66,7.91,1.4,11.78c0.21,1.11,1.98,1.92,3.03,2.87c0.92-1.02,2.38-1.91,2.64-3.08c0.75-3.37,1.57-6.89,1.35-10.28
	c-0.33-4.99,2.14-8.55,4.61-12.31c0.97-1.48,2.49-3.3,2.27-4.75c-1.02-6.89,3.53-10.19,9.24-13.48c-0.53,2.67-0.85,5.41-1.64,8
	c-0.86,2.79-2.24,5.43-3.26,8.18c-0.71,1.92-2.21,5.24-1.64,5.67c3.04,2.3,6.51,4.15,10.08,5.5c0.72,0.27,2.5-2.28,3.41-3.96
	c4.2-2.95,10.57-3.65,10.34-11.06c1,1.86,2,3.73,3.37,6.26c0.5,0.02,2.08,0.09,3.92,0.18c-0.1,1.81-0.19,3.34-0.38,6.63
	c2.45-2.04,4.39-2.89,5-4.31c2.1-4.85-1.97-16.52-6.41-19.39c-3.14-2.02-5.04-1.29-5.37,2.36C49.67,96.31,49.92,99.14,49.95,101.95z
	 M339.75,138.02c0.69,1.6,1.07,3.49,2.18,4.71c0.74,0.82,2.52,0.7,3.84,1c0.1-1.05,0.69-2.47,0.22-3.1
	c-3.75-5.05-7.49-10.14-11.66-14.83c-2.35-2.64-5.41-1.64-7.07,1.74c-4.31,8.73-5.51,9.14-15.19,6.26c-2.9-0.86-4.14-1.89-3.5-5.22
	c0.3-1.56-1.22-3.47-1.91-5.22c-1.11,1.64-2.61,3.15-3.22,4.96c-0.62,1.82-0.13,3.99-0.54,5.92c-0.38,1.8-1.32,3.47-2.32,5.99
	c-3.61-4.35-6.56-7.9-9.5-11.46c0.45-2.64,0.98-5.79,1.52-8.94c-0.69-0.16-1.38-0.33-2.07-0.49c-3.03,4.86-3.48,10.66-4.16,16.18
	c-0.43,3.45,0.45,6.98-3.22,9.28c-0.59,0.37-0.64,1.62-0.93,2.47c1.02,0.29,2.44,1.17,3.01,0.78c2.21-1.49,4.16-3.38,6.52-5.39
	c1.63,3.83,4.1,0.67,5.61-0.03c3.02,2.55,5.57,4.7,8.6,7.27c0.65-2,1.05-3.26,1.46-4.51c1.31,2.44,0.86,5.04,1.68,7.14
	c2.46,6.32,5.34,12.48,8.24,18.61c0.77,1.64,2.2,2.97,3.33,4.45c1.22-1.24,2.65-2.33,3.62-3.74c3.02-4.42,5.87-8.96,9.19-14.07
	c-6.33-2.05-13.04-4.23-19.74-6.41c3.85-2.21,7.5-3.56,11.26-4.39C330.85,145.67,338.04,146.76,339.75,138.02z M286.92,115.86
	c0.14,0.33,0.28,0.67,0.43,1c2.59-1.3,5.19-2.59,8.84-4.42c-0.62,2.19-1.17,3.11-1.04,3.92c0.22,1.32,0.88,2.57,1.35,3.84
	c0.74-0.98,1.41-2.02,2.23-2.93c0.89-0.99,1.82-2.02,2.92-2.75c6.68-4.42,7.94-8.33,0.73-14.83c-3.08-2.78-5.69-2.3-7.64,1.35
	C292.1,105.96,289.52,110.92,286.92,115.86z M281.55,321.85c0.17,0.19,0.35,0.38,0.52,0.57c1.57-1.32,3.13-2.66,4.71-3.97
	c2.81-2.33,5.37-5.14,8.53-6.83c4.43-2.37,10.86-11.83,9.86-17.24c-2.1,2.43-3.92,4.23-5.37,6.29c-2.89,4.11-5.92,7.53-11,9.51
	c-4.51,1.76-8.25,5.5-12.33,8.37c0.23,0.38,0.46,0.75,0.69,1.13c1.82-0.1,3.64-0.2,5.83-0.32
	C282.3,320.56,281.93,321.2,281.55,321.85z M165.52,340.19c0.51-6.05-2.31-10.61-8.22-13.24c0.72-5.21-0.86-7.55-6.4-8.96
	c-1.06-0.27-2.34,0.29-3.52,0.47c0.52,1.05,0.85,2.29,1.61,3.13c3.57,3.95,7.14,7.83,4.42,13.07
	C157.56,336.54,161.44,338.32,165.52,340.19z M310.03,284.77c2.71,6.44,2.71,6.44,6.17,5.82c-2.85-8.26-2.85-8.26-12.87-6.77
	c0.87-2.62,1.69-5.09,2.69-8.1c-7.46,2.78-8.36,6.22-5.29,17.48c0.46-0.06,1.11,0.05,1.37-0.22
	C304.66,290.42,307.14,287.79,310.03,284.77z M59.58,306.32c2.87,6.93,21.32,15.55,27.13,11.96c-1.7-0.89-3.06-1.54-4.37-2.28
	c-4.65-2.64-9.8-4.71-13.75-8.16C65.41,305.06,62.99,304.52,59.58,306.32z M218.3,118.65c1.99-4.09,4.43-5.38,8.25-3.39
	c1.11,0.58,3.15,0.31,4.3-0.37c1.21-0.71,1.88-2.37,2.78-3.61c-1.23-0.52-2.42-1.14-3.69-1.53c-0.89-0.28-2.25,0.11-2.75-0.42
	c-3.32-3.51-6.59-1.36-9.47,0.29c-1.68,0.96-3.33,3.09-3.62,4.91C213.93,115.57,216.56,117.03,218.3,118.65z M128.95,333.95
	c-0.34-0.51-0.69-1.01-1.03-1.52c-6.81,1.69-9.01,0.5-14.25-7.23c-0.77-1.13-2.53-2.43-3.62-2.27c-1.37,0.21-3.15,1.63-3.58,2.93
	c-0.35,1.06,0.64,3.45,1.67,3.95c5.14,2.5,10.4,4.82,15.82,6.59C125.22,336.81,127.27,334.83,128.95,333.95z M331.78,190.69
	c-1.3-3.91-0.1-8.44-4.54-7.64c-2.15,0.39-5.31,4.29-5.11,6.33c0.27,2.87,3.23,5.49,5.03,8.22
	C328.83,195.1,330.51,192.59,331.78,190.69z M276.56,309.06c0.16,0.54,0.31,1.07,0.47,1.61c2.85-1.21,6.17-1.86,8.45-3.76
	c3.33-2.77,6.01-6.37,8.79-9.76c1.3-1.58,2.19-3.49,3.27-5.26c-0.57-0.46-1.14-0.91-1.71-1.37
	C289.41,296.71,282.98,302.89,276.56,309.06z M250.5,312.86c-3.87-5.94-20.88-4.51-25.46,2.5
	C233.57,314.53,241.92,313.7,250.5,312.86z M282.89,284.02c-1.35,2.08-2.04,4.55-3.34,4.92c-6.08,1.73-8.62,6.65-11.53,11.48
	C284.85,293.94,286.23,292.53,282.89,284.02z M140.13,314.28c-4.08-3.68-19.03-3.79-24.86,0
	C123.98,314.28,131.7,314.28,140.13,314.28z M26.67,133.44c-2.23-2.99-3.88-5.19-5.52-7.39c-1.13,1.92-3.29,3.94-3.12,5.73
	c0.2,2.12,2.42,4.04,3.77,6.05C23.16,136.61,24.52,135.38,26.67,133.44z M138.37,320.77c-2.74,4.36-4.57,7.27-6.4,10.18
	c0.47,0.59,0.94,1.19,1.4,1.78c3.21-1.54,6.42-3.09,9.63-4.63C141.67,325.97,140.32,323.85,138.37,320.77z M232.91,330.87
	c-1.58-3.47-2.89-6.33-4.33-9.5c-2.93,1.61-7.02,2.43-5.62,6.35C224.4,331.79,228.63,330.98,232.91,330.87z M311.25,123.08
	c2.4,2.3,3.67,3.5,4.93,4.71c1.8-2.2,3.73-4.33,5.23-6.73c0.16-0.26-2.73-3.25-3.31-2.99C315.93,119.05,314.14,120.85,311.25,123.08
	z M54.15,269.61c-0.44,0.46-0.88,0.92-1.32,1.38c4.71,4.48,9.43,8.96,14.14,13.43c0.49-0.51,0.97-1.02,1.46-1.53
	C65.41,276.63,59.66,273.24,54.15,269.61z M86.12,299.56c0.55-0.42,1.1-0.85,1.65-1.27c-0.46-1.56-0.66-4.28-1.44-4.45
	c-2.52-0.58-5.24-0.21-7.89-0.21c-0.15,0.75-0.31,1.5-0.46,2.24C80.69,297.09,83.4,298.33,86.12,299.56z M344.64,166.59
	c-2.48-1.76-3.78-2.69-5.08-3.61c-1.03,1.47-2.39,2.84-2.92,4.48c-0.19,0.59,1.87,2.75,2.45,2.59
	C340.69,169.6,342.06,168.3,344.64,166.59z M117.29,307.48c-6.11-2.26-9.63-0.82-13.15,4.9
	C108.48,310.76,112.42,309.29,117.29,307.48z M54.05,289.44c-0.36,0.51-0.73,1.01-1.09,1.52c1.91,4.89,4.42,6.39,9.69,4.65
	C59.36,293.25,56.71,291.34,54.05,289.44z M55.9,278.32c-0.73,0.43-1.47,0.86-2.2,1.29c2.49,3.93,4.99,7.87,7.48,11.8
	c0.48-0.31,0.97-0.61,1.45-0.92C60.38,286.43,58.14,282.37,55.9,278.32z M266.3,138.42c0.34-0.71,0.68-1.41,1.01-2.12
	c-4.5-1.81-9-3.61-13.5-5.42c-0.24,0.56-0.48,1.12-0.71,1.69C257.5,134.52,261.9,136.47,266.3,138.42z M284.3,128.55
	c-2.22-1.93-3.58-3.97-4.66-3.83c-1.3,0.16-2.64,2.05-3.38,3.48c-0.21,0.41,1.58,2.66,2.45,2.66
	C280.19,130.85,281.66,129.72,284.3,128.55z M304.96,268.59c-0.53-0.41-1.06-0.82-1.58-1.23c-2.33,2.74-4.65,5.49-6.98,8.23
	c0.69,0.56,1.38,1.11,2.08,1.67C300.64,274.37,302.8,271.48,304.96,268.59z M79.42,134.63c-0.81,0.13-1.62,0.27-2.43,0.4
	c0.37,2.13,0.71,4.28,1.22,6.38c0.02,0.07,1.67-0.25,2.56-0.4C80.32,138.88,79.87,136.76,79.42,134.63z M250.22,329.38
	c0.64,0.53,1.28,1.06,1.92,1.59c1.22-1.49,2.49-2.95,3.58-4.53c0.1-0.15-0.94-1.09-1.46-1.67
	C252.92,326.31,251.57,327.84,250.22,329.38z"/>
<path d="M282.73,492.6c-1.59,2.89-3.19,5.77-4.76,8.67c-3.75,6.94-8.25,13.61-10.96,20.94c-1.98,5.35-5.13,9.1-9.1,12.7
	c-6.9,6.25-14.11,12.22-20.35,19.08c-4.28,4.7-7.37,10.56-10.55,16.15c-5.49,9.65-14.63,13.42-24.68,14.49
	c-11.13,1.19-22.41,0.86-33.62,1.28c-10.23,0.38-18.45-4.86-26.74-9.65c-5.94-3.43-11.04-7.93-13.82-14.56
	c-0.54-1.29-1.76-2.57-3-3.27c-8.98-5.04-13.32-13.62-17.62-22.33c-1.76-3.57-4.29-6.77-5.96-10.37c-0.77-1.66-0.31-3.89-0.41-5.86
	c1.9,0.53,4.21,0.56,5.62,1.7c2.15,1.75,3.73,4.22,5.45,6.47c2.55,3.34,5.38,5.46,9.78,6.86c4.94,1.58,8.75,6.42,13.43,9.19
	c9,5.3,18.26,10.16,27.44,15.15c0.86,0.47,1.9,0.77,2.87,0.81c12.37,0.39,24.75,3.98,37.13,0.29c11.76-3.5,22.32-8.93,29.91-19.06
	c3.79-5.06,7.73-10,11.74-14.89c1.6-1.96,2.9-3.62,6.54-2.77c2.41,0.56,6.49-1.89,8.42-4.18c6.5-7.72,12.36-15.98,18.49-24.02
	c1.01-1.32,2.11-2.56,3.17-3.84C281.67,491.92,282.2,492.26,282.73,492.6z"/>
<path class="st0" d="M127.62,469.39c4.13-1.81,6.96-3.48,10.03-4.32c8.63-2.34,17.32-4.53,26.06-6.37c3.02-0.64,6.6-0.92,9.39,0.09
	c8.28,3,16.31,2.14,24.44-0.14c0.47-0.13,1.02-0.19,1.49-0.09c11.97,2.68,24.02,5.06,35.85,8.26c5,1.35,4.66,3.19,0.79,6.59
	c-6.33,5.55-12.67,11.2-18.31,17.42c-10.37,11.44-22.94,15.68-38.04,13.67c-5.27-0.7-10.12-1.86-13.77-6.04
	c-0.32-0.36-0.77-0.73-1.22-0.84c-10.95-2.83-15.71-13.2-23.81-19.49c-1.93-1.5-3.87-3.01-5.89-4.39
	C132.74,472.46,130.77,471.34,127.62,469.39z M164.01,469.87c-0.14,0.76-0.28,1.51-0.41,2.27c3.22,1.42,6.33,3.52,9.69,4.08
	c3.86,0.65,8.02,0.39,11.91-0.31c4.06-0.72,7.94-2.43,11.9-3.7c-0.17-0.58-0.35-1.16-0.52-1.75c-1.72,0.2-3.44,0.48-5.17,0.57
	c-2.45,0.14-4.95,0.43-7.37,0.15c-4.94-0.58-9.82-1.64-14.76-2.19C167.57,468.81,165.77,469.55,164.01,469.87z M185.66,493.05
	c0.01-0.76,0.01-1.53,0.02-2.29c-1.9-0.12-3.84-0.03-5.69-0.41c-2.47-0.5-4.89-1.28-7.27-2.09c-1.31-0.45-2.48-1.46-3.8-1.67
	c-0.39-0.06-1.75,2.02-1.5,2.61c0.59,1.37,1.82,3.35,2.93,3.45C175.44,493.1,180.56,492.97,185.66,493.05z M172.78,486.1
	c3.83,0.59,6.67,1.31,9.53,1.4c5.98,0.18,5.99,0.04,6.35-3.43c-2.26-0.25-5,0.22-6.68-0.9C177.69,480.3,175.82,483.17,172.78,486.1z
	"/>
<path d="M249.27,2.63c2.27,4.98,3.82,10.5,7,14.8c3.15,4.26,7.96,7.29,11.93,10.76c-1.18,3.4-3.59,6.82-3.07,9.72
	c0.73,4.14,3.05,8.34,5.7,11.72c4.61,5.88,5.96,8.6,0.59,17.58c-2.27,3.8-3.14,6.92-1.66,10.96c0.6,1.64,0.56,3.52,0.81,5.3
	c-0.47,0.35-0.95,0.7-1.42,1.05c-2.01-2.07-4.02-4.14-6.65-6.86c0.06,0-1.19,0.29-2.2-0.09c-0.87-0.33-1.46-1.41-2.18-2.15
	c0.94-0.31,1.87-0.7,2.84-0.9c1.27-0.26,2.58-0.37,3.87-0.55c-0.5-0.92-1-1.84-1.53-2.83c7.66-5.94,7.65-6.87-0.55-17.54
	c1.21-2.08,2.73-4.06,3.43-6.29c0.19-0.6-2.12-1.98-3.58-3.27c-1.85,3.07-0.18,8.42-6.26,7.23c0.25-1.41,0.48-2.73,0.86-4.91
	c-3.02,1.79-5.49,3.26-8.42,4.99c-3.33-3.13-1.19-7.6-1.77-11.38c-0.45-2.97,0.57-6.14,0.57-9.22c0-1.06-1.03-2.2-1.76-3.17
	c-1.05-1.38-2.26-2.65-4.07-4.73c2.54,0,3.96,0,6.88,0c-8.21-7.39-1.84-13.61-0.89-20.21C248.24,2.64,248.75,2.63,249.27,2.63z
	 M260.02,35.18c-1.92-2.65-3.01-5.21-4.94-6.48c-1.52-1.01-5.3,4.83-4.46,8.22c0.43,1.75,2.91,3,4.47,4.48
	C256.62,39.47,258.14,37.55,260.02,35.18z"/>
<path d="M49.1,40.65c4.34,7.14,2.49,16.15-2.97,19.51c-3.5,2.16-3.64,8,0.29,11.69c2.97,2.78,1.7,4.36-1.08,6.96
	c-2.51-4.98-4.81-9.6-7.17-14.19c-1.04-2.03-3.1-4-3.12-6.02c-0.06-5.38,0.21-10.88,1.37-16.11c0.72-3.23,3.22-6.17,7.29-5.5
	c-1.39,3.54-2.68,6.92-4.05,10.27c-1.09,2.68-0.56,4.73,2.42,5.33c2.81,0.57,4.89-0.43,5.4-3.64C47.88,46.53,48.42,44.13,49.1,40.65
	z"/>
<path d="M229.72,49.14c-2.53-0.2-4.79-0.71-6.96-0.48c-4.91,0.54-9.76,1.57-14.67,2.14c-1.72,0.2-3.53-0.35-5.3-0.56
	c0.83-1.44,1.49-3.02,2.55-4.28c0.82-0.98,2.14-1.54,3.18-2.26c5.98,3.19,11.94,2.64,15.8-1.7c-1.68-1.21-3.32-2.39-5.88-4.23
	c2.64-0.54,4.65-0.44,5.99-1.34c2.18-1.46,4.41-3.29,5.64-5.51c0.67-1.21-0.29-3.79-1.29-5.22c-0.36-0.51-2.99,0.51-4.56,0.94
	c-0.58,0.16-1.08,0.64-1.64,0.99c-1.25-2.94-2.11-5.87-3.66-8.37c-1.53-2.47-3.76-4.51-5.58-6.62c3.87-1.99,4.96-1.32,11.28,7.34
	c3.46,0.88,6.7,0.73,8.1,2.26c3.45,3.74,2.53,8.34,0.25,12.53C228.45,43.14,228.4,43.11,229.72,49.14z"/>
<path d="M13.56,111.97c-3.03-1.34-4.94-2.04-6.69-3.01c-1.04-0.58-2.26-1.4-2.7-2.42c-1.57-3.65-3.11-7.36-4.09-11.19
	c-0.39-1.52,0.71-3.41,1.13-5.14c2.16,0.69,4.66,0.93,6.39,2.21c1.45,1.08,1.99,3.37,2.94,5.12c0.55,1.02,0.87,2.55,1.72,2.95
	C20.01,104.12,12.95,108.13,13.56,111.97z"/>
<path d="M122.56,54.36c-2.24,1.72-4.5,3.46-7.73,5.95c-0.84-7.23-5.53-10.05-10.43-12.79c-0.49-0.27-0.51-2.62,0.07-3.25
	c0.6-0.64,2.73-0.9,3.26-0.37c1.6,1.56,3.02,3.45,4.03,5.45c1.68,3.33,2.41,3.85,7.75,3.27c-1.68-1.6-2.98-2.83-4.85-4.61
	c4.33,0.15,8.3-3.18,11.36,1.35c1.13,1.68,1.39,3.92,2.39,5.71c1.12,2.01,2.62,3.8,3.7,5.31C128.28,60.43,126.46,60.58,122.56,54.36
	z"/>
<path d="M303.68,59.24c2.87,4.96,5.91,9.79,8.43,14.87c0.71,1.44-0.09,3.63-0.19,5.48c-1.51-0.85-2.96-1.86-4.55-2.53
	c-2.55-1.08-5.19-1.93-8.33-3.08C300.31,69.96,301.97,64.69,303.68,59.24z"/>
<path d="M154.66,69.32c5.92,3.22,10.91,5.92,15.9,8.63c-0.21,0.52-0.42,1.03-0.63,1.55c-5.06-0.92-10.13-1.84-15.43-2.81
	c-0.11-1.48-0.22-2.84-0.37-4.77c-5.76,2.84-9.39,0.69-12.07-4.28C146.7,68.26,151.11,68.84,154.66,69.32z"/>
<path d="M249.33,74.82c8.75,5.49,13.19,13.02,10.99,19.63c-5.65-1.87-8.11-6.96-10.78-11.38C248.32,81.08,249.33,77.74,249.33,74.82
	z"/>
<path d="M156.33,105.86c0.48-4.69,3.12-5.31,6.04-4.36c4.45,1.46,8.33,0.46,12.39-1.3c1.49-0.65,3.54-0.39,5.22-0.03
	c0.78,0.17,1.3,1.58,1.93,2.43c-0.75,0.53-1.46,1.45-2.24,1.52C172.13,104.76,164.58,105.26,156.33,105.86z"/>
<path d="M251.18,65.47c-1.55-4.24-1.46-7.46,3.15-9.41c4.83-2.04,6.13,1.74,8.01,4.81c-1.16-0.65-2.32-1.31-2.83-1.6
	C256.51,61.5,253.92,63.42,251.18,65.47z"/>
<path d="M104.74,30.61c-5.13,3.74-7.1,0.02-8.89-2.32c-0.53-0.69,1.25-4.63,2.49-4.93C105.49,21.6,100.79,29.18,104.74,30.61z"/>
<path d="M228.04,63.02c-2.35-3.44-4.69-6.88-7.04-10.32c0.54-0.45,1.08-0.89,1.63-1.34c1.88,2.19,3.76,4.38,5.84,6.81
	c0.69-1.28,1.41-2.61,2.47-4.55c1.17,1.1,2.11,2,2.48,2.34c-2.05,2.57-3.78,4.75-5.51,6.93C227.91,62.88,228.04,63.02,228.04,63.02z
	"/>
<path d="M100.77,61.91c2.91,0,5.34,0,7.77,0c0.16,1.21,0.42,3.17,0.74,5.68c-0.94,0.6-2.77,1.76-5.29,3.37
	C102.88,67.83,101.81,64.83,100.77,61.91z"/>
<path d="M249.92,91.6c-5.63,0.01-9.4-5.09-9.91-13.76C243.72,82.99,246.64,87.05,249.92,91.6z"/>
<path d="M132.67,33.27c-0.52,2.07-0.91,3.63-1.3,5.18c-5.54-0.92-9.71-7.11-6.87-10.64C125.9,31.45,126.61,36.15,132.67,33.27z"/>
<path d="M208.04,411.51c-3.37,1.38-6.74,2.77-11.03,4.53c1.97-6.31,6.06-6.39,10.05-6.63C207.39,410.11,207.71,410.81,208.04,411.51
	z"/>
<path d="M227.91,62.88c-0.07,2.55-0.77,4.17-3.85,3.05c-1.79-0.65-3.7-1.01-5.92-1.6c3.19-4.53,6.76-0.97,9.9-1.32
	C228.04,63.02,227.91,62.88,227.91,62.88z"/>
<path d="M50.76,72.15c0.22-3.46,0.44-6.91,0.66-10.37c0.84,0.05,1.69,0.1,2.53,0.15c-0.18,3.43-0.35,6.87-0.53,10.3
	C52.54,72.2,51.65,72.18,50.76,72.15z"/>
<path d="M79.13,63.18c4.96-1.04,4.96-1.04,5.53,7.79C82.94,68.54,81.21,66.11,79.13,63.18z"/>
<path d="M160.24,410.81c3.92-1.33,7.17,0.22,9.97,3.72c-3.44-0.76-6.87-1.53-10.31-2.29C160.02,411.76,160.13,411.29,160.24,410.81z
	"/>
<path d="M79.32,0c0.6,1.88,1.2,3.77,1.8,5.65c-1.03,0.05-2.79,0.44-2.96,0.08c-0.74-1.56-1.02-3.35-1.47-5.05
	C77.57,0.46,78.44,0.23,79.32,0z"/>
<path d="M177.56,92.81c2.49,0,4.97,0,7.46,0c-0.03,0.81-0.05,1.62-0.08,2.43c-2.49-0.14-4.97-0.28-7.46-0.41
	C177.51,94.15,177.53,93.48,177.56,92.81z"/>
<path d="M325.48,68.31c-2.22,2.71-3.66,4.47-5.11,6.24c-0.47-0.28-0.94-0.56-1.41-0.84c0.49-1.52,0.59-3.41,1.59-4.43
	C321.35,68.46,323.23,68.69,325.48,68.31z"/>
<path d="M208.13,36.02c3.1,0.47,5.42,0.82,8.76,1.33c-2.75,1.46-4.84,2.57-7.31,3.88C209.12,39.55,208.69,38.02,208.13,36.02z"/>
<path d="M190.19,74.21c-1.23,3.54-2.16,6.22-3.1,8.92C183.99,80.6,184.91,77.3,190.19,74.21z"/>
<path d="M167.09,48.35c2.08-1.47,3.35-2.37,5.13-3.63c0,2.31,0,3.95,0,6.66C170.18,50.19,168.9,49.43,167.09,48.35z"/>
<path d="M115.34,39.46c-1.77,1.2-3.18,2.16-4.58,3.11c-0.4-0.52-0.8-1.04-1.2-1.56c1.3-0.87,2.54-2.33,3.91-2.45
	c1.7-0.15,3.49,0.81,5.24,1.29c-0.18,0.51-0.37,1.02-0.55,1.54C117.23,40.77,116.31,40.13,115.34,39.46z"/>
</svg>
